<?xml version="1.0" standalone="no"?>
<!DOCTYPE svg PUBLIC "-//W3C//DTD SVG 1.1//EN" "http://www.w3.org/Graphics/SVG/1.1/DTD/svg11.dtd">
<svg width="239.99999999999994mm" height="239.99999999999997mm"
 viewBox="0 0 239.99999999999994 239.99999999999997"
 xmlns="http://www.w3.org/2000/svg" version="1.1"
 xmlns:xlink="http://www.w3.org/1999/xlink">
<desc>Output from Flights of Ideas SVG Sketchup Plugin</desc>

  <path id="face0-cut"
 style="fill:none;stroke:#0000FF;stroke-width:1;stroke-miterlimit:4;stroke-dasharray:none;stroke-linejoin:round;stroke-linecap:round"
        d="M 229.76448155624638,127.19434421531477 L 229.99999999999994,119.99999999999997 L 229.7644815562463,112.8056557846842 L 229.05893475111907,105.64211885579434 L 227.88638084435533,98.54006457822587 L 226.25184089179743,91.52990503872269 L 224.16231424446164,84.64165881665224 L 221.62674857624148,77.90482243984013 L 218.65600156859568,71.34824407590983 L 215.2627944162882,65.00000000000003 L 211.46165735327992,58.88727436784373 L 207.26886743203585,53.036242809040715 L 202.7023788226875,47.47196033899246 L 197.7817459305202,42.21825406947974 L 192.5280396610075,37.297621177312436 L 186.96375719095923,32.731132567964124 L 181.1127256321562,28.538342646720054 L 175.0,24.737205583711727 L 168.65175592409008,21.343998431404287 L 162.09517756015987,18.373251423758433 L 155.3583411833478,15.837685755538416 L 148.47009496127725,13.748159108202543 L 141.4599354217741,12.113619155644614 L 134.35788114420566,10.941065248880875 L 127.19434421531574,10.235518443753676 L 120.00000000000003,10.0 L 112.8056557846843,10.235518443753591 L 105.6421188557944,10.941065248880903 L 98.54006457822595,12.113619155644614 L 91.52990503872275,13.748159108202458 L 84.64165881665234,15.83768575553836 L 77.90482243984022,18.373251423758347 L 71.34824407590992,21.343998431404287 L 65.00000000000014,24.737205583711642 L 58.88727436784387,28.53834264671994 L 53.036242809040836,32.73113256796398 L 47.47196033899256,37.297621177312266 L 42.21825406947987,42.218254069479684 L 37.29762117731262,47.471960338992176 L 32.73113256796424,53.036242809040516 L 28.538342646720103,58.88727436784356 L 24.737205583711834,64.99999999999977 L 21.34399843140436,71.34824407590972 L 18.373251423758546,77.90482243984005 L 15.837685755538452,84.64165881665195 L 13.748159108202522,91.5299050387226 L 12.113619155644699,98.54006457822558 L 10.941065248880868,105.642118855794 L 10.23551844375362,112.80565578468398 L 10.0,120.00000000000003 L 10.23551844375357,127.19434421531477 L 10.941065248880825,134.35788114420595 L 12.113619155644606,141.45993542177362 L 13.748159108202437,148.47009496127723 L 15.837685755538274,155.3583411833474 L 18.373251423758326,162.0951775601595 L 21.343998431404138,168.65175592408983 L 24.737205583711564,174.99999999999946 L 28.538342646719855,181.11272563215593 L 32.731132567963925,186.96375719095894 L 37.29762117731224,192.52803966100728 L 42.218254069479485,197.78174593051992 L 47.471960338992105,202.70237882268728 L 53.03624280904047,207.2688674320357 L 58.88727436784349,211.46165735327972 L 64.99999999999976,215.26279441628813 L 71.34824407590966,218.6560015685956 L 77.90482243983996,221.6267485762414 L 84.64165881665207,224.16231424446156 L 91.52990503872263,226.25184089179746 L 98.54006457822578,227.88638084435533 L 105.64211885579431,229.0589347511191 L 112.80565578468423,229.7644815562463 L 120.00000000000006,229.99999999999997 L 127.19434421531582,229.7644815562463 L 134.3578811442058,229.0589347511191 L 141.45993542177428,227.88638084435527 L 148.47009496127754,226.25184089179746 L 155.35834118334802,224.16231424446144 L 162.09517756016015,221.6267485762414 L 168.65175592409042,218.65600156859549 L 175.00000000000028,215.26279441628802 L 181.11272563215658,211.46165735327966 L 186.9637571909596,207.26886743203548 L 192.52803966100797,202.70237882268717 L 197.78174593052057,197.78174593051975 L 202.70237882268788,192.52803966100706 L 207.2688674320362,186.96375719095872 L 211.4616573532803,181.1127256321557 L 215.26279441628856,174.9999999999994 L 218.65600156859603,168.65175592408943 L 221.62674857624177,162.0951775601591 L 224.1623142444618,155.35834118334694 L 226.25184089179768,148.47009496127637 L 227.88638084435553,141.45993542177322 L 229.05893475111927,134.35788114420475 L 229.76448155624638,127.19434421531477 "
  />
  <path id="face0-interior"
 style="fill:none;stroke:#00FF00;stroke-width:1;stroke-miterlimit:4;stroke-dasharray:none;stroke-linejoin:round;stroke-linecap:round"
        d="M 229.76448155624638,127.19434421531477 M 229.99999999999994,119.99999999999997 M 229.7644815562463,112.8056557846842 M 229.05893475111907,105.64211885579434 M 227.88638084435533,98.54006457822587 M 226.25184089179743,91.52990503872269 M 224.16231424446164,84.64165881665224 M 221.62674857624148,77.90482243984013 M 218.65600156859568,71.34824407590983 M 215.2627944162882,65.00000000000003 M 211.46165735327992,58.88727436784373 M 207.26886743203585,53.036242809040715 M 202.7023788226875,47.47196033899246 M 197.7817459305202,42.21825406947974 M 192.5280396610075,37.297621177312436 M 186.96375719095923,32.731132567964124 M 181.1127256321562,28.538342646720054 M 175.0,24.737205583711727 M 168.65175592409008,21.343998431404287 M 162.09517756015987,18.373251423758433 M 155.3583411833478,15.837685755538416 M 148.47009496127725,13.748159108202543 M 141.4599354217741,12.113619155644614 M 134.35788114420566,10.941065248880875 M 127.19434421531574,10.235518443753676 M 120.00000000000003,10.0 M 112.8056557846843,10.235518443753591 M 105.6421188557944,10.941065248880903 M 98.54006457822595,12.113619155644614 M 91.52990503872275,13.748159108202458 M 84.64165881665234,15.83768575553836 M 77.90482243984022,18.373251423758347 M 71.34824407590992,21.343998431404287 M 65.00000000000014,24.737205583711642 M 58.88727436784387,28.53834264671994 M 53.036242809040836,32.73113256796398 M 47.47196033899256,37.297621177312266 M 42.21825406947987,42.218254069479684 M 37.29762117731262,47.471960338992176 M 32.73113256796424,53.036242809040516 M 28.538342646720103,58.88727436784356 M 24.737205583711834,64.99999999999977 M 21.34399843140436,71.34824407590972 M 18.373251423758546,77.90482243984005 M 15.837685755538452,84.64165881665195 M 13.748159108202522,91.5299050387226 M 12.113619155644699,98.54006457822558 M 10.941065248880868,105.642118855794 M 10.23551844375362,112.80565578468398 M 10.0,120.00000000000003 M 10.23551844375357,127.19434421531477 M 10.941065248880825,134.35788114420595 M 12.113619155644606,141.45993542177362 M 13.748159108202437,148.47009496127723 M 15.837685755538274,155.3583411833474 M 18.373251423758326,162.0951775601595 M 21.343998431404138,168.65175592408983 M 24.737205583711564,174.99999999999946 M 28.538342646719855,181.11272563215593 M 32.731132567963925,186.96375719095894 M 37.29762117731224,192.52803966100728 M 42.218254069479485,197.78174593051992 M 47.471960338992105,202.70237882268728 M 53.03624280904047,207.2688674320357 M 58.88727436784349,211.46165735327972 M 64.99999999999976,215.26279441628813 M 71.34824407590966,218.6560015685956 M 77.90482243983996,221.6267485762414 M 84.64165881665207,224.16231424446156 M 91.52990503872263,226.25184089179746 M 98.54006457822578,227.88638084435533 M 105.64211885579431,229.0589347511191 M 112.80565578468423,229.7644815562463 M 120.00000000000006,229.99999999999997 M 127.19434421531582,229.7644815562463 M 134.3578811442058,229.0589347511191 M 141.45993542177428,227.88638084435527 M 148.47009496127754,226.25184089179746 M 155.35834118334802,224.16231424446144 M 162.09517756016015,221.6267485762414 M 168.65175592409042,218.65600156859549 M 175.00000000000028,215.26279441628802 M 181.11272563215658,211.46165735327966 M 186.9637571909596,207.26886743203548 M 192.52803966100797,202.70237882268717 M 197.78174593052057,197.78174593051975 M 202.70237882268788,192.52803966100706 M 207.2688674320362,186.96375719095872 M 211.4616573532803,181.1127256321557 M 215.26279441628856,174.9999999999994 M 218.65600156859603,168.65175592408943 M 221.62674857624177,162.0951775601591 M 224.1623142444618,155.35834118334694 M 226.25184089179768,148.47009496127637 M 227.88638084435553,141.45993542177322 M 229.05893475111927,134.35788114420475 "
  />
</svg>
