<?xml version="1.0" standalone="no"?>
<!DOCTYPE svg PUBLIC "-//W3C//DTD SVG 1.1//EN" "http://www.w3.org/Graphics/SVG/1.1/DTD/svg11.dtd">
<svg width="370.00502437952974mm" height="334.36710445427354mm"
 viewBox="0 0 370.00502437952974 334.36710445427354"
 xmlns="http://www.w3.org/2000/svg" version="1.1"
 xmlns:xlink="http://www.w3.org/1999/xlink">
<desc>Output from Flights of Ideas SVG Sketchup Plugin</desc>

  <path id="face0-cut"
 style="fill:none;stroke:#0000FF;stroke-width:1;stroke-miterlimit:4;stroke-dasharray:none;stroke-linejoin:round;stroke-linecap:round"
        d="M 118.36556754679894,324.36710445427354 L 251.36814493487043,324.36710445427354 L 255.02877958372392,324.36710445427354 L 258.6618669139175,323.85013350347083 L 262.2397265655872,323.06018069140976 L 265.73512245702653,321.96140287290734 L 269.12145251492404,320.5621624106207 L 272.372944722817,318.87310836935023 L 275.4648532616987,316.90709547022817 L 278.3736468406428,314.6790862585292 L 281.07718778413596,312.2060372296626 L 283.5549005131556,309.5067697800063 L 285.78792813775,306.60182696471344 L 287.759275969357,303.51331715266195 L 354.3599662573277,188.38715311930366 L 356.0546311486165,185.13858173505574 L 357.45971567649764,181.75467236838657 L 358.5645262993009,178.26117861283709 L 359.3606547410837,174.68468806531627 L 359.8420419836886,171.0524199784346 L 360.00502437952974,167.39201810555673 L 359.8483615341634,163.73134031514635 L 359.3732457464385,160.09824657556626 L 358.58329293438226,156.5203869238964 L 357.48451511588104,153.0249910324571 L 356.0852746535937,149.63866097455968 L 354.3962206123229,146.3871687666667 L 287.99438306316574,31.146197051025183 L 286.0283701640442,28.054288512143557 L 283.8003609523452,25.145494933199416 L 281.3273119234787,22.441953989706292 L 278.62804447382206,19.964241260686634 L 275.7231016585295,17.731213636092264 L 272.63459184647775,15.759865804485145 L 269.3860204622298,14.065200913196406 L 266.00211109556085,12.660116385315206 L 262.50861734001137,11.555305762512006 L 258.93212679249046,10.759177320729322 L 255.2998587056088,10.277790078124497 L 251.63945683273107,10.114807682283299 L 118.63692899560282,10.0 L 114.97625120519244,10.156662845366355 L 111.34315746561236,10.631778633091358 L 107.7652978139426,11.421731445147543 L 104.26990192250322,12.520509263648819 L 100.88357186460573,13.919749725936128 L 97.63207965671278,15.608803767206894 L 94.54017111783108,17.574816666328502 L 91.63137753888702,19.802825878027363 L 88.92783659539379,22.275874906893932 L 86.45012386637416,24.975142356550492 L 84.21709624177976,27.88008517184329 L 82.24574841017271,30.96859498389489 L 15.645058122201945,146.09475901725312 L 13.95039323091305,149.3433304015011 L 12.545308703031992,152.72723976817014 L 11.44049808022875,156.2207335237196 L 10.644369638446008,159.79722407124055 L 10.162982395841112,163.42949215812217 L 10.0,167.08989403099997 L 10.156662845366256,170.75057182141035 L 10.631778633091201,174.3836655609905 L 11.421731445147401,177.96152521266026 L 12.520509263648705,181.4569211040996 L 13.919749725935944,184.84325116199707 L 15.608803767206837,188.09474336989004 L 82.01064131636402,303.3357150855315 L 83.97665421548557,306.4276236244132 L 86.20466342718449,309.3364172033573 L 88.67771245605104,312.0399581468505 L 91.37697990570766,314.5176708758701 L 94.28192272100026,316.7506985004645 L 97.37043253305202,318.72204633207156 L 100.6190039173,320.4167112233604 L 104.00291328396908,321.82179575124155 L 107.49640703951852,322.9266063740447 L 111.07289758703944,323.7227348158275 L 114.7051656739211,324.20412205843235 L 118.36556754679894,324.36710445427354 M 17.59657435484104,169.32899204195178 L 16.975254011281365,168.8522361741581 L 16.498498143487723,168.23091583059843 L 16.198796875973912,167.50737296590594 L 16.09657435484104,166.73091583059843 L 16.19879687597387,165.9544586952909 L 16.498498143487765,165.23091583059843 L 16.97525401128145,164.60959548703875 L 17.596574354841067,164.13283961924515 L 18.320117219533486,163.83313835173118 L 19.09657435484101,163.73091583059846 L 19.873031490148634,163.83313835173118 L 20.59657435484111,164.13283961924512 L 21.2178946984007,164.60959548703875 L 21.694650566194326,165.2309158305985 L 21.99435183370825,165.9544586952909 L 22.096574354841067,166.7309158305984 L 21.994351833708265,167.50737296590597 L 21.69465056619437,168.23091583059843 L 21.2178946984007,168.85223617415807 L 20.596574354841053,169.32899204195178 L 19.87303149014869,169.6286933094656 L 19.096574354840996,169.73091583059846 L 18.32011721953353,169.62869330946558 L 17.59657435484104,169.32899204195178 M 50.773873632323344,232.75097301357874 L 50.47287937685023,233.47763742733832 L 49.99406666224479,234.10163830585108 L 49.37006578373206,234.5804510204565 L 48.643401369972395,234.88144527592965 L 47.86359439989387,234.98410881117653 L 47.0837874298153,234.88144527592968 L 46.35712301605564,234.58045102045648 L 45.73312213754292,234.1016383058511 L 45.254309422937496,233.47763742733832 L 44.95331516746435,232.75097301357874 L 44.85065163221742,231.97116604350018 L 44.95331516746434,231.19135907342158 L 45.25430942293745,230.464694659662 L 45.73312213754289,229.8406937811492 L 46.35712301605567,229.3618810665438 L 47.08378742981532,229.06088681107065 L 47.86359439989383,228.9582232758238 L 48.643401369972366,229.06088681107065 L 49.37006578373207,229.36188106654382 L 49.994066662244805,229.84069378114918 L 50.47287937685019,230.464694659662 L 50.77387363232337,231.19135907342155 L 50.87653716757025,231.97116604350018 L 50.773873632323344,232.75097301357874 M 104.4691448240294,311.882820091661 L 103.98925545336787,312.5059935442805 L 103.36442875854408,312.983728367754 L 102.63724564623527,313.28346772335584 L 101.85726244381844,313.38478486934446 L 101.07763371755506,313.2807752096552 L 100.3514898767426,312.97852683071187 L 99.72831642412307,312.4986374600503 L 99.25058160064961,311.87381076522655 L 98.95084224504777,311.1466276529177 L 98.84952509905916,310.36664445050087 L 98.95353475874839,309.5870157242375 L 99.25578313769178,308.86087188342503 L 99.73567250835328,308.23769843080555 L 100.3604992031771,307.759963607332 L 101.08768231548589,307.4602242517302 L 101.86766551790274,307.3589071057416 L 102.64729424416612,307.4629167654308 L 103.37343808497857,307.76516514437424 L 103.99661153759811,308.24505451503575 L 104.47434636107157,308.8698812098595 L 104.77408571667341,309.59706432216836 L 104.87540286266201,310.3770475245852 L 104.77139320297279,311.15667625084853 L 104.4691448240294,311.882820091661 M 195.2281728705791,315.6485310469813 L 195.9556144633467,315.349419499872 L 196.73568484991972,315.2487756699858 L 197.51522352258053,315.3534582680079 L 198.24110620903576,315.6563333478789 L 198.86386520378142,316.13676047343057 L 199.34106051048343,316.76199932999964 L 199.64017205759268,317.48944092276736 L 199.74081588747873,318.2695113093403 L 199.63613328945675,319.0490499820009 L 199.33325820958578,319.7749326684563 L 198.85283108403416,320.39769166320207 L 198.22759222746504,320.8748869699039 L 197.50015063469738,321.1739985170132 L 196.72008024812442,321.27464234689916 L 195.94054157546356,321.1699597488773 L 195.21465888900835,320.8670846690067 L 194.5918998942627,320.38665754345493 L 194.11470458756068,319.76141868688575 L 193.81559304045146,319.033977094118 L 193.71494921056538,318.2539067075449 L 193.81963180858736,317.4743680348842 L 194.12250688845836,316.7484853484289 L 194.60293401400997,316.1257263536833 L 195.2281728705791,315.6485310469813 M 269.1347514699036,313.41280695305113 L 268.4070519720728,313.7112904550745 L 267.62689501836775,313.8112608892503 L 266.8474470159132,313.7059054356979 L 266.12182605797744,313.4024038944693 L 265.499482013699,312.9214393940382 L 265.0228266012228,312.29578887027867 L 264.724343099199,311.5680893724475 L 264.6243726650232,310.7879324187426 L 264.72972811857557,310.008484416288 L 265.0332296598044,309.2828634583525 L 265.5141941602352,308.6605194140739 L 266.13984468399514,308.1838640015974 L 266.86754418182596,307.8853804995738 L 267.647701135531,307.78541006539797 L 268.42714913798557,307.89076551895033 L 269.1527700959213,308.1942670601792 L 269.77511414019983,308.67523156061003 L 270.25176955267597,309.30088208436996 L 270.55025305469974,310.02858158220056 L 270.6502234888756,310.8087385359057 L 270.54486803532325,311.58818653836056 L 270.2413664940944,312.31380749629574 L 269.76040199366355,312.9361515405745 L 269.1347514699036,313.41280695305113 M 350.73429175420273,170.44957903278242 L 349.9544846277748,170.34691547695178 L 349.2278200683205,170.04592116112997 L 348.60381906469723,169.56710835052357 L 348.12500625409103,168.94310734690032 L 347.8240119382693,168.21644278744597 L 347.72134838243863,167.4366356610179 L 347.82401193826934,166.65682853459015 L 348.12500625409126,165.9301639751357 L 348.6038190646974,165.30616297151252 L 349.2278200683209,164.8273501609062 L 349.9544846277751,164.52635584508454 L 350.7342917542031,164.42369228925398 L 351.5140988806311,164.52635584508462 L 352.2407634400853,164.82735016090652 L 352.8647644437086,165.30616297151266 L 353.34357725431477,165.93016397513605 L 353.6445715701366,166.6568285345904 L 353.7472351259672,167.43663566101844 L 353.6445715701365,168.2164427874462 L 353.3435772543146,168.9431073469006 L 352.86476444370845,169.5671083505238 L 352.2407634400849,170.0459211611302 L 351.51409888063074,170.34691547695186 L 350.73429175420273,170.44957903278242 M 266.471288492785,21.192244797889032 L 267.1984716050939,20.892505442287074 L 267.9784548075107,20.79118829629843 L 268.7580835337741,20.895197955987612 L 269.48422737458645,21.19744633493093 L 270.10740082720605,21.67733570559227 L 270.58513565067966,22.30216240041625 L 270.8848750062815,23.029345512724916 L 270.9861921522702,23.809328715141703 L 270.8821824925811,24.588957441405 L 270.5799341136376,25.315101282217597 L 270.1000447429761,25.93827473483711 L 269.47521804815244,26.416009558310463 L 268.7480349358436,26.715748913912506 L 267.9680517334269,26.817066059901208 L 267.18842300716335,26.71305640021197 L 266.4622791663511,26.410808021268792 L 265.83910571373144,25.93091865060731 L 265.3613708902579,25.306091955783415 L 265.06163153465604,24.578908843474665 L 264.96031438866737,23.798925641057934 L 265.06432404835647,23.01929691479461 L 265.3665724272999,22.29315307398187 L 265.84646179796147,21.669979621362472 L 266.471288492785,21.192244797889032 M 102.20883907854584,20.359112114411914 L 102.98828708100031,20.464467567964277 L 103.71390803893597,20.767969109192904 L 104.33625208321469,21.24893360962372 L 104.81290749569092,21.87458413338348 L 105.11139099771485,22.602283631214192 L 105.21136143189075,23.382440584919294 L 105.10600597833859,24.161888587373994 L 104.80250443710977,24.887509545309598 L 104.321539936679,25.509853589588175 L 103.69588941291937,25.986509002064423 L 102.96818991508863,26.28499250408828 L 102.18803296138339,26.384962938264238 L 101.40858495892888,26.279607484712102 L 100.68296400099325,25.97610594348336 L 100.06061995671458,25.495141443052603 L 99.5839645442383,24.86949091929276 L 99.2854810422144,24.141791421462045 L 99.18551060803847,23.36163446775697 L 99.29086606159066,22.582186465302385 L 99.59436760281945,21.85656550736678 L 100.07533210325022,21.234221463088062 L 100.70098262700982,20.7575660506119 L 101.42868212484058,20.459082548587986 L 102.20883907854584,20.359112114411914 M 49.99135386436498,99.36345958009933 L 50.47070513528645,99.98704706198798 L 50.77232659113379,100.71345155390338 L 50.87566322814388,101.49316979016177 L 50.773672825276364,102.27306526150733 L 50.47330585993954,102.99998938040613 L 49.99503184444127,103.62440346945402 L 49.37144436255264,104.10375474037558 L 48.645039870637234,104.40537619622293 L 47.86532163437886,104.508712833233 L 47.085426163033276,104.40672243036549 L 46.35850204413461,104.10635546502864 L 45.734087955086565,103.62808144953048 L 45.254736684165024,103.00449396764171 L 44.95311522831774,102.2780894757263 L 44.84977859130767,101.49837123946791 L 44.95176899417514,100.71847576812245 L 45.252135959511975,99.99155164922365 L 45.73040997501022,99.36713756017566 L 46.35399745689887,98.88778628925411 L 47.08040194881427,98.58616483340685 L 47.8601201850726,98.48282819639678 L 48.64001565641826,98.58481859926421 L 49.36693977531695,98.88518556460109 L 49.99135386436498,99.36345958009933 "
  />
  <path id="face0-interior"
 style="fill:none;stroke:#FF0000;stroke-width:1;stroke-miterlimit:4;stroke-dasharray:none;stroke-linejoin:round;stroke-linecap:round"
        d="M 118.36556754679894,324.36710445427354 M 251.36814493487043,324.36710445427354 M 255.02877958372392,324.36710445427354 M 258.6618669139175,323.85013350347083 M 262.2397265655872,323.06018069140976 M 265.73512245702653,321.96140287290734 M 269.12145251492404,320.5621624106207 M 272.372944722817,318.87310836935023 M 275.4648532616987,316.90709547022817 M 278.3736468406428,314.6790862585292 M 281.07718778413596,312.2060372296626 M 283.5549005131556,309.5067697800063 M 285.78792813775,306.60182696471344 M 287.759275969357,303.51331715266195 M 354.3599662573277,188.38715311930366 M 356.0546311486165,185.13858173505574 M 357.45971567649764,181.75467236838657 M 358.5645262993009,178.26117861283709 M 359.3606547410837,174.68468806531627 M 359.8420419836886,171.0524199784346 M 360.00502437952974,167.39201810555673 M 359.8483615341634,163.73134031514635 M 359.3732457464385,160.09824657556626 M 358.58329293438226,156.5203869238964 M 357.48451511588104,153.0249910324571 M 356.0852746535937,149.63866097455968 M 354.3962206123229,146.3871687666667 M 287.99438306316574,31.146197051025183 M 286.0283701640442,28.054288512143557 M 283.8003609523452,25.145494933199416 M 281.3273119234787,22.441953989706292 M 278.62804447382206,19.964241260686634 M 275.7231016585295,17.731213636092264 M 272.63459184647775,15.759865804485145 M 269.3860204622298,14.065200913196406 M 266.00211109556085,12.660116385315206 M 262.50861734001137,11.555305762512006 M 258.93212679249046,10.759177320729322 M 255.2998587056088,10.277790078124497 M 251.63945683273107,10.114807682283299 M 118.63692899560282,10.0 M 114.97625120519244,10.156662845366355 M 111.34315746561236,10.631778633091358 M 107.7652978139426,11.421731445147543 M 104.26990192250322,12.520509263648819 M 100.88357186460573,13.919749725936128 M 97.63207965671278,15.608803767206894 M 94.54017111783108,17.574816666328502 M 91.63137753888702,19.802825878027363 M 88.92783659539379,22.275874906893932 M 86.45012386637416,24.975142356550492 M 84.21709624177976,27.88008517184329 M 82.24574841017271,30.96859498389489 M 15.645058122201945,146.09475901725312 M 13.95039323091305,149.3433304015011 M 12.545308703031992,152.72723976817014 M 11.44049808022875,156.2207335237196 M 10.644369638446008,159.79722407124055 M 10.162982395841112,163.42949215812217 M 10.0,167.08989403099997 M 10.156662845366256,170.75057182141035 M 10.631778633091201,174.3836655609905 M 11.421731445147401,177.96152521266026 M 12.520509263648705,181.4569211040996 M 13.919749725935944,184.84325116199707 M 15.608803767206837,188.09474336989004 M 82.01064131636402,303.3357150855315 M 83.97665421548557,306.4276236244132 M 86.20466342718449,309.3364172033573 M 88.67771245605104,312.0399581468505 M 91.37697990570766,314.5176708758701 M 94.28192272100026,316.7506985004645 M 97.37043253305202,318.72204633207156 M 100.6190039173,320.4167112233604 M 104.00291328396908,321.82179575124155 M 107.49640703951852,322.9266063740447 M 111.07289758703944,323.7227348158275 M 114.7051656739211,324.20412205843235 M 17.59657435484104,169.32899204195178 M 16.975254011281365,168.8522361741581 M 16.498498143487723,168.23091583059843 M 16.198796875973912,167.50737296590594 M 16.09657435484104,166.73091583059843 M 16.19879687597387,165.9544586952909 M 16.498498143487765,165.23091583059843 M 16.97525401128145,164.60959548703875 M 17.596574354841067,164.13283961924515 M 18.320117219533486,163.83313835173118 M 19.09657435484101,163.73091583059846 M 19.873031490148634,163.83313835173118 M 20.59657435484111,164.13283961924512 M 21.2178946984007,164.60959548703875 M 21.694650566194326,165.2309158305985 M 21.99435183370825,165.9544586952909 M 22.096574354841067,166.7309158305984 M 21.994351833708265,167.50737296590597 M 21.69465056619437,168.23091583059843 M 21.2178946984007,168.85223617415807 M 20.596574354841053,169.32899204195178 M 19.87303149014869,169.6286933094656 M 19.096574354840996,169.73091583059846 M 18.32011721953353,169.62869330946558 M 50.773873632323344,232.75097301357874 M 50.47287937685023,233.47763742733832 M 49.99406666224479,234.10163830585108 M 49.37006578373206,234.5804510204565 M 48.643401369972395,234.88144527592965 M 47.86359439989387,234.98410881117653 M 47.0837874298153,234.88144527592968 M 46.35712301605564,234.58045102045648 M 45.73312213754292,234.1016383058511 M 45.254309422937496,233.47763742733832 M 44.95331516746435,232.75097301357874 M 44.85065163221742,231.97116604350018 M 44.95331516746434,231.19135907342158 M 45.25430942293745,230.464694659662 M 45.73312213754289,229.8406937811492 M 46.35712301605567,229.3618810665438 M 47.08378742981532,229.06088681107065 M 47.86359439989383,228.9582232758238 M 48.643401369972366,229.06088681107065 M 49.37006578373207,229.36188106654382 M 49.994066662244805,229.84069378114918 M 50.47287937685019,230.464694659662 M 50.77387363232337,231.19135907342155 M 50.87653716757025,231.97116604350018 M 104.4691448240294,311.882820091661 M 103.98925545336787,312.5059935442805 M 103.36442875854408,312.983728367754 M 102.63724564623527,313.28346772335584 M 101.85726244381844,313.38478486934446 M 101.07763371755506,313.2807752096552 M 100.3514898767426,312.97852683071187 M 99.72831642412307,312.4986374600503 M 99.25058160064961,311.87381076522655 M 98.95084224504777,311.1466276529177 M 98.84952509905916,310.36664445050087 M 98.95353475874839,309.5870157242375 M 99.25578313769178,308.86087188342503 M 99.73567250835328,308.23769843080555 M 100.3604992031771,307.759963607332 M 101.08768231548589,307.4602242517302 M 101.86766551790274,307.3589071057416 M 102.64729424416612,307.4629167654308 M 103.37343808497857,307.76516514437424 M 103.99661153759811,308.24505451503575 M 104.47434636107157,308.8698812098595 M 104.77408571667341,309.59706432216836 M 104.87540286266201,310.3770475245852 M 104.77139320297279,311.15667625084853 M 195.2281728705791,315.6485310469813 M 195.9556144633467,315.349419499872 M 196.73568484991972,315.2487756699858 M 197.51522352258053,315.3534582680079 M 198.24110620903576,315.6563333478789 M 198.86386520378142,316.13676047343057 M 199.34106051048343,316.76199932999964 M 199.64017205759268,317.48944092276736 M 199.74081588747873,318.2695113093403 M 199.63613328945675,319.0490499820009 M 199.33325820958578,319.7749326684563 M 198.85283108403416,320.39769166320207 M 198.22759222746504,320.8748869699039 M 197.50015063469738,321.1739985170132 M 196.72008024812442,321.27464234689916 M 195.94054157546356,321.1699597488773 M 195.21465888900835,320.8670846690067 M 194.5918998942627,320.38665754345493 M 194.11470458756068,319.76141868688575 M 193.81559304045146,319.033977094118 M 193.71494921056538,318.2539067075449 M 193.81963180858736,317.4743680348842 M 194.12250688845836,316.7484853484289 M 194.60293401400997,316.1257263536833 M 269.1347514699036,313.41280695305113 M 268.4070519720728,313.7112904550745 M 267.62689501836775,313.8112608892503 M 266.8474470159132,313.7059054356979 M 266.12182605797744,313.4024038944693 M 265.499482013699,312.9214393940382 M 265.0228266012228,312.29578887027867 M 264.724343099199,311.5680893724475 M 264.6243726650232,310.7879324187426 M 264.72972811857557,310.008484416288 M 265.0332296598044,309.2828634583525 M 265.5141941602352,308.6605194140739 M 266.13984468399514,308.1838640015974 M 266.86754418182596,307.8853804995738 M 267.647701135531,307.78541006539797 M 268.42714913798557,307.89076551895033 M 269.1527700959213,308.1942670601792 M 269.77511414019983,308.67523156061003 M 270.25176955267597,309.30088208436996 M 270.55025305469974,310.02858158220056 M 270.6502234888756,310.8087385359057 M 270.54486803532325,311.58818653836056 M 270.2413664940944,312.31380749629574 M 269.76040199366355,312.9361515405745 M 350.73429175420273,170.44957903278242 M 349.9544846277748,170.34691547695178 M 349.2278200683205,170.04592116112997 M 348.60381906469723,169.56710835052357 M 348.12500625409103,168.94310734690032 M 347.8240119382693,168.21644278744597 M 347.72134838243863,167.4366356610179 M 347.82401193826934,166.65682853459015 M 348.12500625409126,165.9301639751357 M 348.6038190646974,165.30616297151252 M 349.2278200683209,164.8273501609062 M 349.9544846277751,164.52635584508454 M 350.7342917542031,164.42369228925398 M 351.5140988806311,164.52635584508462 M 352.2407634400853,164.82735016090652 M 352.8647644437086,165.30616297151266 M 353.34357725431477,165.93016397513605 M 353.6445715701366,166.6568285345904 M 353.7472351259672,167.43663566101844 M 353.6445715701365,168.2164427874462 M 353.3435772543146,168.9431073469006 M 352.86476444370845,169.5671083505238 M 352.2407634400849,170.0459211611302 M 351.51409888063074,170.34691547695186 M 266.471288492785,21.192244797889032 M 267.1984716050939,20.892505442287074 M 267.9784548075107,20.79118829629843 M 268.7580835337741,20.895197955987612 M 269.48422737458645,21.19744633493093 M 270.10740082720605,21.67733570559227 M 270.58513565067966,22.30216240041625 M 270.8848750062815,23.029345512724916 M 270.9861921522702,23.809328715141703 M 270.8821824925811,24.588957441405 M 270.5799341136376,25.315101282217597 M 270.1000447429761,25.93827473483711 M 269.47521804815244,26.416009558310463 M 268.7480349358436,26.715748913912506 M 267.9680517334269,26.817066059901208 M 267.18842300716335,26.71305640021197 M 266.4622791663511,26.410808021268792 M 265.83910571373144,25.93091865060731 M 265.3613708902579,25.306091955783415 M 265.06163153465604,24.578908843474665 M 264.96031438866737,23.798925641057934 M 265.06432404835647,23.01929691479461 M 265.3665724272999,22.29315307398187 M 265.84646179796147,21.669979621362472 M 102.20883907854584,20.359112114411914 M 102.98828708100031,20.464467567964277 M 103.71390803893597,20.767969109192904 M 104.33625208321469,21.24893360962372 M 104.81290749569092,21.87458413338348 M 105.11139099771485,22.602283631214192 M 105.21136143189075,23.382440584919294 M 105.10600597833859,24.161888587373994 M 104.80250443710977,24.887509545309598 M 104.321539936679,25.509853589588175 M 103.69588941291937,25.986509002064423 M 102.96818991508863,26.28499250408828 M 102.18803296138339,26.384962938264238 M 101.40858495892888,26.279607484712102 M 100.68296400099325,25.97610594348336 M 100.06061995671458,25.495141443052603 M 99.5839645442383,24.86949091929276 M 99.2854810422144,24.141791421462045 M 99.18551060803847,23.36163446775697 M 99.29086606159066,22.582186465302385 M 99.59436760281945,21.85656550736678 M 100.07533210325022,21.234221463088062 M 100.70098262700982,20.7575660506119 M 101.42868212484058,20.459082548587986 M 49.99135386436498,99.36345958009933 M 50.47070513528645,99.98704706198798 M 50.77232659113379,100.71345155390338 M 50.87566322814388,101.49316979016177 M 50.773672825276364,102.27306526150733 M 50.47330585993954,102.99998938040613 M 49.99503184444127,103.62440346945402 M 49.37144436255264,104.10375474037558 M 48.645039870637234,104.40537619622293 M 47.86532163437886,104.508712833233 M 47.085426163033276,104.40672243036549 M 46.35850204413461,104.10635546502864 M 45.734087955086565,103.62808144953048 M 45.254736684165024,103.00449396764171 M 44.95311522831774,102.2780894757263 M 44.84977859130767,101.49837123946791 M 44.95176899417514,100.71847576812245 M 45.252135959511975,99.99155164922365 M 45.73040997501022,99.36713756017566 M 46.35399745689887,98.88778628925411 M 47.08040194881427,98.58616483340685 M 47.8601201850726,98.48282819639678 M 48.64001565641826,98.58481859926421 M 49.36693977531695,98.88518556460109 "
  />
  <path id="face0-interior"
 style="fill:none;stroke:#00FF00;stroke-width:1;stroke-miterlimit:4;stroke-dasharray:none;stroke-linejoin:round;stroke-linecap:round"
        d="M 118.36556754679894,324.36710445427354 M 251.36814493487043,324.36710445427354 M 255.02877958372392,324.36710445427354 M 258.6618669139175,323.85013350347083 M 262.2397265655872,323.06018069140976 M 265.73512245702653,321.96140287290734 M 269.12145251492404,320.5621624106207 M 272.372944722817,318.87310836935023 M 275.4648532616987,316.90709547022817 M 278.3736468406428,314.6790862585292 M 281.07718778413596,312.2060372296626 M 283.5549005131556,309.5067697800063 M 285.78792813775,306.60182696471344 M 287.759275969357,303.51331715266195 M 354.3599662573277,188.38715311930366 M 356.0546311486165,185.13858173505574 M 357.45971567649764,181.75467236838657 M 358.5645262993009,178.26117861283709 M 359.3606547410837,174.68468806531627 M 359.8420419836886,171.0524199784346 M 360.00502437952974,167.39201810555673 M 359.8483615341634,163.73134031514635 M 359.3732457464385,160.09824657556626 M 358.58329293438226,156.5203869238964 M 357.48451511588104,153.0249910324571 M 356.0852746535937,149.63866097455968 M 354.3962206123229,146.3871687666667 M 287.99438306316574,31.146197051025183 M 286.0283701640442,28.054288512143557 M 283.8003609523452,25.145494933199416 M 281.3273119234787,22.441953989706292 M 278.62804447382206,19.964241260686634 M 275.7231016585295,17.731213636092264 M 272.63459184647775,15.759865804485145 M 269.3860204622298,14.065200913196406 M 266.00211109556085,12.660116385315206 M 262.50861734001137,11.555305762512006 M 258.93212679249046,10.759177320729322 M 255.2998587056088,10.277790078124497 M 251.63945683273107,10.114807682283299 M 118.63692899560282,10.0 M 114.97625120519244,10.156662845366355 M 111.34315746561236,10.631778633091358 M 107.7652978139426,11.421731445147543 M 104.26990192250322,12.520509263648819 M 100.88357186460573,13.919749725936128 M 97.63207965671278,15.608803767206894 M 94.54017111783108,17.574816666328502 M 91.63137753888702,19.802825878027363 M 88.92783659539379,22.275874906893932 M 86.45012386637416,24.975142356550492 M 84.21709624177976,27.88008517184329 M 82.24574841017271,30.96859498389489 M 15.645058122201945,146.09475901725312 M 13.95039323091305,149.3433304015011 M 12.545308703031992,152.72723976817014 M 11.44049808022875,156.2207335237196 M 10.644369638446008,159.79722407124055 M 10.162982395841112,163.42949215812217 M 10.0,167.08989403099997 M 10.156662845366256,170.75057182141035 M 10.631778633091201,174.3836655609905 M 11.421731445147401,177.96152521266026 M 12.520509263648705,181.4569211040996 M 13.919749725935944,184.84325116199707 M 15.608803767206837,188.09474336989004 M 82.01064131636402,303.3357150855315 M 83.97665421548557,306.4276236244132 M 86.20466342718449,309.3364172033573 M 88.67771245605104,312.0399581468505 M 91.37697990570766,314.5176708758701 M 94.28192272100026,316.7506985004645 M 97.37043253305202,318.72204633207156 M 100.6190039173,320.4167112233604 M 104.00291328396908,321.82179575124155 M 107.49640703951852,322.9266063740447 M 111.07289758703944,323.7227348158275 M 114.7051656739211,324.20412205843235 M 17.59657435484104,169.32899204195178 M 16.975254011281365,168.8522361741581 M 16.498498143487723,168.23091583059843 M 16.198796875973912,167.50737296590594 M 16.09657435484104,166.73091583059843 M 16.19879687597387,165.9544586952909 M 16.498498143487765,165.23091583059843 M 16.97525401128145,164.60959548703875 M 17.596574354841067,164.13283961924515 M 18.320117219533486,163.83313835173118 M 19.09657435484101,163.73091583059846 M 19.873031490148634,163.83313835173118 M 20.59657435484111,164.13283961924512 M 21.2178946984007,164.60959548703875 M 21.694650566194326,165.2309158305985 M 21.99435183370825,165.9544586952909 M 22.096574354841067,166.7309158305984 M 21.994351833708265,167.50737296590597 M 21.69465056619437,168.23091583059843 M 21.2178946984007,168.85223617415807 M 20.596574354841053,169.32899204195178 M 19.87303149014869,169.6286933094656 M 19.096574354840996,169.73091583059846 M 18.32011721953353,169.62869330946558 M 50.773873632323344,232.75097301357874 M 50.47287937685023,233.47763742733832 M 49.99406666224479,234.10163830585108 M 49.37006578373206,234.5804510204565 M 48.643401369972395,234.88144527592965 M 47.86359439989387,234.98410881117653 M 47.0837874298153,234.88144527592968 M 46.35712301605564,234.58045102045648 M 45.73312213754292,234.1016383058511 M 45.254309422937496,233.47763742733832 M 44.95331516746435,232.75097301357874 M 44.85065163221742,231.97116604350018 M 44.95331516746434,231.19135907342158 M 45.25430942293745,230.464694659662 M 45.73312213754289,229.8406937811492 M 46.35712301605567,229.3618810665438 M 47.08378742981532,229.06088681107065 M 47.86359439989383,228.9582232758238 M 48.643401369972366,229.06088681107065 M 49.37006578373207,229.36188106654382 M 49.994066662244805,229.84069378114918 M 50.47287937685019,230.464694659662 M 50.77387363232337,231.19135907342155 M 50.87653716757025,231.97116604350018 M 104.4691448240294,311.882820091661 M 103.98925545336787,312.5059935442805 M 103.36442875854408,312.983728367754 M 102.63724564623527,313.28346772335584 M 101.85726244381844,313.38478486934446 M 101.07763371755506,313.2807752096552 M 100.3514898767426,312.97852683071187 M 99.72831642412307,312.4986374600503 M 99.25058160064961,311.87381076522655 M 98.95084224504777,311.1466276529177 M 98.84952509905916,310.36664445050087 M 98.95353475874839,309.5870157242375 M 99.25578313769178,308.86087188342503 M 99.73567250835328,308.23769843080555 M 100.3604992031771,307.759963607332 M 101.08768231548589,307.4602242517302 M 101.86766551790274,307.3589071057416 M 102.64729424416612,307.4629167654308 M 103.37343808497857,307.76516514437424 M 103.99661153759811,308.24505451503575 M 104.47434636107157,308.8698812098595 M 104.77408571667341,309.59706432216836 M 104.87540286266201,310.3770475245852 M 104.77139320297279,311.15667625084853 M 195.2281728705791,315.6485310469813 M 195.9556144633467,315.349419499872 M 196.73568484991972,315.2487756699858 M 197.51522352258053,315.3534582680079 M 198.24110620903576,315.6563333478789 M 198.86386520378142,316.13676047343057 M 199.34106051048343,316.76199932999964 M 199.64017205759268,317.48944092276736 M 199.74081588747873,318.2695113093403 M 199.63613328945675,319.0490499820009 M 199.33325820958578,319.7749326684563 M 198.85283108403416,320.39769166320207 M 198.22759222746504,320.8748869699039 M 197.50015063469738,321.1739985170132 M 196.72008024812442,321.27464234689916 M 195.94054157546356,321.1699597488773 M 195.21465888900835,320.8670846690067 M 194.5918998942627,320.38665754345493 M 194.11470458756068,319.76141868688575 M 193.81559304045146,319.033977094118 M 193.71494921056538,318.2539067075449 M 193.81963180858736,317.4743680348842 M 194.12250688845836,316.7484853484289 M 194.60293401400997,316.1257263536833 M 269.1347514699036,313.41280695305113 M 268.4070519720728,313.7112904550745 M 267.62689501836775,313.8112608892503 M 266.8474470159132,313.7059054356979 M 266.12182605797744,313.4024038944693 M 265.499482013699,312.9214393940382 M 265.0228266012228,312.29578887027867 M 264.724343099199,311.5680893724475 M 264.6243726650232,310.7879324187426 M 264.72972811857557,310.008484416288 M 265.0332296598044,309.2828634583525 M 265.5141941602352,308.6605194140739 M 266.13984468399514,308.1838640015974 M 266.86754418182596,307.8853804995738 M 267.647701135531,307.78541006539797 M 268.42714913798557,307.89076551895033 M 269.1527700959213,308.1942670601792 M 269.77511414019983,308.67523156061003 M 270.25176955267597,309.30088208436996 M 270.55025305469974,310.02858158220056 M 270.6502234888756,310.8087385359057 M 270.54486803532325,311.58818653836056 M 270.2413664940944,312.31380749629574 M 269.76040199366355,312.9361515405745 M 350.73429175420273,170.44957903278242 M 349.9544846277748,170.34691547695178 M 349.2278200683205,170.04592116112997 M 348.60381906469723,169.56710835052357 M 348.12500625409103,168.94310734690032 M 347.8240119382693,168.21644278744597 M 347.72134838243863,167.4366356610179 M 347.82401193826934,166.65682853459015 M 348.12500625409126,165.9301639751357 M 348.6038190646974,165.30616297151252 M 349.2278200683209,164.8273501609062 M 349.9544846277751,164.52635584508454 M 350.7342917542031,164.42369228925398 M 351.5140988806311,164.52635584508462 M 352.2407634400853,164.82735016090652 M 352.8647644437086,165.30616297151266 M 353.34357725431477,165.93016397513605 M 353.6445715701366,166.6568285345904 M 353.7472351259672,167.43663566101844 M 353.6445715701365,168.2164427874462 M 353.3435772543146,168.9431073469006 M 352.86476444370845,169.5671083505238 M 352.2407634400849,170.0459211611302 M 351.51409888063074,170.34691547695186 M 266.471288492785,21.192244797889032 M 267.1984716050939,20.892505442287074 M 267.9784548075107,20.79118829629843 M 268.7580835337741,20.895197955987612 M 269.48422737458645,21.19744633493093 M 270.10740082720605,21.67733570559227 M 270.58513565067966,22.30216240041625 M 270.8848750062815,23.029345512724916 M 270.9861921522702,23.809328715141703 M 270.8821824925811,24.588957441405 M 270.5799341136376,25.315101282217597 M 270.1000447429761,25.93827473483711 M 269.47521804815244,26.416009558310463 M 268.7480349358436,26.715748913912506 M 267.9680517334269,26.817066059901208 M 267.18842300716335,26.71305640021197 M 266.4622791663511,26.410808021268792 M 265.83910571373144,25.93091865060731 M 265.3613708902579,25.306091955783415 M 265.06163153465604,24.578908843474665 M 264.96031438866737,23.798925641057934 M 265.06432404835647,23.01929691479461 M 265.3665724272999,22.29315307398187 M 265.84646179796147,21.669979621362472 M 102.20883907854584,20.359112114411914 M 102.98828708100031,20.464467567964277 M 103.71390803893597,20.767969109192904 M 104.33625208321469,21.24893360962372 M 104.81290749569092,21.87458413338348 M 105.11139099771485,22.602283631214192 M 105.21136143189075,23.382440584919294 M 105.10600597833859,24.161888587373994 M 104.80250443710977,24.887509545309598 M 104.321539936679,25.509853589588175 M 103.69588941291937,25.986509002064423 M 102.96818991508863,26.28499250408828 M 102.18803296138339,26.384962938264238 M 101.40858495892888,26.279607484712102 M 100.68296400099325,25.97610594348336 M 100.06061995671458,25.495141443052603 M 99.5839645442383,24.86949091929276 M 99.2854810422144,24.141791421462045 M 99.18551060803847,23.36163446775697 M 99.29086606159066,22.582186465302385 M 99.59436760281945,21.85656550736678 M 100.07533210325022,21.234221463088062 M 100.70098262700982,20.7575660506119 M 101.42868212484058,20.459082548587986 M 49.99135386436498,99.36345958009933 M 50.47070513528645,99.98704706198798 M 50.77232659113379,100.71345155390338 M 50.87566322814388,101.49316979016177 M 50.773672825276364,102.27306526150733 M 50.47330585993954,102.99998938040613 M 49.99503184444127,103.62440346945402 M 49.37144436255264,104.10375474037558 M 48.645039870637234,104.40537619622293 M 47.86532163437886,104.508712833233 M 47.085426163033276,104.40672243036549 M 46.35850204413461,104.10635546502864 M 45.734087955086565,103.62808144953048 M 45.254736684165024,103.00449396764171 M 44.95311522831774,102.2780894757263 M 44.84977859130767,101.49837123946791 M 44.95176899417514,100.71847576812245 M 45.252135959511975,99.99155164922365 M 45.73040997501022,99.36713756017566 M 46.35399745689887,98.88778628925411 M 47.08040194881427,98.58616483340685 M 47.8601201850726,98.48282819639678 M 48.64001565641826,98.58481859926421 M 49.36693977531695,98.88518556460109 "
  />
</svg>
