<?xml version="1.0" standalone="no"?>
<!DOCTYPE svg PUBLIC "-//W3C//DTD SVG 1.1//EN" "http://www.w3.org/Graphics/SVG/1.1/DTD/svg11.dtd">
<svg width="250.00000000000006mm" height="250.0mm"
 viewBox="0 0 250.00000000000006 250.0"
 xmlns="http://www.w3.org/2000/svg" version="1.1"
 xmlns:xlink="http://www.w3.org/1999/xlink">
<desc>Output from Flights of Ideas SVG Sketchup Plugin</desc>

  <path id="face0-cut"
 style="fill:none;stroke:#0000FF;stroke-width:1;stroke-miterlimit:4;stroke-dasharray:none;stroke-linejoin:round;stroke-linecap:round"
        d="M 239.75377617243942,132.52135986146698 L 240.00000000000006,125.00000000000051 L 239.75377617243942,117.4786401385341 L 239.01615905798826,109.9894878946946 L 237.79030724637158,102.56461296814575 L 236.081470023243,95.23580981321064 L 233.89696489193733,88.03446149013695 L 231.24614623879825,80.99140527801521 L 228.14036527625944,74.13680062481532 L 224.59292143521077,67.50000000000051 L 220.6190054147931,61.10942320274623 L 216.2356341334925,54.99243566399761 L 211.4615778600828,49.17523126349255 L 206.31727983645345,43.68272016354743 L 200.82476873650845,38.538422139918026 L 195.0075643360034,33.764365866508314 L 188.89057679725488,29.380994585207674 L 182.50000000000057,25.407078564789856 L 175.86319937518573,21.859634723741067 L 169.0085947219859,18.75385376120221 L 161.96553850986413,16.103035108062983 L 154.7641901867904,13.918529976757213 L 147.4353870318552,12.20969275362853 L 140.01051210530636,10.983840942011796 L 132.52135986146683,10.246223827560584 L 125.00000000000028,10.0 L 117.47864013853385,10.246223827560499 L 109.98948789469432,10.98384094201171 L 102.56461296814544,12.209692753628389 L 95.2358098132103,13.918529976757043 L 88.03446149013654,16.103035108062755 L 80.99140527801477,18.753853761201924 L 74.1368006248149,21.859634723740783 L 67.5,25.407078564789515 L 61.10942320274572,29.380994585207276 L 54.99243566399707,33.764365866507944 L 49.175231263491995,38.53842213991763 L 43.68272016354692,43.68272016354709 L 38.53842213991749,49.17523126349218 L 33.76436586650781,54.992435663997384 L 29.38099458520709,61.109423202745916 L 25.407078564789394,67.50000000000037 L 21.859634723740704,74.13680062481515 L 18.753853761201853,80.99140527801504 L 16.10303510806272,88.03446149013689 L 13.918529976757014,95.23580981321078 L 12.209692753628374,102.56461296814564 L 10.98384094201171,109.9894878946946 L 10.246223827560598,117.47864013853433 L 10.0,125.00000000000074 L 10.246223827560684,132.52135986146698 L 10.983840942011938,140.01051210530693 L 12.209692753628467,147.43538703185453 L 13.9185299767571,154.76419018678973 L 16.10303510806277,161.96553850986317 L 18.753853761201945,169.008594721985 L 21.859634723740747,175.86319937518493 L 25.407078564789437,182.49999999999966 L 29.380994585207183,188.8905767972539 L 33.76436586650777,195.0075643360026 L 38.53842213991743,200.8247687365075 L 43.682720163546826,206.3172798364527 L 49.17523126349184,211.46157786008212 L 54.992435663996915,216.23563413349183 L 61.109423202745496,220.61900541479247 L 67.49999999999979,224.59292143521031 L 74.13680062481455,228.14036527625893 L 80.99140527801438,231.2461462387978 L 88.03446149013615,233.896964891937 L 95.2358098132098,236.08147002324273 L 102.5646129681449,237.79030724637136 L 109.98948789469377,239.01615905798803 L 117.47864013853324,239.7537761724393 L 124.9999999999997,240.0 L 132.5213598614661,239.7537761724393 L 140.0105121053056,239.01615905798815 L 147.43538703185442,237.79030724637158 L 154.76419018678953,236.08147002324284 L 161.96553850986325,233.89696489193722 L 169.00859472198496,231.24614623879802 L 175.86319937518482,228.14036527625927 L 182.49999999999966,224.59292143521054 L 188.89057679725397,220.61900541479292 L 195.00756433600253,216.23563413349223 L 200.82476873650762,211.46157786008263 L 206.31727983645266,206.31727983645322 L 211.46157786008212,200.82476873650825 L 216.23563413349177,195.0075643360032 L 220.61900541479247,188.8905767972546 L 224.5929214352102,182.5000000000004 L 228.14036527625893,175.86319937518556 L 231.2461462387978,169.00859472198573 L 233.896964891937,161.96553850986402 L 236.08147002324273,154.76419018679036 L 237.7903072463714,147.4353870318552 L 239.01615905798815,140.01051210530642 L 239.75377617243942,132.52135986146698 M 31.542516504574152,173.01335777729435 L 31.582656827245792,173.53391723036685 L 31.486698701026526,174.04712813019273 L 31.26118151363991,174.5180160020696 L 30.921473888721586,174.91449061570813 L 30.490726339516357,175.20953288139407 L 29.998293599658574,175.38303615630178 L 29.477734146585966,175.4231764789733 L 28.96452324676023,175.32721835275385 L 28.49363537488341,175.10170116536727 L 28.097160761244893,174.7619935404491 L 27.802118495558858,174.33124599124392 L 27.62861522065144,173.83881325138606 L 27.588474897979808,173.31825379831315 L 27.684433024199073,172.8050428984875 L 27.909950211585688,172.33415502661086 L 28.249657836504014,171.93768041297238 L 28.680405385709236,171.64263814728622 L 29.172838125567026,171.46913487237896 L 29.693397578639626,171.42899454970717 L 30.20660847846537,171.5249526759266 L 30.67749635034218,171.75046986331307 L 31.073970963980706,172.09017748823146 L 31.36901322966674,172.52092503743643 L 31.542516504574152,173.01335777729435 M 132.10490483354602,19.644038493503274 L 131.67415728434077,19.939080759189324 L 131.18172454448296,20.1125840340967 L 130.6611650914104,20.15272435676826 L 130.14795419158463,20.056766230548988 L 129.67706631970782,19.83124904316236 L 129.28059170606926,19.49154141824411 L 128.98554944038327,19.060793869038832 L 128.81204616547586,18.568361129181056 L 128.77190584280424,18.047801676108406 L 128.8678639690236,17.53459077628264 L 129.0933811564102,17.06370290440583 L 129.4330887813285,16.667228290767326 L 129.86383633053373,16.372186025081277 L 130.3562690703915,16.19868275017393 L 130.87682852346413,16.15854242750231 L 131.39003942328986,16.254500553721613 L 131.86092729516673,16.480017741108213 L 132.25740190880526,16.81972536602649 L 132.55244417449126,17.250472915231768 L 132.72594744939863,17.7429056550896 L 132.76608777207022,18.263465108162194 L 132.67012964585098,18.776676007987902 L 132.44461245846438,19.247563879864714 L 132.10490483354602,19.644038493503274 M 212.68848668798853,183.83100883057006 L 212.64834636531697,183.31044937749743 L 212.74430449153624,182.79723847767173 L 212.96982167892287,182.32635060579491 L 213.30952930384115,181.92987599215633 L 213.7402768530464,181.63483372647033 L 214.2327095929042,181.4613304515629 L 214.75326904597682,181.42119012889134 L 215.2664799458026,181.51714825511056 L 215.7373678176794,181.74266544249718 L 216.13384243131787,182.08237306741552 L 216.42888469700392,182.5131206166207 L 216.60238797191136,183.00555335647857 L 216.64252829458292,183.52611280955114 L 216.5465701683637,184.03932370937696 L 216.32105298097707,184.51021158125377 L 215.98134535605874,184.90668619489225 L 215.5505978068535,185.2017284605783 L 215.05816506699574,185.37523173548567 L 214.53760561392306,185.41537205815735 L 214.02439471409735,185.31941393193807 L 213.55350684222054,185.0938967445514 L 213.157032228582,184.7541891196331 L 212.86198996289596,184.32344157042792 L 212.68848668798853,183.83100883057006 "
  />
  <path id="face0-interior"
 style="fill:none;stroke:#FF0000;stroke-width:1;stroke-miterlimit:4;stroke-dasharray:none;stroke-linejoin:round;stroke-linecap:round"
        d="M 239.75377617243942,132.52135986146698 M 240.00000000000006,125.00000000000051 M 239.75377617243942,117.4786401385341 M 239.01615905798826,109.9894878946946 M 237.79030724637158,102.56461296814575 M 236.081470023243,95.23580981321064 M 233.89696489193733,88.03446149013695 M 231.24614623879825,80.99140527801521 M 228.14036527625944,74.13680062481532 M 224.59292143521077,67.50000000000051 M 220.6190054147931,61.10942320274623 M 216.2356341334925,54.99243566399761 M 211.4615778600828,49.17523126349255 M 206.31727983645345,43.68272016354743 M 200.82476873650845,38.538422139918026 M 195.0075643360034,33.764365866508314 M 188.89057679725488,29.380994585207674 M 182.50000000000057,25.407078564789856 M 175.86319937518573,21.859634723741067 M 169.0085947219859,18.75385376120221 M 161.96553850986413,16.103035108062983 M 154.7641901867904,13.918529976757213 M 147.4353870318552,12.20969275362853 M 140.01051210530636,10.983840942011796 M 132.52135986146683,10.246223827560584 M 125.00000000000028,10.0 M 117.47864013853385,10.246223827560499 M 109.98948789469432,10.98384094201171 M 102.56461296814544,12.209692753628389 M 95.2358098132103,13.918529976757043 M 88.03446149013654,16.103035108062755 M 80.99140527801477,18.753853761201924 M 74.1368006248149,21.859634723740783 M 67.5,25.407078564789515 M 61.10942320274572,29.380994585207276 M 54.99243566399707,33.764365866507944 M 49.175231263491995,38.53842213991763 M 43.68272016354692,43.68272016354709 M 38.53842213991749,49.17523126349218 M 33.76436586650781,54.992435663997384 M 29.38099458520709,61.109423202745916 M 25.407078564789394,67.50000000000037 M 21.859634723740704,74.13680062481515 M 18.753853761201853,80.99140527801504 M 16.10303510806272,88.03446149013689 M 13.918529976757014,95.23580981321078 M 12.209692753628374,102.56461296814564 M 10.98384094201171,109.9894878946946 M 10.246223827560598,117.47864013853433 M 10.0,125.00000000000074 M 10.246223827560684,132.52135986146698 M 10.983840942011938,140.01051210530693 M 12.209692753628467,147.43538703185453 M 13.9185299767571,154.76419018678973 M 16.10303510806277,161.96553850986317 M 18.753853761201945,169.008594721985 M 21.859634723740747,175.86319937518493 M 25.407078564789437,182.49999999999966 M 29.380994585207183,188.8905767972539 M 33.76436586650777,195.0075643360026 M 38.53842213991743,200.8247687365075 M 43.682720163546826,206.3172798364527 M 49.17523126349184,211.46157786008212 M 54.992435663996915,216.23563413349183 M 61.109423202745496,220.61900541479247 M 67.49999999999979,224.59292143521031 M 74.13680062481455,228.14036527625893 M 80.99140527801438,231.2461462387978 M 88.03446149013615,233.896964891937 M 95.2358098132098,236.08147002324273 M 102.5646129681449,237.79030724637136 M 109.98948789469377,239.01615905798803 M 117.47864013853324,239.7537761724393 M 124.9999999999997,240.0 M 132.5213598614661,239.7537761724393 M 140.0105121053056,239.01615905798815 M 147.43538703185442,237.79030724637158 M 154.76419018678953,236.08147002324284 M 161.96553850986325,233.89696489193722 M 169.00859472198496,231.24614623879802 M 175.86319937518482,228.14036527625927 M 182.49999999999966,224.59292143521054 M 188.89057679725397,220.61900541479292 M 195.00756433600253,216.23563413349223 M 200.82476873650762,211.46157786008263 M 206.31727983645266,206.31727983645322 M 211.46157786008212,200.82476873650825 M 216.23563413349177,195.0075643360032 M 220.61900541479247,188.8905767972546 M 224.5929214352102,182.5000000000004 M 228.14036527625893,175.86319937518556 M 231.2461462387978,169.00859472198573 M 233.896964891937,161.96553850986402 M 236.08147002324273,154.76419018679036 M 237.7903072463714,147.4353870318552 M 239.01615905798815,140.01051210530642 M 31.542516504574152,173.01335777729435 M 31.582656827245792,173.53391723036685 M 31.486698701026526,174.04712813019273 M 31.26118151363991,174.5180160020696 M 30.921473888721586,174.91449061570813 M 30.490726339516357,175.20953288139407 M 29.998293599658574,175.38303615630178 M 29.477734146585966,175.4231764789733 M 28.96452324676023,175.32721835275385 M 28.49363537488341,175.10170116536727 M 28.097160761244893,174.7619935404491 M 27.802118495558858,174.33124599124392 M 27.62861522065144,173.83881325138606 M 27.588474897979808,173.31825379831315 M 27.684433024199073,172.8050428984875 M 27.909950211585688,172.33415502661086 M 28.249657836504014,171.93768041297238 M 28.680405385709236,171.64263814728622 M 29.172838125567026,171.46913487237896 M 29.693397578639626,171.42899454970717 M 30.20660847846537,171.5249526759266 M 30.67749635034218,171.75046986331307 M 31.073970963980706,172.09017748823146 M 31.36901322966674,172.52092503743643 M 132.10490483354602,19.644038493503274 M 131.67415728434077,19.939080759189324 M 131.18172454448296,20.1125840340967 M 130.6611650914104,20.15272435676826 M 130.14795419158463,20.056766230548988 M 129.67706631970782,19.83124904316236 M 129.28059170606926,19.49154141824411 M 128.98554944038327,19.060793869038832 M 128.81204616547586,18.568361129181056 M 128.77190584280424,18.047801676108406 M 128.8678639690236,17.53459077628264 M 129.0933811564102,17.06370290440583 M 129.4330887813285,16.667228290767326 M 129.86383633053373,16.372186025081277 M 130.3562690703915,16.19868275017393 M 130.87682852346413,16.15854242750231 M 131.39003942328986,16.254500553721613 M 131.86092729516673,16.480017741108213 M 132.25740190880526,16.81972536602649 M 132.55244417449126,17.250472915231768 M 132.72594744939863,17.7429056550896 M 132.76608777207022,18.263465108162194 M 132.67012964585098,18.776676007987902 M 132.44461245846438,19.247563879864714 M 212.68848668798853,183.83100883057006 M 212.64834636531697,183.31044937749743 M 212.74430449153624,182.79723847767173 M 212.96982167892287,182.32635060579491 M 213.30952930384115,181.92987599215633 M 213.7402768530464,181.63483372647033 M 214.2327095929042,181.4613304515629 M 214.75326904597682,181.42119012889134 M 215.2664799458026,181.51714825511056 M 215.7373678176794,181.74266544249718 M 216.13384243131787,182.08237306741552 M 216.42888469700392,182.5131206166207 M 216.60238797191136,183.00555335647857 M 216.64252829458292,183.52611280955114 M 216.5465701683637,184.03932370937696 M 216.32105298097707,184.51021158125377 M 215.98134535605874,184.90668619489225 M 215.5505978068535,185.2017284605783 M 215.05816506699574,185.37523173548567 M 214.53760561392306,185.41537205815735 M 214.02439471409735,185.31941393193807 M 213.55350684222054,185.0938967445514 M 213.157032228582,184.7541891196331 M 212.86198996289596,184.32344157042792 "
  />
  <path id="face0-interior"
 style="fill:none;stroke:#00FF00;stroke-width:1;stroke-miterlimit:4;stroke-dasharray:none;stroke-linejoin:round;stroke-linecap:round"
        d="M 239.75377617243942,132.52135986146698 M 240.00000000000006,125.00000000000051 M 239.75377617243942,117.4786401385341 M 239.01615905798826,109.9894878946946 M 237.79030724637158,102.56461296814575 M 236.081470023243,95.23580981321064 M 233.89696489193733,88.03446149013695 M 231.24614623879825,80.99140527801521 M 228.14036527625944,74.13680062481532 M 224.59292143521077,67.50000000000051 M 220.6190054147931,61.10942320274623 M 216.2356341334925,54.99243566399761 M 211.4615778600828,49.17523126349255 M 206.31727983645345,43.68272016354743 M 200.82476873650845,38.538422139918026 M 195.0075643360034,33.764365866508314 M 188.89057679725488,29.380994585207674 M 182.50000000000057,25.407078564789856 M 175.86319937518573,21.859634723741067 M 169.0085947219859,18.75385376120221 M 161.96553850986413,16.103035108062983 M 154.7641901867904,13.918529976757213 M 147.4353870318552,12.20969275362853 M 140.01051210530636,10.983840942011796 M 132.52135986146683,10.246223827560584 M 125.00000000000028,10.0 M 117.47864013853385,10.246223827560499 M 109.98948789469432,10.98384094201171 M 102.56461296814544,12.209692753628389 M 95.2358098132103,13.918529976757043 M 88.03446149013654,16.103035108062755 M 80.99140527801477,18.753853761201924 M 74.1368006248149,21.859634723740783 M 67.5,25.407078564789515 M 61.10942320274572,29.380994585207276 M 54.99243566399707,33.764365866507944 M 49.175231263491995,38.53842213991763 M 43.68272016354692,43.68272016354709 M 38.53842213991749,49.17523126349218 M 33.76436586650781,54.992435663997384 M 29.38099458520709,61.109423202745916 M 25.407078564789394,67.50000000000037 M 21.859634723740704,74.13680062481515 M 18.753853761201853,80.99140527801504 M 16.10303510806272,88.03446149013689 M 13.918529976757014,95.23580981321078 M 12.209692753628374,102.56461296814564 M 10.98384094201171,109.9894878946946 M 10.246223827560598,117.47864013853433 M 10.0,125.00000000000074 M 10.246223827560684,132.52135986146698 M 10.983840942011938,140.01051210530693 M 12.209692753628467,147.43538703185453 M 13.9185299767571,154.76419018678973 M 16.10303510806277,161.96553850986317 M 18.753853761201945,169.008594721985 M 21.859634723740747,175.86319937518493 M 25.407078564789437,182.49999999999966 M 29.380994585207183,188.8905767972539 M 33.76436586650777,195.0075643360026 M 38.53842213991743,200.8247687365075 M 43.682720163546826,206.3172798364527 M 49.17523126349184,211.46157786008212 M 54.992435663996915,216.23563413349183 M 61.109423202745496,220.61900541479247 M 67.49999999999979,224.59292143521031 M 74.13680062481455,228.14036527625893 M 80.99140527801438,231.2461462387978 M 88.03446149013615,233.896964891937 M 95.2358098132098,236.08147002324273 M 102.5646129681449,237.79030724637136 M 109.98948789469377,239.01615905798803 M 117.47864013853324,239.7537761724393 M 124.9999999999997,240.0 M 132.5213598614661,239.7537761724393 M 140.0105121053056,239.01615905798815 M 147.43538703185442,237.79030724637158 M 154.76419018678953,236.08147002324284 M 161.96553850986325,233.89696489193722 M 169.00859472198496,231.24614623879802 M 175.86319937518482,228.14036527625927 M 182.49999999999966,224.59292143521054 M 188.89057679725397,220.61900541479292 M 195.00756433600253,216.23563413349223 M 200.82476873650762,211.46157786008263 M 206.31727983645266,206.31727983645322 M 211.46157786008212,200.82476873650825 M 216.23563413349177,195.0075643360032 M 220.61900541479247,188.8905767972546 M 224.5929214352102,182.5000000000004 M 228.14036527625893,175.86319937518556 M 231.2461462387978,169.00859472198573 M 233.896964891937,161.96553850986402 M 236.08147002324273,154.76419018679036 M 237.7903072463714,147.4353870318552 M 239.01615905798815,140.01051210530642 M 31.542516504574152,173.01335777729435 M 31.582656827245792,173.53391723036685 M 31.486698701026526,174.04712813019273 M 31.26118151363991,174.5180160020696 M 30.921473888721586,174.91449061570813 M 30.490726339516357,175.20953288139407 M 29.998293599658574,175.38303615630178 M 29.477734146585966,175.4231764789733 M 28.96452324676023,175.32721835275385 M 28.49363537488341,175.10170116536727 M 28.097160761244893,174.7619935404491 M 27.802118495558858,174.33124599124392 M 27.62861522065144,173.83881325138606 M 27.588474897979808,173.31825379831315 M 27.684433024199073,172.8050428984875 M 27.909950211585688,172.33415502661086 M 28.249657836504014,171.93768041297238 M 28.680405385709236,171.64263814728622 M 29.172838125567026,171.46913487237896 M 29.693397578639626,171.42899454970717 M 30.20660847846537,171.5249526759266 M 30.67749635034218,171.75046986331307 M 31.073970963980706,172.09017748823146 M 31.36901322966674,172.52092503743643 M 132.10490483354602,19.644038493503274 M 131.67415728434077,19.939080759189324 M 131.18172454448296,20.1125840340967 M 130.6611650914104,20.15272435676826 M 130.14795419158463,20.056766230548988 M 129.67706631970782,19.83124904316236 M 129.28059170606926,19.49154141824411 M 128.98554944038327,19.060793869038832 M 128.81204616547586,18.568361129181056 M 128.77190584280424,18.047801676108406 M 128.8678639690236,17.53459077628264 M 129.0933811564102,17.06370290440583 M 129.4330887813285,16.667228290767326 M 129.86383633053373,16.372186025081277 M 130.3562690703915,16.19868275017393 M 130.87682852346413,16.15854242750231 M 131.39003942328986,16.254500553721613 M 131.86092729516673,16.480017741108213 M 132.25740190880526,16.81972536602649 M 132.55244417449126,17.250472915231768 M 132.72594744939863,17.7429056550896 M 132.76608777207022,18.263465108162194 M 132.67012964585098,18.776676007987902 M 132.44461245846438,19.247563879864714 M 212.68848668798853,183.83100883057006 M 212.64834636531697,183.31044937749743 M 212.74430449153624,182.79723847767173 M 212.96982167892287,182.32635060579491 M 213.30952930384115,181.92987599215633 M 213.7402768530464,181.63483372647033 M 214.2327095929042,181.4613304515629 M 214.75326904597682,181.42119012889134 M 215.2664799458026,181.51714825511056 M 215.7373678176794,181.74266544249718 M 216.13384243131787,182.08237306741552 M 216.42888469700392,182.5131206166207 M 216.60238797191136,183.00555335647857 M 216.64252829458292,183.52611280955114 M 216.5465701683637,184.03932370937696 M 216.32105298097707,184.51021158125377 M 215.98134535605874,184.90668619489225 M 215.5505978068535,185.2017284605783 M 215.05816506699574,185.37523173548567 M 214.53760561392306,185.41537205815735 M 214.02439471409735,185.31941393193807 M 213.55350684222054,185.0938967445514 M 213.157032228582,184.7541891196331 M 212.86198996289596,184.32344157042792 "
  />
</svg>
