<?xml version="1.0" standalone="no"?>
<!DOCTYPE svg PUBLIC "-//W3C//DTD SVG 1.1//EN" "http://www.w3.org/Graphics/SVG/1.1/DTD/svg11.dtd">
<svg width="80.0mm" height="153.00000000000006mm"
 viewBox="0 0 80.0 153.00000000000006"
 xmlns="http://www.w3.org/2000/svg" version="1.1"
 xmlns:xlink="http://www.w3.org/1999/xlink">
<desc>Output from Flights of Ideas SVG Sketchup Plugin</desc>

  <path id="face0-cut"
 style="fill:none;stroke:#0000FF;stroke-width:1;stroke-miterlimit:4;stroke-dasharray:none;stroke-linejoin:round;stroke-linecap:round"
        d="M 10.0,10.0 L 10.0,143.00000000000006 L 70.0,143.00000000000006 L 70.0,10.0 L 10.0,10.0 M 63.299038105676686,137.25000000000006 L 63.44888873943364,137.61177143234625 L 63.5,138.00000000000006 L 63.44888873943364,138.38822856765387 L 63.299038105676686,138.75000000000006 L 63.06066017177989,139.0606601717799 L 62.75,139.29903810567674 L 62.38822856765387,139.44888873943364 L 62.0,139.50000000000006 L 61.611771432346245,139.44888873943364 L 61.25,139.29903810567674 L 60.93933982822023,139.06066017177983 L 60.700961894323314,138.75000000000006 L 60.55111126056636,138.38822856765387 L 60.5,138.00000000000006 L 60.55111126056636,137.6117714323462 L 60.700961894323314,137.25000000000006 L 60.93933982822023,136.93933982822023 L 61.25,136.70096189432337 L 61.611771432346245,136.55111126056647 L 62.0,136.5 L 62.38822856765387,136.55111126056647 L 62.75,136.70096189432337 L 63.06066017177977,136.93933982822023 L 63.299038105676686,137.25000000000006 M 17.61177143234619,136.55111126056647 L 18.0,136.50000000000006 L 18.38822856765381,136.55111126056647 L 18.75,136.70096189432337 L 19.06066017177983,136.93933982822023 L 19.299038105676686,137.25000000000006 L 19.448888739433585,137.61177143234625 L 19.5,138.00000000000006 L 19.448888739433585,138.38822856765387 L 19.299038105676686,138.75000000000006 L 19.060660171779887,139.0606601717799 L 18.75,139.29903810567674 L 18.38822856765381,139.44888873943364 L 18.0,139.50000000000006 L 17.61177143234619,139.44888873943364 L 17.25,139.29903810567674 L 16.939339828220227,139.0606601717799 L 16.700961894323314,138.75000000000006 L 16.551111260566415,138.3882285676538 L 16.5,138.00000000000006 L 16.551111260566415,137.61177143234625 L 16.700961894323314,137.25000000000006 L 16.939339828220227,136.93933982822023 L 17.25,136.70096189432337 L 17.61177143234619,136.55111126056647 M 63.299038105676686,15.750000000000046 L 63.06066017177989,16.060660171779816 L 62.75,16.29903810567674 L 62.38822856765387,16.448888739433638 L 62.0,16.500000000000103 L 61.611771432346245,16.448888739433627 L 61.25,16.29903810567675 L 60.93933982822023,16.060660171779833 L 60.700961894323314,15.7500000000001 L 60.55111126056636,15.388228567653861 L 60.5,15.000000000000092 L 60.55111126056636,14.611771432346213 L 60.700961894323314,14.250000000000043 L 60.93933982822023,13.939339828220213 L 61.25,13.700961894323335 L 61.611771432346245,13.551111260566543 L 62.0,13.500000000000021 L 62.38822856765387,13.551111260566447 L 62.75,13.700961894323306 L 63.06066017177989,13.93933982822018 L 63.299038105676686,14.250000000000043 L 63.44888873943364,14.611771432346277 L 63.5,15.00000000000001 L 63.44888873943364,15.388228567653837 L 63.299038105676686,15.750000000000046 M 18.38822856765381,13.551111260566433 L 18.75,13.700961894323363 L 19.06066017177983,13.939339828220234 L 19.299038105676686,14.250000000000028 L 19.448888739433585,14.611771432346234 L 19.5,15.000000000000036 L 19.448888739433585,15.388228567653837 L 19.299038105676686,15.750000000000046 L 19.06066017177983,16.060660171779837 L 18.75,16.29903810567671 L 18.38822856765381,16.448888739433638 L 18.0,16.500000000000057 L 17.61177143234619,16.448888739433638 L 17.25,16.29903810567671 L 16.939339828220227,16.060660171779837 L 16.700961894323314,15.750000000000046 L 16.551111260566415,15.388228567653837 L 16.5,15.000000000000036 L 16.551111260566415,14.611771432346234 L 16.700961894323314,14.250000000000028 L 16.939339828220227,13.939339828220234 L 17.25,13.700961894323363 L 17.61177143234619,13.551111260566433 L 18.0,13.500000000000018 L 18.38822856765381,13.551111260566433 M 18.0,29.000000000000014 L 62.0,24.0 L 62.0,34.000000000000036 L 18.0,39.000000000000085 L 18.0,29.000000000000014 M 18.0,44.00000000000012 L 62.0,39.000000000000085 L 62.0,49.00000000000008 L 18.0,54.000000000000085 L 18.0,44.00000000000012 M 18.0,59.00000000000013 L 62.0,54.000000000000114 L 62.0,64.00000000000009 L 18.0,69.00000000000011 L 18.0,59.00000000000013 M 18.0,74.00000000000017 L 62.0,69.00000000000013 L 62.0,79.0000000000001 L 18.0,84.00000000000014 L 18.0,74.00000000000017 M 18.0,89.00000000000018 L 62.0,84.00000000000014 L 62.0,94.00000000000017 L 18.0,99.00000000000017 L 18.0,89.00000000000018 M 18.0,104.00000000000016 L 62.0,99.00000000000014 L 62.0,109.00000000000014 L 18.0,114.00000000000013 L 18.0,104.00000000000016 M 18.0,119.00000000000013 L 62.0,114.00000000000013 L 62.0,124.00000000000013 L 18.0,129.0000000000001 L 18.0,119.00000000000013 "
  />
  <path id="face0-interior"
 style="fill:none;stroke:#FF0000;stroke-width:1;stroke-miterlimit:4;stroke-dasharray:none;stroke-linejoin:round;stroke-linecap:round"
        d="M 10.0,10.0 M 10.0,143.00000000000006 M 70.0,143.00000000000006 M 70.0,10.0 M 63.299038105676686,137.25000000000006 M 63.44888873943364,137.61177143234625 M 63.5,138.00000000000006 M 63.44888873943364,138.38822856765387 M 63.299038105676686,138.75000000000006 M 63.06066017177989,139.0606601717799 M 62.75,139.29903810567674 M 62.38822856765387,139.44888873943364 M 62.0,139.50000000000006 M 61.611771432346245,139.44888873943364 M 61.25,139.29903810567674 M 60.93933982822023,139.06066017177983 M 60.700961894323314,138.75000000000006 M 60.55111126056636,138.38822856765387 M 60.5,138.00000000000006 M 60.55111126056636,137.6117714323462 M 60.700961894323314,137.25000000000006 M 60.93933982822023,136.93933982822023 M 61.25,136.70096189432337 M 61.611771432346245,136.55111126056647 M 62.0,136.5 M 62.38822856765387,136.55111126056647 M 62.75,136.70096189432337 M 63.06066017177977,136.93933982822023 M 17.61177143234619,136.55111126056647 M 18.0,136.50000000000006 M 18.38822856765381,136.55111126056647 M 18.75,136.70096189432337 M 19.06066017177983,136.93933982822023 M 19.299038105676686,137.25000000000006 M 19.448888739433585,137.61177143234625 M 19.5,138.00000000000006 M 19.448888739433585,138.38822856765387 M 19.299038105676686,138.75000000000006 M 19.060660171779887,139.0606601717799 M 18.75,139.29903810567674 M 18.38822856765381,139.44888873943364 M 18.0,139.50000000000006 M 17.61177143234619,139.44888873943364 M 17.25,139.29903810567674 M 16.939339828220227,139.0606601717799 M 16.700961894323314,138.75000000000006 M 16.551111260566415,138.3882285676538 M 16.5,138.00000000000006 M 16.551111260566415,137.61177143234625 M 16.700961894323314,137.25000000000006 M 16.939339828220227,136.93933982822023 M 17.25,136.70096189432337 M 63.299038105676686,15.750000000000046 M 63.06066017177989,16.060660171779816 M 62.75,16.29903810567674 M 62.38822856765387,16.448888739433638 M 62.0,16.500000000000103 M 61.611771432346245,16.448888739433627 M 61.25,16.29903810567675 M 60.93933982822023,16.060660171779833 M 60.700961894323314,15.7500000000001 M 60.55111126056636,15.388228567653861 M 60.5,15.000000000000092 M 60.55111126056636,14.611771432346213 M 60.700961894323314,14.250000000000043 M 60.93933982822023,13.939339828220213 M 61.25,13.700961894323335 M 61.611771432346245,13.551111260566543 M 62.0,13.500000000000021 M 62.38822856765387,13.551111260566447 M 62.75,13.700961894323306 M 63.06066017177989,13.93933982822018 M 63.299038105676686,14.250000000000043 M 63.44888873943364,14.611771432346277 M 63.5,15.00000000000001 M 63.44888873943364,15.388228567653837 M 18.38822856765381,13.551111260566433 M 18.75,13.700961894323363 M 19.06066017177983,13.939339828220234 M 19.299038105676686,14.250000000000028 M 19.448888739433585,14.611771432346234 M 19.5,15.000000000000036 M 19.448888739433585,15.388228567653837 M 19.299038105676686,15.750000000000046 M 19.06066017177983,16.060660171779837 M 18.75,16.29903810567671 M 18.38822856765381,16.448888739433638 M 18.0,16.500000000000057 M 17.61177143234619,16.448888739433638 M 17.25,16.29903810567671 M 16.939339828220227,16.060660171779837 M 16.700961894323314,15.750000000000046 M 16.551111260566415,15.388228567653837 M 16.5,15.000000000000036 M 16.551111260566415,14.611771432346234 M 16.700961894323314,14.250000000000028 M 16.939339828220227,13.939339828220234 M 17.25,13.700961894323363 M 17.61177143234619,13.551111260566433 M 18.0,13.500000000000018 M 18.0,29.000000000000014 M 62.0,24.0 M 62.0,34.000000000000036 M 18.0,39.000000000000085 M 18.0,44.00000000000012 M 62.0,39.000000000000085 M 62.0,49.00000000000008 M 18.0,54.000000000000085 M 18.0,59.00000000000013 M 62.0,54.000000000000114 M 62.0,64.00000000000009 M 18.0,69.00000000000011 M 18.0,74.00000000000017 M 62.0,69.00000000000013 M 62.0,79.0000000000001 M 18.0,84.00000000000014 M 18.0,89.00000000000018 M 62.0,84.00000000000014 M 62.0,94.00000000000017 M 18.0,99.00000000000017 M 18.0,104.00000000000016 M 62.0,99.00000000000014 M 62.0,109.00000000000014 M 18.0,114.00000000000013 M 18.0,119.00000000000013 M 62.0,114.00000000000013 M 62.0,124.00000000000013 M 18.0,129.0000000000001 "
  />
  <path id="face0-interior"
 style="fill:none;stroke:#00FF00;stroke-width:1;stroke-miterlimit:4;stroke-dasharray:none;stroke-linejoin:round;stroke-linecap:round"
        d="M 10.0,10.0 M 10.0,143.00000000000006 M 70.0,143.00000000000006 M 70.0,10.0 M 63.299038105676686,137.25000000000006 M 63.44888873943364,137.61177143234625 M 63.5,138.00000000000006 M 63.44888873943364,138.38822856765387 M 63.299038105676686,138.75000000000006 M 63.06066017177989,139.0606601717799 M 62.75,139.29903810567674 M 62.38822856765387,139.44888873943364 M 62.0,139.50000000000006 M 61.611771432346245,139.44888873943364 M 61.25,139.29903810567674 M 60.93933982822023,139.06066017177983 M 60.700961894323314,138.75000000000006 M 60.55111126056636,138.38822856765387 M 60.5,138.00000000000006 M 60.55111126056636,137.6117714323462 M 60.700961894323314,137.25000000000006 M 60.93933982822023,136.93933982822023 M 61.25,136.70096189432337 M 61.611771432346245,136.55111126056647 M 62.0,136.5 M 62.38822856765387,136.55111126056647 M 62.75,136.70096189432337 M 63.06066017177977,136.93933982822023 M 17.61177143234619,136.55111126056647 M 18.0,136.50000000000006 M 18.38822856765381,136.55111126056647 M 18.75,136.70096189432337 M 19.06066017177983,136.93933982822023 M 19.299038105676686,137.25000000000006 M 19.448888739433585,137.61177143234625 M 19.5,138.00000000000006 M 19.448888739433585,138.38822856765387 M 19.299038105676686,138.75000000000006 M 19.060660171779887,139.0606601717799 M 18.75,139.29903810567674 M 18.38822856765381,139.44888873943364 M 18.0,139.50000000000006 M 17.61177143234619,139.44888873943364 M 17.25,139.29903810567674 M 16.939339828220227,139.0606601717799 M 16.700961894323314,138.75000000000006 M 16.551111260566415,138.3882285676538 M 16.5,138.00000000000006 M 16.551111260566415,137.61177143234625 M 16.700961894323314,137.25000000000006 M 16.939339828220227,136.93933982822023 M 17.25,136.70096189432337 M 63.299038105676686,15.750000000000046 M 63.06066017177989,16.060660171779816 M 62.75,16.29903810567674 M 62.38822856765387,16.448888739433638 M 62.0,16.500000000000103 M 61.611771432346245,16.448888739433627 M 61.25,16.29903810567675 M 60.93933982822023,16.060660171779833 M 60.700961894323314,15.7500000000001 M 60.55111126056636,15.388228567653861 M 60.5,15.000000000000092 M 60.55111126056636,14.611771432346213 M 60.700961894323314,14.250000000000043 M 60.93933982822023,13.939339828220213 M 61.25,13.700961894323335 M 61.611771432346245,13.551111260566543 M 62.0,13.500000000000021 M 62.38822856765387,13.551111260566447 M 62.75,13.700961894323306 M 63.06066017177989,13.93933982822018 M 63.299038105676686,14.250000000000043 M 63.44888873943364,14.611771432346277 M 63.5,15.00000000000001 M 63.44888873943364,15.388228567653837 M 18.38822856765381,13.551111260566433 M 18.75,13.700961894323363 M 19.06066017177983,13.939339828220234 M 19.299038105676686,14.250000000000028 M 19.448888739433585,14.611771432346234 M 19.5,15.000000000000036 M 19.448888739433585,15.388228567653837 M 19.299038105676686,15.750000000000046 M 19.06066017177983,16.060660171779837 M 18.75,16.29903810567671 M 18.38822856765381,16.448888739433638 M 18.0,16.500000000000057 M 17.61177143234619,16.448888739433638 M 17.25,16.29903810567671 M 16.939339828220227,16.060660171779837 M 16.700961894323314,15.750000000000046 M 16.551111260566415,15.388228567653837 M 16.5,15.000000000000036 M 16.551111260566415,14.611771432346234 M 16.700961894323314,14.250000000000028 M 16.939339828220227,13.939339828220234 M 17.25,13.700961894323363 M 17.61177143234619,13.551111260566433 M 18.0,13.500000000000018 M 18.0,29.000000000000014 M 62.0,24.0 M 62.0,34.000000000000036 M 18.0,39.000000000000085 M 18.0,44.00000000000012 M 62.0,39.000000000000085 M 62.0,49.00000000000008 M 18.0,54.000000000000085 M 18.0,59.00000000000013 M 62.0,54.000000000000114 M 62.0,64.00000000000009 M 18.0,69.00000000000011 M 18.0,74.00000000000017 M 62.0,69.00000000000013 M 62.0,79.0000000000001 M 18.0,84.00000000000014 M 18.0,89.00000000000018 M 62.0,84.00000000000014 M 62.0,94.00000000000017 M 18.0,99.00000000000017 M 18.0,104.00000000000016 M 62.0,99.00000000000014 M 62.0,109.00000000000014 M 18.0,114.00000000000013 M 18.0,119.00000000000013 M 62.0,114.00000000000013 M 62.0,124.00000000000013 M 18.0,129.0000000000001 "
  />
</svg>
