<?xml version="1.0" standalone="no"?>
<!DOCTYPE svg PUBLIC "-//W3C//DTD SVG 1.1//EN" "http://www.w3.org/Graphics/SVG/1.1/DTD/svg11.dtd">
<svg width="80.00185712555714mm" height="86.50182964361656mm"
 viewBox="0 0 80.00185712555714 86.50182964361656"
 xmlns="http://www.w3.org/2000/svg" version="1.1"
 xmlns:xlink="http://www.w3.org/1999/xlink">
<desc>Output from Flights of Ideas SVG Sketchup Plugin</desc>

  <path id="face0-cut"
 style="fill:none;stroke:#0000FF;stroke-width:1;stroke-miterlimit:4;stroke-dasharray:none;stroke-linejoin:round;stroke-linecap:round"
        d="M 10.0,76.50182964361656 L 70.00185712555714,76.50182964361656 L 70.00185712555714,10.0 L 10.0,10.00000000000001 L 10.0,76.50182964361656 M 61.25185771369621,70.20280932137948 L 61.61362886234656,70.05295880513317 L 62.00185712555714,70.0018475846475 L 62.390085388767716,70.05295880513322 L 62.75185653741801,70.20280932137939 L 63.06251646558263,70.44118706834377 L 63.30089421254695,70.75184699650839 L 63.45074472879321,71.11361814515868 L 63.501855949278934,71.50184640836939 L 63.45074472879321,71.89007467157985 L 63.30089421254695,72.2518458202303 L 63.06251646558263,72.5625057483949 L 62.75185653741801,72.8008834953591 L 62.390085388767716,72.95073401160548 L 62.00185712555714,73.001845232091 L 61.61362886234656,72.9507340116054 L 61.25185771369621,72.8008834953592 L 60.941197785531585,72.5625057483949 L 60.70282003856727,72.25184582023036 L 60.55296952232101,71.89007467157987 L 60.501858301835284,71.50184640836922 L 60.55296952232101,71.11361814515872 L 60.70282003856727,70.75184699650836 L 60.941197785531585,70.44118706834381 L 61.25185771369621,70.20280932137948 M 17.250002514712946,70.20281265830326 L 17.61177273405741,70.05296252698808 L 18.0,70.00185143779522 L 18.38822726594259,70.05296252698808 L 18.74999748528711,70.20281265830326 L 19.06065661543869,70.44118979293066 L 19.299033750066087,70.7518489230823 L 19.448883881381278,71.11361914242678 L 19.499994970574164,71.50184640836936 L 19.448883881381278,71.89007367431194 L 19.299033750066087,72.25184389365641 L 19.06065661543869,72.56250302380806 L 18.74999748528711,72.80088015843546 L 18.38822726594259,72.95073028975064 L 18.0,73.0018413789435 L 17.61177273405741,72.95073028975064 L 17.250002514712946,72.80088015843546 L 16.93934338456131,72.56250302380806 L 16.700966249933913,72.25184389365641 L 16.55111611861878,71.89007367431194 L 16.500005029425836,71.50184640836936 L 16.55111611861878,71.11361914242677 L 16.700966249933913,70.7518489230823 L 16.93934338456131,70.44118979293066 L 17.250002514712946,70.20281265830326 M 62.00185712555714,16.498119644520138 L 61.61363354314989,16.44700904027391 L 61.25186675631397,16.29716033075033 L 60.94121057372422,16.058785457866712 L 60.70283570084064,15.748129275276955 L 60.55298699131703,15.386362488441018 L 60.50187638707075,14.998138906033775 L 60.55298699131703,14.609915323626588 L 60.70283570084064,14.248148536790628 L 60.94121057372422,13.937492354200902 L 61.25186675631397,13.699117481317277 L 61.61363354314989,13.549268771793658 L 62.00185712555714,13.498158167547436 L 62.39008070796433,13.54926877179367 L 62.7518474948003,13.699117481317277 L 63.06250367739,13.937492354200925 L 63.30087855027364,14.248148536790628 L 63.45072725979725,14.609915323626598 L 63.501837864043466,14.998138906033796 L 63.45072725979725,15.38636248844103 L 63.30087855027364,15.748129275276955 L 63.06250367739,16.058785457866712 L 62.7518474948003,16.29716033075033 L 62.39008070796433,16.4470090402739 L 62.00185712555714,16.498119644520138 M 19.06066017177983,13.939339828220042 L 19.299038105676686,14.249999999999835 L 19.448888739433585,14.611771432346078 L 19.5,14.999999999999844 L 19.448888739433585,15.388228567653645 L 19.299038105676686,15.749999999999831 L 19.06066017177983,16.06066017177968 L 18.75,16.299038105676495 L 18.38822856765381,16.448888739433446 L 18.0,16.49999999999985 L 17.611771432346245,16.448888739433446 L 17.25,16.299038105676495 L 16.93933982822017,16.06066017177968 L 16.70096189432337,15.749999999999844 L 16.551111260566415,15.388228567653634 L 16.5,14.999999999999844 L 16.551111260566415,14.611771432346078 L 16.70096189432337,14.249999999999845 L 16.93933982822017,13.939339828220042 L 17.25,13.700961894323182 L 17.611771432346245,13.551111260566243 L 18.0,13.499999999999881 L 18.38822856765381,13.55111126056623 L 18.75,13.700961894323182 L 19.06066017177983,13.939339828220042 "
  />
  <path id="face0-interior"
 style="fill:none;stroke:#FF0000;stroke-width:1;stroke-miterlimit:4;stroke-dasharray:none;stroke-linejoin:round;stroke-linecap:round"
        d="M 10.0,76.50182964361656 M 70.00185712555714,76.50182964361656 M 70.00185712555714,10.0 M 10.0,10.00000000000001 M 61.25185771369621,70.20280932137948 M 61.61362886234656,70.05295880513317 M 62.00185712555714,70.0018475846475 M 62.390085388767716,70.05295880513322 M 62.75185653741801,70.20280932137939 M 63.06251646558263,70.44118706834377 M 63.30089421254695,70.75184699650839 M 63.45074472879321,71.11361814515868 M 63.501855949278934,71.50184640836939 M 63.45074472879321,71.89007467157985 M 63.30089421254695,72.2518458202303 M 63.06251646558263,72.5625057483949 M 62.75185653741801,72.8008834953591 M 62.390085388767716,72.95073401160548 M 62.00185712555714,73.001845232091 M 61.61362886234656,72.9507340116054 M 61.25185771369621,72.8008834953592 M 60.941197785531585,72.5625057483949 M 60.70282003856727,72.25184582023036 M 60.55296952232101,71.89007467157987 M 60.501858301835284,71.50184640836922 M 60.55296952232101,71.11361814515872 M 60.70282003856727,70.75184699650836 M 60.941197785531585,70.44118706834381 M 17.250002514712946,70.20281265830326 M 17.61177273405741,70.05296252698808 M 18.0,70.00185143779522 M 18.38822726594259,70.05296252698808 M 18.74999748528711,70.20281265830326 M 19.06065661543869,70.44118979293066 M 19.299033750066087,70.7518489230823 M 19.448883881381278,71.11361914242678 M 19.499994970574164,71.50184640836936 M 19.448883881381278,71.89007367431194 M 19.299033750066087,72.25184389365641 M 19.06065661543869,72.56250302380806 M 18.74999748528711,72.80088015843546 M 18.38822726594259,72.95073028975064 M 18.0,73.0018413789435 M 17.61177273405741,72.95073028975064 M 17.250002514712946,72.80088015843546 M 16.93934338456131,72.56250302380806 M 16.700966249933913,72.25184389365641 M 16.55111611861878,71.89007367431194 M 16.500005029425836,71.50184640836936 M 16.55111611861878,71.11361914242677 M 16.700966249933913,70.7518489230823 M 16.93934338456131,70.44118979293066 M 62.00185712555714,16.498119644520138 M 61.61363354314989,16.44700904027391 M 61.25186675631397,16.29716033075033 M 60.94121057372422,16.058785457866712 M 60.70283570084064,15.748129275276955 M 60.55298699131703,15.386362488441018 M 60.50187638707075,14.998138906033775 M 60.55298699131703,14.609915323626588 M 60.70283570084064,14.248148536790628 M 60.94121057372422,13.937492354200902 M 61.25186675631397,13.699117481317277 M 61.61363354314989,13.549268771793658 M 62.00185712555714,13.498158167547436 M 62.39008070796433,13.54926877179367 M 62.7518474948003,13.699117481317277 M 63.06250367739,13.937492354200925 M 63.30087855027364,14.248148536790628 M 63.45072725979725,14.609915323626598 M 63.501837864043466,14.998138906033796 M 63.45072725979725,15.38636248844103 M 63.30087855027364,15.748129275276955 M 63.06250367739,16.058785457866712 M 62.7518474948003,16.29716033075033 M 62.39008070796433,16.4470090402739 M 19.06066017177983,13.939339828220042 M 19.299038105676686,14.249999999999835 M 19.448888739433585,14.611771432346078 M 19.5,14.999999999999844 M 19.448888739433585,15.388228567653645 M 19.299038105676686,15.749999999999831 M 19.06066017177983,16.06066017177968 M 18.75,16.299038105676495 M 18.38822856765381,16.448888739433446 M 18.0,16.49999999999985 M 17.611771432346245,16.448888739433446 M 17.25,16.299038105676495 M 16.93933982822017,16.06066017177968 M 16.70096189432337,15.749999999999844 M 16.551111260566415,15.388228567653634 M 16.5,14.999999999999844 M 16.551111260566415,14.611771432346078 M 16.70096189432337,14.249999999999845 M 16.93933982822017,13.939339828220042 M 17.25,13.700961894323182 M 17.611771432346245,13.551111260566243 M 18.0,13.499999999999881 M 18.38822856765381,13.55111126056623 M 18.75,13.700961894323182 "
  />
  <path id="face0-interior"
 style="fill:none;stroke:#00FF00;stroke-width:1;stroke-miterlimit:4;stroke-dasharray:none;stroke-linejoin:round;stroke-linecap:round"
        d="M 10.0,76.50182964361656 M 70.00185712555714,76.50182964361656 M 70.00185712555714,10.0 M 10.0,10.00000000000001 M 61.25185771369621,70.20280932137948 M 61.61362886234656,70.05295880513317 M 62.00185712555714,70.0018475846475 M 62.390085388767716,70.05295880513322 M 62.75185653741801,70.20280932137939 M 63.06251646558263,70.44118706834377 M 63.30089421254695,70.75184699650839 M 63.45074472879321,71.11361814515868 M 63.501855949278934,71.50184640836939 M 63.45074472879321,71.89007467157985 M 63.30089421254695,72.2518458202303 M 63.06251646558263,72.5625057483949 M 62.75185653741801,72.8008834953591 M 62.390085388767716,72.95073401160548 M 62.00185712555714,73.001845232091 M 61.61362886234656,72.9507340116054 M 61.25185771369621,72.8008834953592 M 60.941197785531585,72.5625057483949 M 60.70282003856727,72.25184582023036 M 60.55296952232101,71.89007467157987 M 60.501858301835284,71.50184640836922 M 60.55296952232101,71.11361814515872 M 60.70282003856727,70.75184699650836 M 60.941197785531585,70.44118706834381 M 17.250002514712946,70.20281265830326 M 17.61177273405741,70.05296252698808 M 18.0,70.00185143779522 M 18.38822726594259,70.05296252698808 M 18.74999748528711,70.20281265830326 M 19.06065661543869,70.44118979293066 M 19.299033750066087,70.7518489230823 M 19.448883881381278,71.11361914242678 M 19.499994970574164,71.50184640836936 M 19.448883881381278,71.89007367431194 M 19.299033750066087,72.25184389365641 M 19.06065661543869,72.56250302380806 M 18.74999748528711,72.80088015843546 M 18.38822726594259,72.95073028975064 M 18.0,73.0018413789435 M 17.61177273405741,72.95073028975064 M 17.250002514712946,72.80088015843546 M 16.93934338456131,72.56250302380806 M 16.700966249933913,72.25184389365641 M 16.55111611861878,71.89007367431194 M 16.500005029425836,71.50184640836936 M 16.55111611861878,71.11361914242677 M 16.700966249933913,70.7518489230823 M 16.93934338456131,70.44118979293066 M 62.00185712555714,16.498119644520138 M 61.61363354314989,16.44700904027391 M 61.25186675631397,16.29716033075033 M 60.94121057372422,16.058785457866712 M 60.70283570084064,15.748129275276955 M 60.55298699131703,15.386362488441018 M 60.50187638707075,14.998138906033775 M 60.55298699131703,14.609915323626588 M 60.70283570084064,14.248148536790628 M 60.94121057372422,13.937492354200902 M 61.25186675631397,13.699117481317277 M 61.61363354314989,13.549268771793658 M 62.00185712555714,13.498158167547436 M 62.39008070796433,13.54926877179367 M 62.7518474948003,13.699117481317277 M 63.06250367739,13.937492354200925 M 63.30087855027364,14.248148536790628 M 63.45072725979725,14.609915323626598 M 63.501837864043466,14.998138906033796 M 63.45072725979725,15.38636248844103 M 63.30087855027364,15.748129275276955 M 63.06250367739,16.058785457866712 M 62.7518474948003,16.29716033075033 M 62.39008070796433,16.4470090402739 M 19.06066017177983,13.939339828220042 M 19.299038105676686,14.249999999999835 M 19.448888739433585,14.611771432346078 M 19.5,14.999999999999844 M 19.448888739433585,15.388228567653645 M 19.299038105676686,15.749999999999831 M 19.06066017177983,16.06066017177968 M 18.75,16.299038105676495 M 18.38822856765381,16.448888739433446 M 18.0,16.49999999999985 M 17.611771432346245,16.448888739433446 M 17.25,16.299038105676495 M 16.93933982822017,16.06066017177968 M 16.70096189432337,15.749999999999844 M 16.551111260566415,15.388228567653634 M 16.5,14.999999999999844 M 16.551111260566415,14.611771432346078 M 16.70096189432337,14.249999999999845 M 16.93933982822017,13.939339828220042 M 17.25,13.700961894323182 M 17.611771432346245,13.551111260566243 M 18.0,13.499999999999881 M 18.38822856765381,13.55111126056623 M 18.75,13.700961894323182 "
  />
</svg>
