<?xml version="1.0" standalone="no"?>
<!DOCTYPE svg PUBLIC "-//W3C//DTD SVG 1.1//EN" "http://www.w3.org/Graphics/SVG/1.1/DTD/svg11.dtd">
<svg width="370.0050243795298mm" height="334.48191213655673mm"
 viewBox="0 0 370.0050243795298 334.48191213655673"
 xmlns="http://www.w3.org/2000/svg" version="1.1"
 xmlns:xlink="http://www.w3.org/1999/xlink">
<desc>Output from Flights of Ideas SVG Sketchup Plugin</desc>

  <path id="face0-cut"
 style="fill:none;stroke:#0000FF;stroke-width:1;stroke-miterlimit:4;stroke-dasharray:none;stroke-linejoin:round;stroke-linecap:round"
        d="M 354.35996625732776,146.094759017253 L 287.7592759693571,30.968594983894917 L 285.78792813775004,27.88008517184315 L 283.55490051315564,24.97514235655052 L 281.0771877841361,22.275874906893904 L 278.37364684064283,19.80282587802739 L 275.46485326169875,17.574816666328502 L 272.37294472281707,15.608803767206922 L 269.1214525149241,13.919749725936128 L 265.7351224570267,12.52050926364879 L 262.23972656558726,11.421731445147628 L 258.66186691391755,10.63177863309133 L 255.02877317433743,10.156662845366384 L 251.36809538392714,10.0 L 118.36556754679907,10.114807682283157 L 114.70516567392117,10.277790078124355 L 111.07289758703946,10.759177320729293 L 107.49640703951859,11.55530576251195 L 104.00291328396914,12.660116385315206 L 100.61900391730005,14.065200913196293 L 97.37043253305211,15.759865804485116 L 94.28192272100043,17.731213636092093 L 91.37697990570773,19.96424126068655 L 88.67771245605115,22.441953989706093 L 86.20466342718458,25.14549493319936 L 83.97665421548561,28.054288512143415 L 82.01064131636412,31.146197051025183 L 15.60867756329219,146.09475901725307 L 13.919749725936128,149.63866097456213 L 12.52050926364879,153.02499103245526 L 11.421731445147515,156.52038692389425 L 10.631778633091244,160.09824657556584 L 10.156662845366299,163.73134031514633 L 10.0,167.39201810555585 L 10.162982395841198,171.0524199784353 L 10.64436963844605,174.68468806531615 L 11.440498080228792,178.26117861283723 L 12.545308703032077,181.7546723683863 L 13.950393230913221,185.1385817350553 L 15.645058122202016,188.3871531193031 L 82.24574841017284,303.5133171526617 L 84.2170962417799,306.6018269647135 L 86.45012386637427,309.5067697800063 L 88.9278365953939,312.20603722966274 L 91.63137753888705,314.6790862585293 L 94.54017111783119,316.9070954702281 L 97.6320796567129,318.8731083693498 L 100.88357186460576,320.56216241062054 L 104.26990192250341,321.961402872908 L 107.76529781394277,323.0601806914093 L 111.34315746561244,323.8501335034655 L 114.97625120519258,324.3252492911903 L 118.63692899560287,324.48191213655673 L 251.63945683273113,324.36710445427343 L 255.29985870560893,324.2041220584323 L 258.93212679249064,323.7227348158274 L 262.50861734001137,322.9266063740446 L 266.00211109556085,321.82179575124144 L 269.3860204622299,320.4167112233604 L 272.6345918464779,318.7220463320715 L 275.72310165852963,316.7506985004645 L 278.62804447382223,314.51767087587007 L 281.3273119234788,312.03995814685044 L 283.8003609523454,309.33641720335726 L 286.0283701640443,306.42762362441323 L 287.9943830631658,303.33571508553155 L 354.39622061232296,188.09474336989 L 356.0852746535938,184.843251161997 L 357.4845151158811,181.4569211040996 L 358.58329293438237,177.9615252126602 L 359.37324574643856,174.3836655609905 L 359.84836153416353,170.75057182141035 L 360.0050243795298,167.08989403099997 L 359.8420419836887,163.42949215812212 L 359.36065474108375,159.79722407124046 L 358.56452629930106,156.22073352371956 L 357.45971567649775,152.72723976817008 L 356.0546311486166,149.34333040150096 L 354.35996625732776,146.094759017253 M 99.59436760281955,312.62534662919006 L 99.29086606159068,311.8997256712544 L 99.18551060803858,311.1202776687997 L 99.2854810422145,310.3401207150946 L 99.58396454423846,309.612421217264 L 100.06061995671469,308.9867706935042 L 100.68296400099337,308.5058061930734 L 101.40858495892897,308.20230465184466 L 102.18803296138348,308.09694919829246 L 102.96818991508877,308.19691963246834 L 103.69588941291944,308.49540313449234 L 104.3215399366791,308.9720585469686 L 104.80250443710992,309.5944025912473 L 105.10600597833864,310.3200235491828 L 105.21136143189088,311.0994715516375 L 105.11139099771492,311.87962850534257 L 104.81290749569101,312.60732800317317 L 104.33625208321477,313.23297852693304 L 103.71390803893605,313.7139430273638 L 102.98828708100041,314.0174445685926 L 102.20883907854589,314.1228000221448 L 101.4286821248406,314.02282958796866 L 100.70098262700989,313.72434608594483 L 100.07533210325037,313.24769067346875 L 99.59436760281955,312.62534662919006 M 47.86012018507276,235.9990839401599 L 47.08040194881414,235.89574730314968 L 46.353997456898924,235.59412584730262 L 45.730409975010275,235.11477457638097 L 45.25213595951203,234.4903604873329 L 44.95176899417524,233.76343636843444 L 44.84977859130777,232.9835408970888 L 44.953115228317785,232.20382266083027 L 45.254736684165096,231.477418168915 L 45.734087955086636,230.85383068702646 L 46.35850204413467,230.375556671528 L 47.085426163033304,230.07518970619117 L 47.865321634379,229.9731993033239 L 48.64503987063733,230.07653594033388 L 49.37144436255275,230.37815739618117 L 49.99503184444134,230.85750866710254 L 50.47330585993967,231.4819227561506 L 50.77367282527646,232.20884687504957 L 50.87566322814399,232.98874234639476 L 50.77232659113386,233.76846058265323 L 50.47070513528655,234.49486507456857 L 49.99135386436507,235.11845255645733 L 49.36693977531698,235.59672657195563 L 48.640015656418484,235.89709353729233 L 47.86012018507276,235.9990839401599 M 16.18629455052786,168.5308034757523 L 16.08363098307737,167.75099635085343 L 16.186294527288197,166.97118922289673 L 16.48728883228199,166.24452465895706 L 16.966101633589915,165.6205236481992 L 17.590102630078576,165.14171082829466 L 18.316767185047382,164.8407165016448 L 19.09657430994551,164.73805293419474 L 19.876381437903234,164.84071647840523 L 20.603046001842273,165.14171078339962 L 21.227047012600337,165.62052358470646 L 21.705859832504757,166.24452458119583 L 22.006854159154386,166.97118913616526 L 22.109517726604906,167.7509962610619 L 22.006854182394136,168.5308033890206 L 21.705859877400343,169.25746795295976 L 21.22704707609236,169.8814689637175 L 20.6030460796037,170.3602817836216 L 19.876381524634866,170.6612761102719 L 19.096574399736767,170.76393967772196 L 18.3167672717791,170.66127613351165 L 17.59010270784006,170.36028182851777 L 16.96610169708194,169.8814690272094 L 16.487288877177605,169.2574680307212 L 16.18629455052786,168.5308034757523 M 50.773873632323415,101.73093912297782 L 50.87653716757035,102.51074609305664 L 50.773873632323415,103.2905530631349 L 50.47287937685033,104.01721747689464 L 49.994066662244904,104.64121835540766 L 49.37006578373223,105.12003107001237 L 48.64340136997242,105.42102532548614 L 47.863594399894,105.52368886073276 L 47.08378742981546,105.42102532548552 L 46.35712301605574,105.12003107001266 L 45.733122137543006,104.64121835540732 L 45.25430942293758,104.01721747689453 L 44.95331516746447,103.2905530631354 L 44.850651632217534,102.51074609305635 L 44.95331516746447,101.73093912297793 L 45.25430942293758,101.00427470921835 L 45.733122137543006,100.38027383070533 L 46.357123016055766,99.90146111610005 L 47.08378742981543,99.60046686062674 L 47.86359439989391,99.49780332538018 L 48.64340136997248,99.60046686062697 L 49.37006578373217,99.90146111610034 L 49.994066662244904,100.38027383070568 L 50.47287937685033,101.00427470921835 L 50.773873632323415,101.73093912297782 M 102.63724564623541,21.198444413200832 L 103.36442875854415,21.498183768802647 L 103.98925545336795,21.97591859227626 L 104.46914482402948,22.599092044895656 L 104.77139320297289,23.32523588570814 L 104.87540286266213,24.10486461197152 L 104.77408571667355,24.884847814388337 L 104.4743463610716,25.6120309266972 L 103.99661153759821,26.236857621520954 L 103.37343808497862,26.716746992182493 L 102.6472942441662,27.01899537112581 L 101.86766551790289,27.123005030815023 L 101.087682315486,27.021687884826463 L 100.36049920317721,26.721948529224704 L 99.73567250835337,26.244213705751122 L 99.25578313769188,25.621040253131696 L 98.95353475874848,24.894896412319156 L 98.84952509905929,24.11526768605586 L 98.95084224504787,23.335284483638873 L 99.25058160064977,22.608101371330036 L 99.72831642412321,21.98327467650634 L 100.35148987674276,21.503385305844745 L 101.07763371755517,21.2011369269014 L 101.85726244381857,21.09712726721216 L 102.63724564623541,21.198444413200832 M 194.60293400681115,18.35618585232467 L 194.12250688125948,17.733426857579076 L 193.81963180138848,17.007544171123754 L 193.71494920336653,16.228005498463034 L 193.81559303325264,15.447935111889933 L 194.11470458036183,14.720493519122357 L 194.59189988706387,14.09525466255323 L 195.21465888180953,13.614827537001673 L 195.94054156826476,13.311952457130701 L 196.72008024092557,13.207269859108692 L 197.50015062749856,13.307913688994745 L 198.22759222026616,13.607025236103965 L 198.8528310768353,14.084220542806008 L 199.33325820238693,14.706979537551717 L 199.6361332822579,15.432862224006982 L 199.74081588027985,16.212400896667674 L 199.64017205039383,16.99247128324066 L 199.3410605032846,17.719912876008323 L 198.86386519658254,18.345151732577563 L 198.2411062018369,18.825578858129035 L 197.51522351538168,19.128453938000035 L 196.7356848427209,19.233136536022016 L 195.95561445614788,19.132492706135906 L 195.22817286338025,18.833381159026715 L 194.60293400681115,18.35618585232467 M 270.54486803532336,22.89372559819614 L 270.6502234888757,23.673173600650955 L 270.5502530546998,24.453330554355972 L 270.2517695526761,25.1810300521868 L 269.7751141401999,25.806680575946586 L 269.1527700959214,26.28764507637746 L 268.4271491379856,26.591146617606398 L 267.64770113553107,26.696502071158676 L 266.8675441818261,26.59653163698286 L 266.1398446839953,26.29804813495909 L 265.51419416023526,25.821392722482898 L 265.03322965980453,25.199048678204207 L 264.7297281185756,24.473427720268887 L 264.62437266502326,23.69397971781396 L 264.72434309919913,22.913822764109028 L 265.02282660122285,22.18612326627823 L 265.49948201369904,21.560472742518357 L 266.12182605797756,21.07950824208757 L 266.84744701591325,20.776006700858602 L 267.6268950183678,20.670651247306353 L 268.4070519720729,20.77062168148217 L 269.13475146990373,21.069105183505854 L 269.7604019936636,21.545760595982074 L 270.2413664940945,22.168104640260765 L 270.54486803532336,22.89372559819614 M 349.95448462777483,164.13499665960495 L 350.7342917542028,164.03233310377425 L 351.51409888063074,164.13499665960484 L 352.24076344008495,164.43599097542653 L 352.8647644437085,164.9148037860329 L 353.3435772543147,165.53880478965613 L 353.6445715701366,166.26546934911056 L 353.74723512596734,167.04527647553823 L 353.6445715701367,167.82508360196624 L 353.3435772543149,168.55174816142068 L 352.86476444370874,169.17574916504395 L 352.2407634400853,169.65456197565027 L 351.51409888063114,169.95555629147213 L 350.7342917542031,170.05821984730278 L 349.9544846277752,169.9555562914722 L 349.22782006832097,169.65456197565055 L 348.6038190646975,169.17574916504412 L 348.1250062540913,168.5517481614209 L 347.82401193826934,167.82508360196653 L 347.7213483824387,167.0452764755388 L 347.82401193826934,166.2654693491108 L 348.12500625409115,165.5388047896564 L 348.6038190646973,164.91480378603308 L 349.2278200683206,164.43599097542682 L 349.95448462777483,164.13499665960495 M 265.36137089025794,309.17582018077337 L 265.83910571373156,308.55099348594945 L 266.46227916635127,308.07110411528805 L 267.18842300716346,307.76885573634473 L 267.96805173342693,307.66484607665564 L 268.7480349358437,307.7661632226443 L 269.4752180481526,308.0659025782462 L 270.10004474297625,308.5436374017196 L 270.5799341136377,309.16681085433913 L 270.88218249258125,309.8929546951518 L 270.98619215227023,310.672583421415 L 270.88487500628156,311.4525666238319 L 270.58513565067983,312.1797497361406 L 270.1074008272061,312.8045764309645 L 269.4842273745865,313.28446580162597 L 268.75808353377425,313.5867141805692 L 267.97845480751073,313.6907238402584 L 267.198471605094,313.58940669426977 L 266.47128849278516,313.2896673386677 L 265.8464617979615,312.8119325151943 L 265.36657242729996,312.18875906257483 L 265.06432404835664,311.46261522176223 L 264.9603143886675,310.6829864954989 L 265.06163153465604,309.9030032930821 L 265.36137089025794,309.17582018077337 M 187.67435483844838,220.19313517750464 L 189.44720546314903,223.69402794787624 L 190.74793090230457,227.396373536699 L 191.55427538302175,231.23682378446398 L 191.85244212767464,235.14966752265792 L 191.6373294205948,239.06795491007546 L 190.91261789984077,242.9246429631628 L 189.69070758046072,246.65374268005615 L 187.99250568679682,250.1914481306976 L 185.84706892408013,253.47722819398928 L 183.29110631014814,256.4548622620578 L 180.36835107397206,259.0734021904429 L 177.1288123679836,261.28804403497304 L 173.62791959761205,263.0608946596737 L 169.9255740087893,264.3616200988291 L 166.08512376102433,265.1679645795463 L 162.1722800228303,265.46613132419924 L 158.25399263541289,265.2510186171193 L 154.3973045823255,264.52630709636554 L 150.66820486543213,263.3043967769854 L 147.13049941479085,261.6061948833215 L 143.84471935149912,259.4607581206048 L 140.8670852834304,256.90479550667277 L 138.2485453550455,253.98204027049655 L 136.03390351051536,250.74250156450825 L 134.26105288581468,247.2416087941367 L 132.9603274466592,243.5392632053139 L 132.15398296594196,239.6988129575489 L 131.8558162212891,235.7859692193549 L 132.07092892836894,231.86768183193766 L 132.79564044912297,228.0109937788502 L 134.01755076850293,224.28189406195668 L 135.7157526621669,220.74418861131562 L 137.86118942488355,217.45840854802378 L 140.4171520388155,214.48077447995513 L 143.33990727499162,211.86223455157005 L 146.5794459809801,209.64759270703996 L 150.08033875135158,207.87474208233925 L 153.78268434017428,206.5740166431837 L 157.62313458793926,205.76767216246657 L 161.53597832613332,205.46950541781365 L 165.4542657135507,205.68461812489363 L 169.31095376663814,206.4093296456474 L 173.04005348353147,207.63123996502742 L 176.57775893417283,209.32944185869138 L 179.86353899746447,211.47487862140804 L 182.84117306553324,214.03084123534006 L 185.45971299391817,216.9535964715161 L 187.67435483844838,220.19313517750464 M 198.35412917442264,217.3920181055567 L 198.35412917409522,117.3920181055567 L 248.35412917409525,117.3920181055567 L 248.35412917442267,217.3920181055567 L 198.35412917442264,217.3920181055567 "
  />
  <path id="face0-interior"
 style="fill:none;stroke:#FF0000;stroke-width:1;stroke-miterlimit:4;stroke-dasharray:none;stroke-linejoin:round;stroke-linecap:round"
        d="M 354.35996625732776,146.094759017253 M 287.7592759693571,30.968594983894917 M 285.78792813775004,27.88008517184315 M 283.55490051315564,24.97514235655052 M 281.0771877841361,22.275874906893904 M 278.37364684064283,19.80282587802739 M 275.46485326169875,17.574816666328502 M 272.37294472281707,15.608803767206922 M 269.1214525149241,13.919749725936128 M 265.7351224570267,12.52050926364879 M 262.23972656558726,11.421731445147628 M 258.66186691391755,10.63177863309133 M 255.02877317433743,10.156662845366384 M 251.36809538392714,10.0 M 118.36556754679907,10.114807682283157 M 114.70516567392117,10.277790078124355 M 111.07289758703946,10.759177320729293 M 107.49640703951859,11.55530576251195 M 104.00291328396914,12.660116385315206 M 100.61900391730005,14.065200913196293 M 97.37043253305211,15.759865804485116 M 94.28192272100043,17.731213636092093 M 91.37697990570773,19.96424126068655 M 88.67771245605115,22.441953989706093 M 86.20466342718458,25.14549493319936 M 83.97665421548561,28.054288512143415 M 82.01064131636412,31.146197051025183 M 15.60867756329219,146.09475901725307 M 13.919749725936128,149.63866097456213 M 12.52050926364879,153.02499103245526 M 11.421731445147515,156.52038692389425 M 10.631778633091244,160.09824657556584 M 10.156662845366299,163.73134031514633 M 10.0,167.39201810555585 M 10.162982395841198,171.0524199784353 M 10.64436963844605,174.68468806531615 M 11.440498080228792,178.26117861283723 M 12.545308703032077,181.7546723683863 M 13.950393230913221,185.1385817350553 M 15.645058122202016,188.3871531193031 M 82.24574841017284,303.5133171526617 M 84.2170962417799,306.6018269647135 M 86.45012386637427,309.5067697800063 M 88.9278365953939,312.20603722966274 M 91.63137753888705,314.6790862585293 M 94.54017111783119,316.9070954702281 M 97.6320796567129,318.8731083693498 M 100.88357186460576,320.56216241062054 M 104.26990192250341,321.961402872908 M 107.76529781394277,323.0601806914093 M 111.34315746561244,323.8501335034655 M 114.97625120519258,324.3252492911903 M 118.63692899560287,324.48191213655673 M 251.63945683273113,324.36710445427343 M 255.29985870560893,324.2041220584323 M 258.93212679249064,323.7227348158274 M 262.50861734001137,322.9266063740446 M 266.00211109556085,321.82179575124144 M 269.3860204622299,320.4167112233604 M 272.6345918464779,318.7220463320715 M 275.72310165852963,316.7506985004645 M 278.62804447382223,314.51767087587007 M 281.3273119234788,312.03995814685044 M 283.8003609523454,309.33641720335726 M 286.0283701640443,306.42762362441323 M 287.9943830631658,303.33571508553155 M 354.39622061232296,188.09474336989 M 356.0852746535938,184.843251161997 M 357.4845151158811,181.4569211040996 M 358.58329293438237,177.9615252126602 M 359.37324574643856,174.3836655609905 M 359.84836153416353,170.75057182141035 M 360.0050243795298,167.08989403099997 M 359.8420419836887,163.42949215812212 M 359.36065474108375,159.79722407124046 M 358.56452629930106,156.22073352371956 M 357.45971567649775,152.72723976817008 M 356.0546311486166,149.34333040150096 M 99.59436760281955,312.62534662919006 M 99.29086606159068,311.8997256712544 M 99.18551060803858,311.1202776687997 M 99.2854810422145,310.3401207150946 M 99.58396454423846,309.612421217264 M 100.06061995671469,308.9867706935042 M 100.68296400099337,308.5058061930734 M 101.40858495892897,308.20230465184466 M 102.18803296138348,308.09694919829246 M 102.96818991508877,308.19691963246834 M 103.69588941291944,308.49540313449234 M 104.3215399366791,308.9720585469686 M 104.80250443710992,309.5944025912473 M 105.10600597833864,310.3200235491828 M 105.21136143189088,311.0994715516375 M 105.11139099771492,311.87962850534257 M 104.81290749569101,312.60732800317317 M 104.33625208321477,313.23297852693304 M 103.71390803893605,313.7139430273638 M 102.98828708100041,314.0174445685926 M 102.20883907854589,314.1228000221448 M 101.4286821248406,314.02282958796866 M 100.70098262700989,313.72434608594483 M 100.07533210325037,313.24769067346875 M 47.86012018507276,235.9990839401599 M 47.08040194881414,235.89574730314968 M 46.353997456898924,235.59412584730262 M 45.730409975010275,235.11477457638097 M 45.25213595951203,234.4903604873329 M 44.95176899417524,233.76343636843444 M 44.84977859130777,232.9835408970888 M 44.953115228317785,232.20382266083027 M 45.254736684165096,231.477418168915 M 45.734087955086636,230.85383068702646 M 46.35850204413467,230.375556671528 M 47.085426163033304,230.07518970619117 M 47.865321634379,229.9731993033239 M 48.64503987063733,230.07653594033388 M 49.37144436255275,230.37815739618117 M 49.99503184444134,230.85750866710254 M 50.47330585993967,231.4819227561506 M 50.77367282527646,232.20884687504957 M 50.87566322814399,232.98874234639476 M 50.77232659113386,233.76846058265323 M 50.47070513528655,234.49486507456857 M 49.99135386436507,235.11845255645733 M 49.36693977531698,235.59672657195563 M 48.640015656418484,235.89709353729233 M 16.18629455052786,168.5308034757523 M 16.08363098307737,167.75099635085343 M 16.186294527288197,166.97118922289673 M 16.48728883228199,166.24452465895706 M 16.966101633589915,165.6205236481992 M 17.590102630078576,165.14171082829466 M 18.316767185047382,164.8407165016448 M 19.09657430994551,164.73805293419474 M 19.876381437903234,164.84071647840523 M 20.603046001842273,165.14171078339962 M 21.227047012600337,165.62052358470646 M 21.705859832504757,166.24452458119583 M 22.006854159154386,166.97118913616526 M 22.109517726604906,167.7509962610619 M 22.006854182394136,168.5308033890206 M 21.705859877400343,169.25746795295976 M 21.22704707609236,169.8814689637175 M 20.6030460796037,170.3602817836216 M 19.876381524634866,170.6612761102719 M 19.096574399736767,170.76393967772196 M 18.3167672717791,170.66127613351165 M 17.59010270784006,170.36028182851777 M 16.96610169708194,169.8814690272094 M 16.487288877177605,169.2574680307212 M 50.773873632323415,101.73093912297782 M 50.87653716757035,102.51074609305664 M 50.773873632323415,103.2905530631349 M 50.47287937685033,104.01721747689464 M 49.994066662244904,104.64121835540766 M 49.37006578373223,105.12003107001237 M 48.64340136997242,105.42102532548614 M 47.863594399894,105.52368886073276 M 47.08378742981546,105.42102532548552 M 46.35712301605574,105.12003107001266 M 45.733122137543006,104.64121835540732 M 45.25430942293758,104.01721747689453 M 44.95331516746447,103.2905530631354 M 44.850651632217534,102.51074609305635 M 44.95331516746447,101.73093912297793 M 45.25430942293758,101.00427470921835 M 45.733122137543006,100.38027383070533 M 46.357123016055766,99.90146111610005 M 47.08378742981543,99.60046686062674 M 47.86359439989391,99.49780332538018 M 48.64340136997248,99.60046686062697 M 49.37006578373217,99.90146111610034 M 49.994066662244904,100.38027383070568 M 50.47287937685033,101.00427470921835 M 102.63724564623541,21.198444413200832 M 103.36442875854415,21.498183768802647 M 103.98925545336795,21.97591859227626 M 104.46914482402948,22.599092044895656 M 104.77139320297289,23.32523588570814 M 104.87540286266213,24.10486461197152 M 104.77408571667355,24.884847814388337 M 104.4743463610716,25.6120309266972 M 103.99661153759821,26.236857621520954 M 103.37343808497862,26.716746992182493 M 102.6472942441662,27.01899537112581 M 101.86766551790289,27.123005030815023 M 101.087682315486,27.021687884826463 M 100.36049920317721,26.721948529224704 M 99.73567250835337,26.244213705751122 M 99.25578313769188,25.621040253131696 M 98.95353475874848,24.894896412319156 M 98.84952509905929,24.11526768605586 M 98.95084224504787,23.335284483638873 M 99.25058160064977,22.608101371330036 M 99.72831642412321,21.98327467650634 M 100.35148987674276,21.503385305844745 M 101.07763371755517,21.2011369269014 M 101.85726244381857,21.09712726721216 M 194.60293400681115,18.35618585232467 M 194.12250688125948,17.733426857579076 M 193.81963180138848,17.007544171123754 M 193.71494920336653,16.228005498463034 M 193.81559303325264,15.447935111889933 M 194.11470458036183,14.720493519122357 M 194.59189988706387,14.09525466255323 M 195.21465888180953,13.614827537001673 M 195.94054156826476,13.311952457130701 M 196.72008024092557,13.207269859108692 M 197.50015062749856,13.307913688994745 M 198.22759222026616,13.607025236103965 M 198.8528310768353,14.084220542806008 M 199.33325820238693,14.706979537551717 M 199.6361332822579,15.432862224006982 M 199.74081588027985,16.212400896667674 M 199.64017205039383,16.99247128324066 M 199.3410605032846,17.719912876008323 M 198.86386519658254,18.345151732577563 M 198.2411062018369,18.825578858129035 M 197.51522351538168,19.128453938000035 M 196.7356848427209,19.233136536022016 M 195.95561445614788,19.132492706135906 M 195.22817286338025,18.833381159026715 M 270.54486803532336,22.89372559819614 M 270.6502234888757,23.673173600650955 M 270.5502530546998,24.453330554355972 M 270.2517695526761,25.1810300521868 M 269.7751141401999,25.806680575946586 M 269.1527700959214,26.28764507637746 M 268.4271491379856,26.591146617606398 M 267.64770113553107,26.696502071158676 M 266.8675441818261,26.59653163698286 M 266.1398446839953,26.29804813495909 M 265.51419416023526,25.821392722482898 M 265.03322965980453,25.199048678204207 M 264.7297281185756,24.473427720268887 M 264.62437266502326,23.69397971781396 M 264.72434309919913,22.913822764109028 M 265.02282660122285,22.18612326627823 M 265.49948201369904,21.560472742518357 M 266.12182605797756,21.07950824208757 M 266.84744701591325,20.776006700858602 M 267.6268950183678,20.670651247306353 M 268.4070519720729,20.77062168148217 M 269.13475146990373,21.069105183505854 M 269.7604019936636,21.545760595982074 M 270.2413664940945,22.168104640260765 M 349.95448462777483,164.13499665960495 M 350.7342917542028,164.03233310377425 M 351.51409888063074,164.13499665960484 M 352.24076344008495,164.43599097542653 M 352.8647644437085,164.9148037860329 M 353.3435772543147,165.53880478965613 M 353.6445715701366,166.26546934911056 M 353.74723512596734,167.04527647553823 M 353.6445715701367,167.82508360196624 M 353.3435772543149,168.55174816142068 M 352.86476444370874,169.17574916504395 M 352.2407634400853,169.65456197565027 M 351.51409888063114,169.95555629147213 M 350.7342917542031,170.05821984730278 M 349.9544846277752,169.9555562914722 M 349.22782006832097,169.65456197565055 M 348.6038190646975,169.17574916504412 M 348.1250062540913,168.5517481614209 M 347.82401193826934,167.82508360196653 M 347.7213483824387,167.0452764755388 M 347.82401193826934,166.2654693491108 M 348.12500625409115,165.5388047896564 M 348.6038190646973,164.91480378603308 M 349.2278200683206,164.43599097542682 M 265.36137089025794,309.17582018077337 M 265.83910571373156,308.55099348594945 M 266.46227916635127,308.07110411528805 M 267.18842300716346,307.76885573634473 M 267.96805173342693,307.66484607665564 M 268.7480349358437,307.7661632226443 M 269.4752180481526,308.0659025782462 M 270.10004474297625,308.5436374017196 M 270.5799341136377,309.16681085433913 M 270.88218249258125,309.8929546951518 M 270.98619215227023,310.672583421415 M 270.88487500628156,311.4525666238319 M 270.58513565067983,312.1797497361406 M 270.1074008272061,312.8045764309645 M 269.4842273745865,313.28446580162597 M 268.75808353377425,313.5867141805692 M 267.97845480751073,313.6907238402584 M 267.198471605094,313.58940669426977 M 266.47128849278516,313.2896673386677 M 265.8464617979615,312.8119325151943 M 265.36657242729996,312.18875906257483 M 265.06432404835664,311.46261522176223 M 264.9603143886675,310.6829864954989 M 265.06163153465604,309.9030032930821 M 187.67435483844838,220.19313517750464 M 189.44720546314903,223.69402794787624 M 190.74793090230457,227.396373536699 M 191.55427538302175,231.23682378446398 M 191.85244212767464,235.14966752265792 M 191.6373294205948,239.06795491007546 M 190.91261789984077,242.9246429631628 M 189.69070758046072,246.65374268005615 M 187.99250568679682,250.1914481306976 M 185.84706892408013,253.47722819398928 M 183.29110631014814,256.4548622620578 M 180.36835107397206,259.0734021904429 M 177.1288123679836,261.28804403497304 M 173.62791959761205,263.0608946596737 M 169.9255740087893,264.3616200988291 M 166.08512376102433,265.1679645795463 M 162.1722800228303,265.46613132419924 M 158.25399263541289,265.2510186171193 M 154.3973045823255,264.52630709636554 M 150.66820486543213,263.3043967769854 M 147.13049941479085,261.6061948833215 M 143.84471935149912,259.4607581206048 M 140.8670852834304,256.90479550667277 M 138.2485453550455,253.98204027049655 M 136.03390351051536,250.74250156450825 M 134.26105288581468,247.2416087941367 M 132.9603274466592,243.5392632053139 M 132.15398296594196,239.6988129575489 M 131.8558162212891,235.7859692193549 M 132.07092892836894,231.86768183193766 M 132.79564044912297,228.0109937788502 M 134.01755076850293,224.28189406195668 M 135.7157526621669,220.74418861131562 M 137.86118942488355,217.45840854802378 M 140.4171520388155,214.48077447995513 M 143.33990727499162,211.86223455157005 M 146.5794459809801,209.64759270703996 M 150.08033875135158,207.87474208233925 M 153.78268434017428,206.5740166431837 M 157.62313458793926,205.76767216246657 M 161.53597832613332,205.46950541781365 M 165.4542657135507,205.68461812489363 M 169.31095376663814,206.4093296456474 M 173.04005348353147,207.63123996502742 M 176.57775893417283,209.32944185869138 M 179.86353899746447,211.47487862140804 M 182.84117306553324,214.03084123534006 M 185.45971299391817,216.9535964715161 M 198.35412917442264,217.3920181055567 M 198.35412917409522,117.3920181055567 M 248.35412917409525,117.3920181055567 M 248.35412917442267,217.3920181055567 "
  />
  <path id="face0-interior"
 style="fill:none;stroke:#00FF00;stroke-width:1;stroke-miterlimit:4;stroke-dasharray:none;stroke-linejoin:round;stroke-linecap:round"
        d="M 354.35996625732776,146.094759017253 M 287.7592759693571,30.968594983894917 M 285.78792813775004,27.88008517184315 M 283.55490051315564,24.97514235655052 M 281.0771877841361,22.275874906893904 M 278.37364684064283,19.80282587802739 M 275.46485326169875,17.574816666328502 M 272.37294472281707,15.608803767206922 M 269.1214525149241,13.919749725936128 M 265.7351224570267,12.52050926364879 M 262.23972656558726,11.421731445147628 M 258.66186691391755,10.63177863309133 M 255.02877317433743,10.156662845366384 M 251.36809538392714,10.0 M 118.36556754679907,10.114807682283157 M 114.70516567392117,10.277790078124355 M 111.07289758703946,10.759177320729293 M 107.49640703951859,11.55530576251195 M 104.00291328396914,12.660116385315206 M 100.61900391730005,14.065200913196293 M 97.37043253305211,15.759865804485116 M 94.28192272100043,17.731213636092093 M 91.37697990570773,19.96424126068655 M 88.67771245605115,22.441953989706093 M 86.20466342718458,25.14549493319936 M 83.97665421548561,28.054288512143415 M 82.01064131636412,31.146197051025183 M 15.60867756329219,146.09475901725307 M 13.919749725936128,149.63866097456213 M 12.52050926364879,153.02499103245526 M 11.421731445147515,156.52038692389425 M 10.631778633091244,160.09824657556584 M 10.156662845366299,163.73134031514633 M 10.0,167.39201810555585 M 10.162982395841198,171.0524199784353 M 10.64436963844605,174.68468806531615 M 11.440498080228792,178.26117861283723 M 12.545308703032077,181.7546723683863 M 13.950393230913221,185.1385817350553 M 15.645058122202016,188.3871531193031 M 82.24574841017284,303.5133171526617 M 84.2170962417799,306.6018269647135 M 86.45012386637427,309.5067697800063 M 88.9278365953939,312.20603722966274 M 91.63137753888705,314.6790862585293 M 94.54017111783119,316.9070954702281 M 97.6320796567129,318.8731083693498 M 100.88357186460576,320.56216241062054 M 104.26990192250341,321.961402872908 M 107.76529781394277,323.0601806914093 M 111.34315746561244,323.8501335034655 M 114.97625120519258,324.3252492911903 M 118.63692899560287,324.48191213655673 M 251.63945683273113,324.36710445427343 M 255.29985870560893,324.2041220584323 M 258.93212679249064,323.7227348158274 M 262.50861734001137,322.9266063740446 M 266.00211109556085,321.82179575124144 M 269.3860204622299,320.4167112233604 M 272.6345918464779,318.7220463320715 M 275.72310165852963,316.7506985004645 M 278.62804447382223,314.51767087587007 M 281.3273119234788,312.03995814685044 M 283.8003609523454,309.33641720335726 M 286.0283701640443,306.42762362441323 M 287.9943830631658,303.33571508553155 M 354.39622061232296,188.09474336989 M 356.0852746535938,184.843251161997 M 357.4845151158811,181.4569211040996 M 358.58329293438237,177.9615252126602 M 359.37324574643856,174.3836655609905 M 359.84836153416353,170.75057182141035 M 360.0050243795298,167.08989403099997 M 359.8420419836887,163.42949215812212 M 359.36065474108375,159.79722407124046 M 358.56452629930106,156.22073352371956 M 357.45971567649775,152.72723976817008 M 356.0546311486166,149.34333040150096 M 99.59436760281955,312.62534662919006 M 99.29086606159068,311.8997256712544 M 99.18551060803858,311.1202776687997 M 99.2854810422145,310.3401207150946 M 99.58396454423846,309.612421217264 M 100.06061995671469,308.9867706935042 M 100.68296400099337,308.5058061930734 M 101.40858495892897,308.20230465184466 M 102.18803296138348,308.09694919829246 M 102.96818991508877,308.19691963246834 M 103.69588941291944,308.49540313449234 M 104.3215399366791,308.9720585469686 M 104.80250443710992,309.5944025912473 M 105.10600597833864,310.3200235491828 M 105.21136143189088,311.0994715516375 M 105.11139099771492,311.87962850534257 M 104.81290749569101,312.60732800317317 M 104.33625208321477,313.23297852693304 M 103.71390803893605,313.7139430273638 M 102.98828708100041,314.0174445685926 M 102.20883907854589,314.1228000221448 M 101.4286821248406,314.02282958796866 M 100.70098262700989,313.72434608594483 M 100.07533210325037,313.24769067346875 M 47.86012018507276,235.9990839401599 M 47.08040194881414,235.89574730314968 M 46.353997456898924,235.59412584730262 M 45.730409975010275,235.11477457638097 M 45.25213595951203,234.4903604873329 M 44.95176899417524,233.76343636843444 M 44.84977859130777,232.9835408970888 M 44.953115228317785,232.20382266083027 M 45.254736684165096,231.477418168915 M 45.734087955086636,230.85383068702646 M 46.35850204413467,230.375556671528 M 47.085426163033304,230.07518970619117 M 47.865321634379,229.9731993033239 M 48.64503987063733,230.07653594033388 M 49.37144436255275,230.37815739618117 M 49.99503184444134,230.85750866710254 M 50.47330585993967,231.4819227561506 M 50.77367282527646,232.20884687504957 M 50.87566322814399,232.98874234639476 M 50.77232659113386,233.76846058265323 M 50.47070513528655,234.49486507456857 M 49.99135386436507,235.11845255645733 M 49.36693977531698,235.59672657195563 M 48.640015656418484,235.89709353729233 M 16.18629455052786,168.5308034757523 M 16.08363098307737,167.75099635085343 M 16.186294527288197,166.97118922289673 M 16.48728883228199,166.24452465895706 M 16.966101633589915,165.6205236481992 M 17.590102630078576,165.14171082829466 M 18.316767185047382,164.8407165016448 M 19.09657430994551,164.73805293419474 M 19.876381437903234,164.84071647840523 M 20.603046001842273,165.14171078339962 M 21.227047012600337,165.62052358470646 M 21.705859832504757,166.24452458119583 M 22.006854159154386,166.97118913616526 M 22.109517726604906,167.7509962610619 M 22.006854182394136,168.5308033890206 M 21.705859877400343,169.25746795295976 M 21.22704707609236,169.8814689637175 M 20.6030460796037,170.3602817836216 M 19.876381524634866,170.6612761102719 M 19.096574399736767,170.76393967772196 M 18.3167672717791,170.66127613351165 M 17.59010270784006,170.36028182851777 M 16.96610169708194,169.8814690272094 M 16.487288877177605,169.2574680307212 M 50.773873632323415,101.73093912297782 M 50.87653716757035,102.51074609305664 M 50.773873632323415,103.2905530631349 M 50.47287937685033,104.01721747689464 M 49.994066662244904,104.64121835540766 M 49.37006578373223,105.12003107001237 M 48.64340136997242,105.42102532548614 M 47.863594399894,105.52368886073276 M 47.08378742981546,105.42102532548552 M 46.35712301605574,105.12003107001266 M 45.733122137543006,104.64121835540732 M 45.25430942293758,104.01721747689453 M 44.95331516746447,103.2905530631354 M 44.850651632217534,102.51074609305635 M 44.95331516746447,101.73093912297793 M 45.25430942293758,101.00427470921835 M 45.733122137543006,100.38027383070533 M 46.357123016055766,99.90146111610005 M 47.08378742981543,99.60046686062674 M 47.86359439989391,99.49780332538018 M 48.64340136997248,99.60046686062697 M 49.37006578373217,99.90146111610034 M 49.994066662244904,100.38027383070568 M 50.47287937685033,101.00427470921835 M 102.63724564623541,21.198444413200832 M 103.36442875854415,21.498183768802647 M 103.98925545336795,21.97591859227626 M 104.46914482402948,22.599092044895656 M 104.77139320297289,23.32523588570814 M 104.87540286266213,24.10486461197152 M 104.77408571667355,24.884847814388337 M 104.4743463610716,25.6120309266972 M 103.99661153759821,26.236857621520954 M 103.37343808497862,26.716746992182493 M 102.6472942441662,27.01899537112581 M 101.86766551790289,27.123005030815023 M 101.087682315486,27.021687884826463 M 100.36049920317721,26.721948529224704 M 99.73567250835337,26.244213705751122 M 99.25578313769188,25.621040253131696 M 98.95353475874848,24.894896412319156 M 98.84952509905929,24.11526768605586 M 98.95084224504787,23.335284483638873 M 99.25058160064977,22.608101371330036 M 99.72831642412321,21.98327467650634 M 100.35148987674276,21.503385305844745 M 101.07763371755517,21.2011369269014 M 101.85726244381857,21.09712726721216 M 194.60293400681115,18.35618585232467 M 194.12250688125948,17.733426857579076 M 193.81963180138848,17.007544171123754 M 193.71494920336653,16.228005498463034 M 193.81559303325264,15.447935111889933 M 194.11470458036183,14.720493519122357 M 194.59189988706387,14.09525466255323 M 195.21465888180953,13.614827537001673 M 195.94054156826476,13.311952457130701 M 196.72008024092557,13.207269859108692 M 197.50015062749856,13.307913688994745 M 198.22759222026616,13.607025236103965 M 198.8528310768353,14.084220542806008 M 199.33325820238693,14.706979537551717 M 199.6361332822579,15.432862224006982 M 199.74081588027985,16.212400896667674 M 199.64017205039383,16.99247128324066 M 199.3410605032846,17.719912876008323 M 198.86386519658254,18.345151732577563 M 198.2411062018369,18.825578858129035 M 197.51522351538168,19.128453938000035 M 196.7356848427209,19.233136536022016 M 195.95561445614788,19.132492706135906 M 195.22817286338025,18.833381159026715 M 270.54486803532336,22.89372559819614 M 270.6502234888757,23.673173600650955 M 270.5502530546998,24.453330554355972 M 270.2517695526761,25.1810300521868 M 269.7751141401999,25.806680575946586 M 269.1527700959214,26.28764507637746 M 268.4271491379856,26.591146617606398 M 267.64770113553107,26.696502071158676 M 266.8675441818261,26.59653163698286 M 266.1398446839953,26.29804813495909 M 265.51419416023526,25.821392722482898 M 265.03322965980453,25.199048678204207 M 264.7297281185756,24.473427720268887 M 264.62437266502326,23.69397971781396 M 264.72434309919913,22.913822764109028 M 265.02282660122285,22.18612326627823 M 265.49948201369904,21.560472742518357 M 266.12182605797756,21.07950824208757 M 266.84744701591325,20.776006700858602 M 267.6268950183678,20.670651247306353 M 268.4070519720729,20.77062168148217 M 269.13475146990373,21.069105183505854 M 269.7604019936636,21.545760595982074 M 270.2413664940945,22.168104640260765 M 349.95448462777483,164.13499665960495 M 350.7342917542028,164.03233310377425 M 351.51409888063074,164.13499665960484 M 352.24076344008495,164.43599097542653 M 352.8647644437085,164.9148037860329 M 353.3435772543147,165.53880478965613 M 353.6445715701366,166.26546934911056 M 353.74723512596734,167.04527647553823 M 353.6445715701367,167.82508360196624 M 353.3435772543149,168.55174816142068 M 352.86476444370874,169.17574916504395 M 352.2407634400853,169.65456197565027 M 351.51409888063114,169.95555629147213 M 350.7342917542031,170.05821984730278 M 349.9544846277752,169.9555562914722 M 349.22782006832097,169.65456197565055 M 348.6038190646975,169.17574916504412 M 348.1250062540913,168.5517481614209 M 347.82401193826934,167.82508360196653 M 347.7213483824387,167.0452764755388 M 347.82401193826934,166.2654693491108 M 348.12500625409115,165.5388047896564 M 348.6038190646973,164.91480378603308 M 349.2278200683206,164.43599097542682 M 265.36137089025794,309.17582018077337 M 265.83910571373156,308.55099348594945 M 266.46227916635127,308.07110411528805 M 267.18842300716346,307.76885573634473 M 267.96805173342693,307.66484607665564 M 268.7480349358437,307.7661632226443 M 269.4752180481526,308.0659025782462 M 270.10004474297625,308.5436374017196 M 270.5799341136377,309.16681085433913 M 270.88218249258125,309.8929546951518 M 270.98619215227023,310.672583421415 M 270.88487500628156,311.4525666238319 M 270.58513565067983,312.1797497361406 M 270.1074008272061,312.8045764309645 M 269.4842273745865,313.28446580162597 M 268.75808353377425,313.5867141805692 M 267.97845480751073,313.6907238402584 M 267.198471605094,313.58940669426977 M 266.47128849278516,313.2896673386677 M 265.8464617979615,312.8119325151943 M 265.36657242729996,312.18875906257483 M 265.06432404835664,311.46261522176223 M 264.9603143886675,310.6829864954989 M 265.06163153465604,309.9030032930821 M 187.67435483844838,220.19313517750464 M 189.44720546314903,223.69402794787624 M 190.74793090230457,227.396373536699 M 191.55427538302175,231.23682378446398 M 191.85244212767464,235.14966752265792 M 191.6373294205948,239.06795491007546 M 190.91261789984077,242.9246429631628 M 189.69070758046072,246.65374268005615 M 187.99250568679682,250.1914481306976 M 185.84706892408013,253.47722819398928 M 183.29110631014814,256.4548622620578 M 180.36835107397206,259.0734021904429 M 177.1288123679836,261.28804403497304 M 173.62791959761205,263.0608946596737 M 169.9255740087893,264.3616200988291 M 166.08512376102433,265.1679645795463 M 162.1722800228303,265.46613132419924 M 158.25399263541289,265.2510186171193 M 154.3973045823255,264.52630709636554 M 150.66820486543213,263.3043967769854 M 147.13049941479085,261.6061948833215 M 143.84471935149912,259.4607581206048 M 140.8670852834304,256.90479550667277 M 138.2485453550455,253.98204027049655 M 136.03390351051536,250.74250156450825 M 134.26105288581468,247.2416087941367 M 132.9603274466592,243.5392632053139 M 132.15398296594196,239.6988129575489 M 131.8558162212891,235.7859692193549 M 132.07092892836894,231.86768183193766 M 132.79564044912297,228.0109937788502 M 134.01755076850293,224.28189406195668 M 135.7157526621669,220.74418861131562 M 137.86118942488355,217.45840854802378 M 140.4171520388155,214.48077447995513 M 143.33990727499162,211.86223455157005 M 146.5794459809801,209.64759270703996 M 150.08033875135158,207.87474208233925 M 153.78268434017428,206.5740166431837 M 157.62313458793926,205.76767216246657 M 161.53597832613332,205.46950541781365 M 165.4542657135507,205.68461812489363 M 169.31095376663814,206.4093296456474 M 173.04005348353147,207.63123996502742 M 176.57775893417283,209.32944185869138 M 179.86353899746447,211.47487862140804 M 182.84117306553324,214.03084123534006 M 185.45971299391817,216.9535964715161 M 198.35412917442264,217.3920181055567 M 198.35412917409522,117.3920181055567 M 248.35412917409525,117.3920181055567 M 248.35412917442267,217.3920181055567 "
  />
</svg>
