solid KosselMiniBase
facet normal 0.0 -0.7071067811865474 0.7071067811865478
  outer loop
    vertex 236.96080576000284 48.18267223239344 89.00185713598242
    vertex 232.96080576000284 64.18267223239344 105.00185713598243
    vertex 232.96080576000284 48.18267223239344 89.00185713598242
  endloop
endfacet
facet normal 0.0 -0.7071067811865474 0.7071067811865478
  outer loop
    vertex 232.96080576000284 64.18267223239344 105.00185713598243
    vertex 236.96080576000284 48.18267223239344 89.00185713598242
    vertex 236.96080576000284 64.18267223239344 105.00185713598243
  endloop
endfacet
facet normal 0.0 -0.7071067811865474 0.7071067811865478
  outer loop
    vertex 220.9608057600028 48.18267223239344 89.00185713598242
    vertex 216.96665676000288 64.18267223239344 105.00185713598243
    vertex 216.96665676000288 48.18267223239344 89.00185713598242
  endloop
endfacet
facet normal 0.0 -0.7071067811865474 0.7071067811865478
  outer loop
    vertex 216.96665676000288 64.18267223239344 105.00185713598243
    vertex 220.9608057600028 48.18267223239344 89.00185713598242
    vertex 220.9608057600028 64.18267223239344 105.00185713598243
  endloop
endfacet
facet normal 0.0 0.0 -1.0
  outer loop
    vertex 216.9608057600028 68.18267223239344 85.0018571359824
    vertex 225.90014571849787 59.24333212289527 84.9925012194685
    vertex 216.9608057600028 48.18267223239344 85.0018571359824
  endloop
endfacet
facet normal 0.0 0.0 -1.0
  outer loop
    vertex 225.90014571849787 59.24333212289527 84.9925012194685
    vertex 216.9608057600028 68.18267223239344 85.0018571359824
    vertex 236.96080576000284 68.18267223239344 85.0018571359824
  endloop
endfacet
facet normal 0.0 0.0 -1.0
  outer loop
    vertex 216.9608057600028 48.18267223239344 85.0018571359824
    vertex 225.90014571849787 59.24333212289527 84.9925012194685
    vertex 225.66176781387966 58.93267198927208 84.9925012194685
  endloop
endfacet
facet normal 0.0 0.0 -1.0
  outer loop
    vertex 216.9608057600028 48.18267223239344 85.0018571359824
    vertex 225.66176781387966 58.93267198927208 84.9925012194685
    vertex 225.51191719852798 58.570900601360194 84.9925012194685
  endloop
endfacet
facet normal 0.0 0.0 -1.0
  outer loop
    vertex 216.9608057600028 48.18267223239344 85.0018571359824
    vertex 225.51191719852798 58.570900601360194 84.9925012194685
    vertex 225.46080594423933 58.182672081390336 84.9925012194685
  endloop
endfacet
facet normal 0.0 0.0 -1.0
  outer loop
    vertex 225.90014571849787 59.24333212289527 84.9925012194685
    vertex 236.96080576000284 68.18267223239344 85.0018571359824
    vertex 226.21080585212104 59.48171002751349 84.9925012194685
  endloop
endfacet
facet normal 0.0 0.0 -1.0
  outer loop
    vertex 226.21080585212104 59.48171002751349 84.9925012194685
    vertex 236.96080576000284 68.18267223239344 85.0018571359824
    vertex 226.57257724003293 59.63156064286513 84.9925012194685
  endloop
endfacet
facet normal 0.0 0.0 -1.0
  outer loop
    vertex 226.57257724003293 59.63156064286513 84.9925012194685
    vertex 236.96080576000284 68.18267223239344 85.0018571359824
    vertex 226.9608057600028 59.682671897153824 84.9925012194685
  endloop
endfacet
facet normal 0.0 0.0 -1.0
  outer loop
    vertex 226.9608057600028 59.682671897153824 84.9925012194685
    vertex 236.96080576000284 68.18267223239344 85.0018571359824
    vertex 227.3490342799727 59.63156064286513 84.9925012194685
  endloop
endfacet
facet normal 0.0 0.0 -1.0
  outer loop
    vertex 227.3490342799727 59.63156064286513 84.9925012194685
    vertex 236.96080576000284 68.18267223239344 85.0018571359824
    vertex 227.71080566788453 59.48171002751349 84.9925012194685
  endloop
endfacet
facet normal 0.0 0.0 -1.0
  outer loop
    vertex 227.71080566788453 59.48171002751349 84.9925012194685
    vertex 236.96080576000284 68.18267223239344 85.0018571359824
    vertex 228.02146580150773 59.24333212289527 84.9925012194685
  endloop
endfacet
facet normal 0.0 0.0 -1.0
  outer loop
    vertex 228.02146580150773 59.24333212289527 84.9925012194685
    vertex 236.96080576000284 68.18267223239344 85.0018571359824
    vertex 228.25984370612596 58.93267198927208 84.9925012194685
  endloop
endfacet
facet normal 0.0 0.0 -1.0
  outer loop
    vertex 228.25984370612596 58.93267198927208 84.9925012194685
    vertex 236.96080576000284 68.18267223239344 85.0018571359824
    vertex 228.40969432147762 58.570900601360194 84.9925012194685
  endloop
endfacet
facet normal 0.0 0.0 -1.0
  outer loop
    vertex 228.40969432147762 58.570900601360194 84.9925012194685
    vertex 236.96080576000284 68.18267223239344 85.0018571359824
    vertex 228.4608055757663 58.182672081390336 84.9925012194685
  endloop
endfacet
facet normal 0.0 0.0 -1.0
  outer loop
    vertex 216.9608057600028 48.18267223239344 85.0018571359824
    vertex 225.90014571849787 57.122012039885405 84.9925012194685
    vertex 236.96080576000284 48.18267223239344 85.0018571359824
  endloop
endfacet
facet normal 0.0 0.0 -1.0
  outer loop
    vertex 225.90014571849787 57.122012039885405 84.9925012194685
    vertex 216.9608057600028 48.18267223239344 85.0018571359824
    vertex 225.66176781387966 57.43267217350859 84.9925012194685
  endloop
endfacet
facet normal 0.0 0.0 -1.0
  outer loop
    vertex 225.66176781387966 57.43267217350859 84.9925012194685
    vertex 216.9608057600028 48.18267223239344 85.0018571359824
    vertex 225.51191719852798 57.79444356142047 84.9925012194685
  endloop
endfacet
facet normal 0.0 0.0 -1.0
  outer loop
    vertex 225.51191719852798 57.79444356142047 84.9925012194685
    vertex 216.9608057600028 48.18267223239344 85.0018571359824
    vertex 225.46080594423933 58.182672081390336 84.9925012194685
  endloop
endfacet
facet normal 0.0 0.0 -1.0
  outer loop
    vertex 236.96080576000284 48.18267223239344 85.0018571359824
    vertex 225.90014571849787 57.122012039885405 84.9925012194685
    vertex 226.2108058521211 56.88363413526717 84.9925012194685
  endloop
endfacet
facet normal 0.0 0.0 -1.0
  outer loop
    vertex 236.96080576000284 48.18267223239344 85.0018571359824
    vertex 226.2108058521211 56.88363413526717 84.9925012194685
    vertex 226.57257724003293 56.733783519915534 84.9925012194685
  endloop
endfacet
facet normal 0.0 0.0 -1.0
  outer loop
    vertex 236.96080576000284 48.18267223239344 85.0018571359824
    vertex 226.57257724003293 56.733783519915534 84.9925012194685
    vertex 226.9608057600028 56.68267226562685 84.9925012194685
  endloop
endfacet
facet normal 0.0 0.0 -1.0
  outer loop
    vertex 236.96080576000284 48.18267223239344 85.0018571359824
    vertex 226.9608057600028 56.68267226562685 84.9925012194685
    vertex 227.3490342799727 56.733783519915534 84.9925012194685
  endloop
endfacet
facet normal 0.0 0.0 -1.0
  outer loop
    vertex 236.96080576000284 48.18267223239344 85.0018571359824
    vertex 227.3490342799727 56.733783519915534 84.9925012194685
    vertex 227.71080566788459 56.88363413526717 84.9925012194685
  endloop
endfacet
facet normal 0.0 0.0 -1.0
  outer loop
    vertex 236.96080576000284 48.18267223239344 85.0018571359824
    vertex 227.71080566788459 56.88363413526717 84.9925012194685
    vertex 228.02146580150773 57.122012039885405 84.9925012194685
  endloop
endfacet
facet normal 0.0 0.0 -1.0
  outer loop
    vertex 236.96080576000284 48.18267223239344 85.0018571359824
    vertex 228.02146580150773 57.122012039885405 84.9925012194685
    vertex 228.25984370612596 57.43267217350859 84.9925012194685
  endloop
endfacet
facet normal 0.0 0.0 -1.0
  outer loop
    vertex 236.96080576000284 48.18267223239344 85.0018571359824
    vertex 228.25984370612596 57.43267217350859 84.9925012194685
    vertex 228.40969432147762 57.79444356142047 84.9925012194685
  endloop
endfacet
facet normal 0.0 0.0 -1.0
  outer loop
    vertex 236.96080576000284 48.18267223239344 85.0018571359824
    vertex 228.40969432147762 57.79444356142047 84.9925012194685
    vertex 228.4608055757663 58.182672081390336 84.9925012194685
  endloop
endfacet
facet normal 0.0 0.0 -1.0
  outer loop
    vertex 236.96080576000284 48.18267223239344 85.0018571359824
    vertex 228.4608055757663 58.182672081390336 84.9925012194685
    vertex 236.96080576000284 68.18267223239344 85.0018571359824
  endloop
endfacet
facet normal -1.0 0.0 0.0
  outer loop
    vertex 232.96080576000284 64.18267223239344 89.00185713598242
    vertex 232.96080576000284 48.18267223239344 89.00185713598242
    vertex 232.96080576000284 64.18267223239344 105.00185713598243
  endloop
endfacet
facet normal 0.0 0.0 1.0
  outer loop
    vertex 216.96665676000288 64.18267223239344 105.00185713598243
    vertex 236.96080576000284 68.18267223239344 105.00185713598243
    vertex 216.9608057600028 68.18267223239344 105.00185713598243
  endloop
endfacet
facet normal 0.0 0.0 1.0
  outer loop
    vertex 236.96080576000284 68.18267223239344 105.00185713598243
    vertex 216.96665676000288 64.18267223239344 105.00185713598243
    vertex 220.9608057600028 64.18267223239344 105.00185713598243
  endloop
endfacet
facet normal 0.0 0.0 1.0
  outer loop
    vertex 236.96080576000284 68.18267223239344 105.00185713598243
    vertex 220.9608057600028 64.18267223239344 105.00185713598243
    vertex 232.96080576000284 64.18267223239344 105.00185713598243
  endloop
endfacet
facet normal 0.0 0.0 1.0
  outer loop
    vertex 236.96080576000284 68.18267223239344 105.00185713598243
    vertex 232.96080576000284 64.18267223239344 105.00185713598243
    vertex 236.96080576000284 64.18267223239344 105.00185713598243
  endloop
endfacet
facet normal 0.0 1.0 0.0
  outer loop
    vertex 216.9608057600028 68.18267223239344 85.0018571359824
    vertex 225.90014558822295 68.18267223239346 93.9411969642026
    vertex 236.96080576000284 68.18267223239344 85.0018571359824
  endloop
endfacet
facet normal 0.0 1.0 0.0
  outer loop
    vertex 225.90014558822295 68.18267223239346 93.9411969642026
    vertex 216.9608057600028 68.18267223239344 85.0018571359824
    vertex 216.9608057600028 68.18267223239344 105.00185713598243
  endloop
endfacet
facet normal 0.0 1.0 0.0
  outer loop
    vertex 236.96080576000284 68.18267223239344 85.0018571359824
    vertex 225.90014558822295 68.18267223239346 93.9411969642026
    vertex 226.21080576000278 68.18267223239346 93.70281903030575
  endloop
endfacet
facet normal 0.0 1.0 0.0
  outer loop
    vertex 236.96080576000284 68.18267223239344 85.0018571359824
    vertex 226.21080576000278 68.18267223239346 93.70281903030575
    vertex 226.572577192349 68.18267223239346 93.5529683965488
  endloop
endfacet
facet normal 0.0 1.0 0.0
  outer loop
    vertex 236.96080576000284 68.18267223239344 85.0018571359824
    vertex 226.572577192349 68.18267223239346 93.5529683965488
    vertex 226.9608057600028 68.18267223239346 93.5018571359824
  endloop
endfacet
facet normal 0.0 1.0 0.0
  outer loop
    vertex 225.90014558822295 68.18267223239346 93.9411969642026
    vertex 216.9608057600028 68.18267223239344 105.00185713598243
    vertex 225.66176765432613 68.18267223239346 94.25185713598243
  endloop
endfacet
facet normal 0.0 1.0 0.0
  outer loop
    vertex 225.66176765432613 68.18267223239346 94.25185713598243
    vertex 216.9608057600028 68.18267223239344 105.00185713598243
    vertex 225.5119170205692 68.18267223239346 94.61362856832865
  endloop
endfacet
facet normal 0.0 1.0 0.0
  outer loop
    vertex 225.5119170205692 68.18267223239346 94.61362856832865
    vertex 216.9608057600028 68.18267223239344 105.00185713598243
    vertex 225.46080576000278 68.18267223239346 95.00185713598243
  endloop
endfacet
facet normal 0.0 1.0 0.0
  outer loop
    vertex 225.46080576000278 68.18267223239346 95.00185713598243
    vertex 216.9608057600028 68.18267223239344 105.00185713598243
    vertex 225.5119170205692 68.18267223239346 95.39008570363623
  endloop
endfacet
facet normal 0.0 1.0 0.0
  outer loop
    vertex 225.5119170205692 68.18267223239346 95.39008570363623
    vertex 216.9608057600028 68.18267223239344 105.00185713598243
    vertex 225.66176765432613 68.18267223239346 95.75185713598245
  endloop
endfacet
facet normal 0.0 1.0 0.0
  outer loop
    vertex 225.66176765432613 68.18267223239346 95.75185713598245
    vertex 216.9608057600028 68.18267223239344 105.00185713598243
    vertex 225.90014558822295 68.18267223239346 96.06251730776228
  endloop
endfacet
facet normal 0.0 1.0 0.0
  outer loop
    vertex 225.90014558822295 68.18267223239346 96.06251730776228
    vertex 216.9608057600028 68.18267223239344 105.00185713598243
    vertex 226.21080576000278 68.18267223239346 96.3008952416591
  endloop
endfacet
facet normal 0.0 1.0 0.0
  outer loop
    vertex 226.21080576000278 68.18267223239346 96.3008952416591
    vertex 216.9608057600028 68.18267223239344 105.00185713598243
    vertex 226.57257719234906 68.18267223239346 96.45074587541605
  endloop
endfacet
facet normal 0.0 1.0 0.0
  outer loop
    vertex 226.57257719234906 68.18267223239346 96.45074587541605
    vertex 216.9608057600028 68.18267223239344 105.00185713598243
    vertex 226.9608057600028 68.18267223239346 96.50185713598245
  endloop
endfacet
facet normal 0.0 1.0 0.0
  outer loop
    vertex 236.96080576000284 68.18267223239344 85.0018571359824
    vertex 228.02146593178264 68.18267223239346 93.94119696420258
    vertex 236.96080576000284 68.18267223239344 105.00185713598243
  endloop
endfacet
facet normal 0.0 1.0 0.0
  outer loop
    vertex 228.02146593178264 68.18267223239346 93.94119696420258
    vertex 236.96080576000284 68.18267223239344 85.0018571359824
    vertex 227.7108057600028 68.18267223239346 93.70281903030575
  endloop
endfacet
facet normal 0.0 1.0 0.0
  outer loop
    vertex 227.7108057600028 68.18267223239346 93.70281903030575
    vertex 236.96080576000284 68.18267223239344 85.0018571359824
    vertex 227.34903432765657 68.18267223239346 93.5529683965488
  endloop
endfacet
facet normal 0.0 1.0 0.0
  outer loop
    vertex 227.34903432765657 68.18267223239346 93.5529683965488
    vertex 236.96080576000284 68.18267223239344 85.0018571359824
    vertex 226.9608057600028 68.18267223239346 93.5018571359824
  endloop
endfacet
facet normal 0.0 1.0 0.0
  outer loop
    vertex 236.96080576000284 68.18267223239344 105.00185713598243
    vertex 228.02146593178264 68.18267223239346 93.94119696420258
    vertex 228.25984386567947 68.18267223239346 94.2518571359824
  endloop
endfacet
facet normal 0.0 1.0 0.0
  outer loop
    vertex 236.96080576000284 68.18267223239344 105.00185713598243
    vertex 228.25984386567947 68.18267223239346 94.2518571359824
    vertex 228.4096944994364 68.18267223239346 94.61362856832862
  endloop
endfacet
facet normal 0.0 1.0 0.0
  outer loop
    vertex 236.96080576000284 68.18267223239344 105.00185713598243
    vertex 228.4096944994364 68.18267223239346 94.61362856832862
    vertex 228.4608057600028 68.18267223239346 95.00185713598242
  endloop
endfacet
facet normal 0.0 1.0 0.0
  outer loop
    vertex 236.96080576000284 68.18267223239344 105.00185713598243
    vertex 228.4608057600028 68.18267223239346 95.00185713598242
    vertex 228.4096944994364 68.18267223239346 95.3900857036362
  endloop
endfacet
facet normal 0.0 1.0 0.0
  outer loop
    vertex 236.96080576000284 68.18267223239344 105.00185713598243
    vertex 228.4096944994364 68.18267223239346 95.3900857036362
    vertex 228.25984386567947 68.18267223239346 95.75185713598242
  endloop
endfacet
facet normal 0.0 1.0 0.0
  outer loop
    vertex 236.96080576000284 68.18267223239344 105.00185713598243
    vertex 228.25984386567947 68.18267223239346 95.75185713598242
    vertex 228.02146593178264 68.18267223239346 96.06251730776225
  endloop
endfacet
facet normal 0.0 1.0 0.0
  outer loop
    vertex 236.96080576000284 68.18267223239344 105.00185713598243
    vertex 228.02146593178264 68.18267223239346 96.06251730776225
    vertex 227.7108057600028 68.18267223239346 96.30089524165909
  endloop
endfacet
facet normal 0.0 1.0 0.0
  outer loop
    vertex 236.96080576000284 68.18267223239344 105.00185713598243
    vertex 227.7108057600028 68.18267223239346 96.30089524165909
    vertex 227.3490343276566 68.18267223239346 96.45074587541603
  endloop
endfacet
facet normal 0.0 1.0 0.0
  outer loop
    vertex 236.96080576000284 68.18267223239344 105.00185713598243
    vertex 227.3490343276566 68.18267223239346 96.45074587541603
    vertex 226.9608057600028 68.18267223239346 96.50185713598245
  endloop
endfacet
facet normal 0.0 1.0 0.0
  outer loop
    vertex 236.96080576000284 68.18267223239344 105.00185713598243
    vertex 226.9608057600028 68.18267223239346 96.50185713598245
    vertex 216.9608057600028 68.18267223239344 105.00185713598243
  endloop
endfacet
facet normal 1.0 0.0 0.0
  outer loop
    vertex 236.96080576000284 68.18267223239344 85.0018571359824
    vertex 236.96080576000284 48.18267223239344 89.00185713598242
    vertex 236.96080576000284 48.18267223239344 85.0018571359824
  endloop
endfacet
facet normal 1.0 0.0 0.0
  outer loop
    vertex 236.96080576000284 48.18267223239344 89.00185713598242
    vertex 236.96080576000284 68.18267223239344 85.0018571359824
    vertex 236.96080576000284 64.18267223239344 105.00185713598243
  endloop
endfacet
facet normal 1.0 0.0 0.0
  outer loop
    vertex 236.96080576000284 64.18267223239344 105.00185713598243
    vertex 236.96080576000284 68.18267223239344 85.0018571359824
    vertex 236.96080576000284 68.18267223239344 105.00185713598243
  endloop
endfacet
facet normal -0.9999999985564936 -3.79935064390029e-05 3.799350643900301e-05
  outer loop
    vertex 216.96665676000288 64.18267223239344 105.00185713598243
    vertex 216.9608057600028 48.18267223239344 85.0018571359824
    vertex 216.96665676000288 48.18267223239344 89.00185713598242
  endloop
endfacet
facet normal -0.9999999985564936 -3.79935064390029e-05 3.799350643900301e-05
  outer loop
    vertex 216.9608057600028 48.18267223239344 85.0018571359824
    vertex 216.96665676000288 64.18267223239344 105.00185713598243
    vertex 216.9608057600028 68.18267223239344 85.0018571359824
  endloop
endfacet
facet normal -0.9999999985564936 -3.79935064390029e-05 3.799350643900301e-05
  outer loop
    vertex 216.9608057600028 68.18267223239344 85.0018571359824
    vertex 216.96665676000288 64.18267223239344 105.00185713598243
    vertex 216.9608057600028 68.18267223239344 105.00185713598243
  endloop
endfacet
facet normal 0.0 -1.0 0.0
  outer loop
    vertex 236.96080576000284 48.18267223239344 89.00185713598242
    vertex 216.9608057600028 48.18267223239344 85.0018571359824
    vertex 236.96080576000284 48.18267223239344 85.0018571359824
  endloop
endfacet
facet normal 0.0 -1.0 0.0
  outer loop
    vertex 216.9608057600028 48.18267223239344 85.0018571359824
    vertex 236.96080576000284 48.18267223239344 89.00185713598242
    vertex 216.96665676000288 48.18267223239344 89.00185713598242
  endloop
endfacet
facet normal 0.0 -1.0 0.0
  outer loop
    vertex 216.96665676000288 48.18267223239344 89.00185713598242
    vertex 236.96080576000284 48.18267223239344 89.00185713598242
    vertex 232.96080576000284 48.18267223239344 89.00185713598242
  endloop
endfacet
facet normal 0.0 -1.0 0.0
  outer loop
    vertex 216.96665676000288 48.18267223239344 89.00185713598242
    vertex 232.96080576000284 48.18267223239344 89.00185713598242
    vertex 220.9608057600028 48.18267223239344 89.00185713598242
  endloop
endfacet
facet normal 0.0 0.0 1.0
  outer loop
    vertex 220.9608057600028 48.18267223239344 89.00185713598242
    vertex 225.66176781387966 57.43267217350859 89.00098821946844
    vertex 220.9608057600028 64.18267223239344 89.00185713598242
  endloop
endfacet
facet normal 0.0 0.0 1.0
  outer loop
    vertex 225.66176781387966 57.43267217350859 89.00098821946844
    vertex 220.9608057600028 48.18267223239344 89.00185713598242
    vertex 225.90014571849787 57.122012039885405 89.00098821946844
  endloop
endfacet
facet normal 0.0 0.0 1.0
  outer loop
    vertex 225.90014571849787 57.122012039885405 89.00098821946844
    vertex 220.9608057600028 48.18267223239344 89.00185713598242
    vertex 232.96080576000284 48.18267223239344 89.00185713598242
  endloop
endfacet
facet normal 0.0 0.0 1.0
  outer loop
    vertex 220.9608057600028 64.18267223239344 89.00185713598242
    vertex 225.66176781387966 57.43267217350859 89.00098821946844
    vertex 225.51191719852798 57.79444356142047 89.00098821946844
  endloop
endfacet
facet normal 0.0 0.0 1.0
  outer loop
    vertex 220.9608057600028 64.18267223239344 89.00185713598242
    vertex 225.51191719852798 57.79444356142047 89.00098821946844
    vertex 225.46080594423933 58.182672081390336 89.00098821946844
  endloop
endfacet
facet normal 0.0 0.0 1.0
  outer loop
    vertex 225.90014571849787 57.122012039885405 89.00098821946844
    vertex 232.96080576000284 48.18267223239344 89.00185713598242
    vertex 226.2108058521211 56.88363413526717 89.00098821946844
  endloop
endfacet
facet normal 0.0 0.0 1.0
  outer loop
    vertex 226.2108058521211 56.88363413526717 89.00098821946844
    vertex 232.96080576000284 48.18267223239344 89.00185713598242
    vertex 226.57257724003293 56.733783519915534 89.00098821946844
  endloop
endfacet
facet normal 0.0 0.0 1.0
  outer loop
    vertex 226.57257724003293 56.733783519915534 89.00098821946844
    vertex 232.96080576000284 48.18267223239344 89.00185713598242
    vertex 226.9608057600028 56.68267226562685 89.00098821946844
  endloop
endfacet
facet normal 0.0 0.0 1.0
  outer loop
    vertex 226.9608057600028 56.68267226562685 89.00098821946844
    vertex 232.96080576000284 48.18267223239344 89.00185713598242
    vertex 227.3490342799727 56.733783519915534 89.00098821946844
  endloop
endfacet
facet normal 0.0 0.0 1.0
  outer loop
    vertex 227.3490342799727 56.733783519915534 89.00098821946844
    vertex 232.96080576000284 48.18267223239344 89.00185713598242
    vertex 227.71080566788459 56.88363413526717 89.00098821946844
  endloop
endfacet
facet normal 0.0 0.0 1.0
  outer loop
    vertex 227.71080566788459 56.88363413526717 89.00098821946844
    vertex 232.96080576000284 48.18267223239344 89.00185713598242
    vertex 228.02146580150773 57.122012039885405 89.00098821946844
  endloop
endfacet
facet normal 0.0 0.0 1.0
  outer loop
    vertex 228.02146580150773 57.122012039885405 89.00098821946844
    vertex 232.96080576000284 48.18267223239344 89.00185713598242
    vertex 228.25984370612596 57.43267217350859 89.00098821946844
  endloop
endfacet
facet normal 0.0 0.0 1.0
  outer loop
    vertex 228.25984370612596 57.43267217350859 89.00098821946844
    vertex 232.96080576000284 48.18267223239344 89.00185713598242
    vertex 228.40969432147762 57.79444356142047 89.00098821946844
  endloop
endfacet
facet normal 0.0 0.0 1.0
  outer loop
    vertex 228.40969432147762 57.79444356142047 89.00098821946844
    vertex 232.96080576000284 48.18267223239344 89.00185713598242
    vertex 228.4608055757663 58.182672081390336 89.00098821946844
  endloop
endfacet
facet normal 0.0 0.0 1.0
  outer loop
    vertex 220.9608057600028 64.18267223239344 89.00185713598242
    vertex 226.21080585212104 59.48171002751349 89.00098821946844
    vertex 232.96080576000284 64.18267223239344 89.00185713598242
  endloop
endfacet
facet normal 0.0 0.0 1.0
  outer loop
    vertex 226.21080585212104 59.48171002751349 89.00098821946844
    vertex 220.9608057600028 64.18267223239344 89.00185713598242
    vertex 225.90014571849787 59.24333212289527 89.00098821946844
  endloop
endfacet
facet normal 0.0 0.0 1.0
  outer loop
    vertex 225.90014571849787 59.24333212289527 89.00098821946844
    vertex 220.9608057600028 64.18267223239344 89.00185713598242
    vertex 225.66176781387966 58.93267198927208 89.00098821946844
  endloop
endfacet
facet normal 0.0 0.0 1.0
  outer loop
    vertex 225.66176781387966 58.93267198927208 89.00098821946844
    vertex 220.9608057600028 64.18267223239344 89.00185713598242
    vertex 225.51191719852798 58.570900601360194 89.00098821946844
  endloop
endfacet
facet normal 0.0 0.0 1.0
  outer loop
    vertex 225.51191719852798 58.570900601360194 89.00098821946844
    vertex 220.9608057600028 64.18267223239344 89.00185713598242
    vertex 225.46080594423933 58.182672081390336 89.00098821946844
  endloop
endfacet
facet normal 0.0 0.0 1.0
  outer loop
    vertex 232.96080576000284 64.18267223239344 89.00185713598242
    vertex 226.21080585212104 59.48171002751349 89.00098821946844
    vertex 226.57257724003293 59.63156064286513 89.00098821946844
  endloop
endfacet
facet normal 0.0 0.0 1.0
  outer loop
    vertex 232.96080576000284 64.18267223239344 89.00185713598242
    vertex 226.57257724003293 59.63156064286513 89.00098821946844
    vertex 226.9608057600028 59.682671897153824 89.00098821946844
  endloop
endfacet
facet normal 0.0 0.0 1.0
  outer loop
    vertex 232.96080576000284 64.18267223239344 89.00185713598242
    vertex 226.9608057600028 59.682671897153824 89.00098821946844
    vertex 227.3490342799727 59.63156064286513 89.00098821946844
  endloop
endfacet
facet normal 0.0 0.0 1.0
  outer loop
    vertex 232.96080576000284 64.18267223239344 89.00185713598242
    vertex 227.3490342799727 59.63156064286513 89.00098821946844
    vertex 227.71080566788453 59.48171002751349 89.00098821946844
  endloop
endfacet
facet normal 0.0 0.0 1.0
  outer loop
    vertex 232.96080576000284 64.18267223239344 89.00185713598242
    vertex 227.71080566788453 59.48171002751349 89.00098821946844
    vertex 228.02146580150773 59.24333212289527 89.00098821946844
  endloop
endfacet
facet normal 0.0 0.0 1.0
  outer loop
    vertex 232.96080576000284 64.18267223239344 89.00185713598242
    vertex 228.02146580150773 59.24333212289527 89.00098821946844
    vertex 228.25984370612596 58.93267198927208 89.00098821946844
  endloop
endfacet
facet normal 0.0 0.0 1.0
  outer loop
    vertex 232.96080576000284 64.18267223239344 89.00185713598242
    vertex 228.25984370612596 58.93267198927208 89.00098821946844
    vertex 228.40969432147762 58.570900601360194 89.00098821946844
  endloop
endfacet
facet normal 0.0 0.0 1.0
  outer loop
    vertex 232.96080576000284 64.18267223239344 89.00185713598242
    vertex 228.40969432147762 58.570900601360194 89.00098821946844
    vertex 228.4608055757663 58.182672081390336 89.00098821946844
  endloop
endfacet
facet normal 0.0 0.0 1.0
  outer loop
    vertex 232.96080576000284 64.18267223239344 89.00185713598242
    vertex 228.4608055757663 58.182672081390336 89.00098821946844
    vertex 232.96080576000284 48.18267223239344 89.00185713598242
  endloop
endfacet
facet normal -0.0 -1.0 -0.0
  outer loop
    vertex 232.96080576000284 64.18267223239344 89.00185713598242
    vertex 227.7108057600028 64.18267223239344 93.70281903030575
    vertex 220.9608057600028 64.18267223239344 89.00185713598242
  endloop
endfacet
facet normal -0.0 -1.0 -0.0
  outer loop
    vertex 227.7108057600028 64.18267223239344 93.70281903030575
    vertex 232.96080576000284 64.18267223239344 89.00185713598242
    vertex 228.02146593178264 64.18267223239344 93.94119696420258
  endloop
endfacet
facet normal -0.0 -1.0 -0.0
  outer loop
    vertex 228.02146593178264 64.18267223239344 93.94119696420258
    vertex 232.96080576000284 64.18267223239344 89.00185713598242
    vertex 228.25984386567947 64.18267223239344 94.2518571359824
  endloop
endfacet
facet normal -0.0 -1.0 -0.0
  outer loop
    vertex 228.25984386567947 64.18267223239344 94.2518571359824
    vertex 232.96080576000284 64.18267223239344 89.00185713598242
    vertex 232.96080576000284 64.18267223239344 105.00185713598243
  endloop
endfacet
facet normal -0.0 -1.0 -0.0
  outer loop
    vertex 220.9608057600028 64.18267223239344 89.00185713598242
    vertex 227.7108057600028 64.18267223239344 93.70281903030575
    vertex 227.34903432765657 64.18267223239344 93.5529683965488
  endloop
endfacet
facet normal -0.0 -1.0 -0.0
  outer loop
    vertex 220.9608057600028 64.18267223239344 89.00185713598242
    vertex 227.34903432765657 64.18267223239344 93.5529683965488
    vertex 226.9608057600028 64.18267223239344 93.5018571359824
  endloop
endfacet
facet normal -0.0 -1.0 -0.0
  outer loop
    vertex 228.25984386567947 64.18267223239344 94.2518571359824
    vertex 232.96080576000284 64.18267223239344 105.00185713598243
    vertex 228.4096944994364 64.18267223239344 94.61362856832862
  endloop
endfacet
facet normal -0.0 -1.0 -0.0
  outer loop
    vertex 228.4096944994364 64.18267223239344 94.61362856832862
    vertex 232.96080576000284 64.18267223239344 105.00185713598243
    vertex 228.4608057600028 64.18267223239344 95.00185713598242
  endloop
endfacet
facet normal -0.0 -1.0 -0.0
  outer loop
    vertex 228.4608057600028 64.18267223239344 95.00185713598242
    vertex 232.96080576000284 64.18267223239344 105.00185713598243
    vertex 228.4096944994364 64.18267223239344 95.3900857036362
  endloop
endfacet
facet normal -0.0 -1.0 -0.0
  outer loop
    vertex 228.4096944994364 64.18267223239344 95.3900857036362
    vertex 232.96080576000284 64.18267223239344 105.00185713598243
    vertex 228.25984386567947 64.18267223239344 95.75185713598242
  endloop
endfacet
facet normal -0.0 -1.0 -0.0
  outer loop
    vertex 228.25984386567947 64.18267223239344 95.75185713598242
    vertex 232.96080576000284 64.18267223239344 105.00185713598243
    vertex 228.02146593178264 64.18267223239344 96.06251730776225
  endloop
endfacet
facet normal -0.0 -1.0 -0.0
  outer loop
    vertex 228.02146593178264 64.18267223239344 96.06251730776225
    vertex 232.96080576000284 64.18267223239344 105.00185713598243
    vertex 227.7108057600028 64.18267223239344 96.30089524165909
  endloop
endfacet
facet normal -0.0 -1.0 -0.0
  outer loop
    vertex 227.7108057600028 64.18267223239344 96.30089524165909
    vertex 232.96080576000284 64.18267223239344 105.00185713598243
    vertex 227.3490343276566 64.18267223239344 96.45074587541603
  endloop
endfacet
facet normal -0.0 -1.0 -0.0
  outer loop
    vertex 227.3490343276566 64.18267223239344 96.45074587541603
    vertex 232.96080576000284 64.18267223239344 105.00185713598243
    vertex 226.9608057600028 64.18267223239344 96.50185713598245
  endloop
endfacet
facet normal -0.0 -1.0 -0.0
  outer loop
    vertex 220.9608057600028 64.18267223239344 89.00185713598242
    vertex 225.66176765432613 64.18267223239344 94.25185713598243
    vertex 220.9608057600028 64.18267223239344 105.00185713598243
  endloop
endfacet
facet normal -0.0 -1.0 -0.0
  outer loop
    vertex 225.66176765432613 64.18267223239344 94.25185713598243
    vertex 220.9608057600028 64.18267223239344 89.00185713598242
    vertex 225.90014558822295 64.18267223239344 93.9411969642026
  endloop
endfacet
facet normal -0.0 -1.0 -0.0
  outer loop
    vertex 225.90014558822295 64.18267223239344 93.9411969642026
    vertex 220.9608057600028 64.18267223239344 89.00185713598242
    vertex 226.21080576000278 64.18267223239344 93.70281903030575
  endloop
endfacet
facet normal -0.0 -1.0 -0.0
  outer loop
    vertex 226.21080576000278 64.18267223239344 93.70281903030575
    vertex 220.9608057600028 64.18267223239344 89.00185713598242
    vertex 226.572577192349 64.18267223239344 93.5529683965488
  endloop
endfacet
facet normal -0.0 -1.0 -0.0
  outer loop
    vertex 226.572577192349 64.18267223239344 93.5529683965488
    vertex 220.9608057600028 64.18267223239344 89.00185713598242
    vertex 226.9608057600028 64.18267223239344 93.5018571359824
  endloop
endfacet
facet normal -0.0 -1.0 -0.0
  outer loop
    vertex 220.9608057600028 64.18267223239344 105.00185713598243
    vertex 225.66176765432613 64.18267223239344 94.25185713598243
    vertex 225.5119170205692 64.18267223239344 94.61362856832865
  endloop
endfacet
facet normal -0.0 -1.0 -0.0
  outer loop
    vertex 220.9608057600028 64.18267223239344 105.00185713598243
    vertex 225.5119170205692 64.18267223239344 94.61362856832865
    vertex 225.46080576000278 64.18267223239344 95.00185713598243
  endloop
endfacet
facet normal -0.0 -1.0 -0.0
  outer loop
    vertex 220.9608057600028 64.18267223239344 105.00185713598243
    vertex 225.46080576000278 64.18267223239344 95.00185713598243
    vertex 225.5119170205692 64.18267223239344 95.39008570363623
  endloop
endfacet
facet normal -0.0 -1.0 -0.0
  outer loop
    vertex 220.9608057600028 64.18267223239344 105.00185713598243
    vertex 225.5119170205692 64.18267223239344 95.39008570363623
    vertex 225.66176765432613 64.18267223239344 95.75185713598245
  endloop
endfacet
facet normal -0.0 -1.0 -0.0
  outer loop
    vertex 220.9608057600028 64.18267223239344 105.00185713598243
    vertex 225.66176765432613 64.18267223239344 95.75185713598245
    vertex 225.90014558822295 64.18267223239344 96.06251730776228
  endloop
endfacet
facet normal -0.0 -1.0 -0.0
  outer loop
    vertex 220.9608057600028 64.18267223239344 105.00185713598243
    vertex 225.90014558822295 64.18267223239344 96.06251730776228
    vertex 226.21080576000278 64.18267223239344 96.3008952416591
  endloop
endfacet
facet normal -0.0 -1.0 -0.0
  outer loop
    vertex 220.9608057600028 64.18267223239344 105.00185713598243
    vertex 226.21080576000278 64.18267223239344 96.3008952416591
    vertex 226.57257719234906 64.18267223239344 96.45074587541605
  endloop
endfacet
facet normal -0.0 -1.0 -0.0
  outer loop
    vertex 220.9608057600028 64.18267223239344 105.00185713598243
    vertex 226.57257719234906 64.18267223239344 96.45074587541605
    vertex 226.9608057600028 64.18267223239344 96.50185713598245
  endloop
endfacet
facet normal -0.0 -1.0 -0.0
  outer loop
    vertex 220.9608057600028 64.18267223239344 105.00185713598243
    vertex 226.9608057600028 64.18267223239344 96.50185713598245
    vertex 232.96080576000284 64.18267223239344 105.00185713598243
  endloop
endfacet
facet normal 1.0 0.0 0.0
  outer loop
    vertex 220.9608057600028 64.18267223239344 105.00185713598243
    vertex 220.9608057600028 48.18267223239344 89.00185713598242
    vertex 220.9608057600028 64.18267223239344 89.00185713598242
  endloop
endfacet
facet normal -0.9914448613738043 -0.0 -0.13052619222009842
  outer loop
    vertex 228.4096944994364 68.18267223239346 95.3900857036362
    vertex 228.4608057600028 64.18267223239344 95.00185713598242
    vertex 228.4096944994364 64.18267223239344 95.3900857036362
  endloop
endfacet
facet normal -0.9914448613738043 -0.0 -0.13052619222009842
  outer loop
    vertex 228.4608057600028 64.18267223239344 95.00185713598242
    vertex 228.4096944994364 68.18267223239346 95.3900857036362
    vertex 228.4608057600028 68.18267223239346 95.00185713598242
  endloop
endfacet
facet normal -0.9238795325113007 -0.0 -0.38268343236505625
  outer loop
    vertex 228.25984386567947 68.18267223239346 95.75185713598242
    vertex 228.4096944994364 64.18267223239344 95.3900857036362
    vertex 228.25984386567947 64.18267223239344 95.75185713598242
  endloop
endfacet
facet normal -0.9238795325113007 -0.0 -0.38268343236505625
  outer loop
    vertex 228.4096944994364 64.18267223239344 95.3900857036362
    vertex 228.25984386567947 68.18267223239346 95.75185713598242
    vertex 228.4096944994364 68.18267223239346 95.3900857036362
  endloop
endfacet
facet normal -0.7933533402912517 -0.0 -0.6087614290086991
  outer loop
    vertex 228.02146593178264 68.18267223239346 96.06251730776225
    vertex 228.25984386567947 64.18267223239344 95.75185713598242
    vertex 228.02146593178264 64.18267223239344 96.06251730776225
  endloop
endfacet
facet normal -0.7933533402912517 -0.0 -0.6087614290086991
  outer loop
    vertex 228.25984386567947 64.18267223239344 95.75185713598242
    vertex 228.02146593178264 68.18267223239346 96.06251730776225
    vertex 228.25984386567947 68.18267223239346 95.75185713598242
  endloop
endfacet
facet normal -0.6087614290087215 -0.0 -0.7933533402912346
  outer loop
    vertex 228.02146593178264 68.18267223239346 96.06251730776225
    vertex 227.7108057600028 64.18267223239344 96.30089524165909
    vertex 227.7108057600028 68.18267223239346 96.30089524165909
  endloop
endfacet
facet normal -0.6087614290087215 -0.0 -0.7933533402912346
  outer loop
    vertex 227.7108057600028 64.18267223239344 96.30089524165909
    vertex 228.02146593178264 68.18267223239346 96.06251730776225
    vertex 228.02146593178264 64.18267223239344 96.06251730776225
  endloop
endfacet
facet normal -0.382683432365091 -0.0 -0.9238795325112863
  outer loop
    vertex 227.7108057600028 68.18267223239346 96.30089524165909
    vertex 227.3490343276566 64.18267223239344 96.45074587541603
    vertex 227.3490343276566 68.18267223239346 96.45074587541603
  endloop
endfacet
facet normal -0.382683432365091 -0.0 -0.9238795325112863
  outer loop
    vertex 227.3490343276566 64.18267223239344 96.45074587541603
    vertex 227.7108057600028 68.18267223239346 96.30089524165909
    vertex 227.7108057600028 64.18267223239344 96.30089524165909
  endloop
endfacet
facet normal -0.1305261922200664 -0.0 -0.9914448613738085
  outer loop
    vertex 227.3490343276566 68.18267223239346 96.45074587541603
    vertex 226.9608057600028 64.18267223239344 96.50185713598245
    vertex 226.9608057600028 68.18267223239346 96.50185713598245
  endloop
endfacet
facet normal -0.1305261922200664 -0.0 -0.9914448613738085
  outer loop
    vertex 226.9608057600028 64.18267223239344 96.50185713598245
    vertex 227.3490343276566 68.18267223239346 96.45074587541603
    vertex 227.3490343276566 64.18267223239344 96.45074587541603
  endloop
endfacet
facet normal 0.13052619222005302 0.0 -0.9914448613738104
  outer loop
    vertex 226.9608057600028 68.18267223239346 96.50185713598245
    vertex 226.57257719234906 64.18267223239344 96.45074587541605
    vertex 226.57257719234906 68.18267223239346 96.45074587541605
  endloop
endfacet
facet normal 0.13052619222005302 0.0 -0.9914448613738104
  outer loop
    vertex 226.57257719234906 64.18267223239344 96.45074587541605
    vertex 226.9608057600028 68.18267223239346 96.50185713598245
    vertex 226.9608057600028 64.18267223239344 96.50185713598245
  endloop
endfacet
facet normal 0.38268343236505026 0.0 -0.9238795325113032
  outer loop
    vertex 226.57257719234906 68.18267223239346 96.45074587541605
    vertex 226.21080576000278 64.18267223239344 96.3008952416591
    vertex 226.21080576000278 68.18267223239346 96.3008952416591
  endloop
endfacet
facet normal 0.38268343236505026 0.0 -0.9238795325113032
  outer loop
    vertex 226.21080576000278 64.18267223239344 96.3008952416591
    vertex 226.57257719234906 68.18267223239346 96.45074587541605
    vertex 226.57257719234906 64.18267223239344 96.45074587541605
  endloop
endfacet
facet normal 0.6087614290087033 0.0 -0.7933533402912485
  outer loop
    vertex 226.21080576000278 68.18267223239346 96.3008952416591
    vertex 225.90014558822295 64.18267223239344 96.06251730776228
    vertex 225.90014558822295 68.18267223239346 96.06251730776228
  endloop
endfacet
facet normal 0.6087614290087033 0.0 -0.7933533402912485
  outer loop
    vertex 225.90014558822295 64.18267223239344 96.06251730776228
    vertex 226.21080576000278 68.18267223239346 96.3008952416591
    vertex 226.21080576000278 64.18267223239344 96.3008952416591
  endloop
endfacet
facet normal 0.7933533402912517 0.0 -0.6087614290086991
  outer loop
    vertex 225.66176765432613 68.18267223239346 95.75185713598245
    vertex 225.90014558822295 64.18267223239344 96.06251730776228
    vertex 225.66176765432613 64.18267223239344 95.75185713598245
  endloop
endfacet
facet normal 0.7933533402912517 0.0 -0.6087614290086991
  outer loop
    vertex 225.90014558822295 64.18267223239344 96.06251730776228
    vertex 225.66176765432613 68.18267223239346 95.75185713598245
    vertex 225.90014558822295 68.18267223239346 96.06251730776228
  endloop
endfacet
facet normal 0.9238795325113007 0.0 -0.38268343236505625
  outer loop
    vertex 225.5119170205692 68.18267223239346 95.39008570363623
    vertex 225.66176765432613 64.18267223239344 95.75185713598245
    vertex 225.5119170205692 64.18267223239344 95.39008570363623
  endloop
endfacet
facet normal 0.9238795325113007 0.0 -0.38268343236505625
  outer loop
    vertex 225.66176765432613 64.18267223239344 95.75185713598245
    vertex 225.5119170205692 68.18267223239346 95.39008570363623
    vertex 225.66176765432613 68.18267223239346 95.75185713598245
  endloop
endfacet
facet normal 0.9914448613738043 0.0 -0.13052619222009842
  outer loop
    vertex 225.46080576000278 68.18267223239346 95.00185713598243
    vertex 225.5119170205692 64.18267223239344 95.39008570363623
    vertex 225.46080576000278 64.18267223239344 95.00185713598243
  endloop
endfacet
facet normal 0.9914448613738043 0.0 -0.13052619222009842
  outer loop
    vertex 225.5119170205692 64.18267223239344 95.39008570363623
    vertex 225.46080576000278 68.18267223239346 95.00185713598243
    vertex 225.5119170205692 68.18267223239346 95.39008570363623
  endloop
endfacet
facet normal 0.9914448613738043 0.0 0.13052619222009842
  outer loop
    vertex 225.5119170205692 68.18267223239346 94.61362856832865
    vertex 225.46080576000278 64.18267223239344 95.00185713598243
    vertex 225.5119170205692 64.18267223239344 94.61362856832865
  endloop
endfacet
facet normal 0.9914448613738043 0.0 0.13052619222009842
  outer loop
    vertex 225.46080576000278 64.18267223239344 95.00185713598243
    vertex 225.5119170205692 68.18267223239346 94.61362856832865
    vertex 225.46080576000278 68.18267223239346 95.00185713598243
  endloop
endfacet
facet normal 0.9238795325113007 0.0 0.38268343236505625
  outer loop
    vertex 225.66176765432613 68.18267223239346 94.25185713598243
    vertex 225.5119170205692 64.18267223239344 94.61362856832865
    vertex 225.66176765432613 64.18267223239344 94.25185713598243
  endloop
endfacet
facet normal 0.9238795325113007 0.0 0.38268343236505625
  outer loop
    vertex 225.5119170205692 64.18267223239344 94.61362856832865
    vertex 225.66176765432613 68.18267223239346 94.25185713598243
    vertex 225.5119170205692 68.18267223239346 94.61362856832865
  endloop
endfacet
facet normal 0.7933533402912517 0.0 0.6087614290086991
  outer loop
    vertex 225.90014558822295 68.18267223239346 93.9411969642026
    vertex 225.66176765432613 64.18267223239344 94.25185713598243
    vertex 225.90014558822295 64.18267223239344 93.9411969642026
  endloop
endfacet
facet normal 0.7933533402912517 0.0 0.6087614290086991
  outer loop
    vertex 225.66176765432613 64.18267223239344 94.25185713598243
    vertex 225.90014558822295 68.18267223239346 93.9411969642026
    vertex 225.66176765432613 68.18267223239346 94.25185713598243
  endloop
endfacet
facet normal 0.6087614290087215 0.0 0.7933533402912346
  outer loop
    vertex 226.21080576000278 64.18267223239344 93.70281903030575
    vertex 225.90014558822295 68.18267223239346 93.9411969642026
    vertex 225.90014558822295 64.18267223239344 93.9411969642026
  endloop
endfacet
facet normal 0.6087614290087215 0.0 0.7933533402912346
  outer loop
    vertex 225.90014558822295 68.18267223239346 93.9411969642026
    vertex 226.21080576000278 64.18267223239344 93.70281903030575
    vertex 226.21080576000278 68.18267223239346 93.70281903030575
  endloop
endfacet
facet normal 0.382683432365091 0.0 0.9238795325112863
  outer loop
    vertex 226.572577192349 64.18267223239344 93.5529683965488
    vertex 226.21080576000278 68.18267223239346 93.70281903030575
    vertex 226.21080576000278 64.18267223239344 93.70281903030575
  endloop
endfacet
facet normal 0.382683432365091 0.0 0.9238795325112863
  outer loop
    vertex 226.21080576000278 68.18267223239346 93.70281903030575
    vertex 226.572577192349 64.18267223239344 93.5529683965488
    vertex 226.572577192349 68.18267223239346 93.5529683965488
  endloop
endfacet
facet normal 0.1305261922200664 0.0 0.9914448613738085
  outer loop
    vertex 226.9608057600028 64.18267223239344 93.5018571359824
    vertex 226.572577192349 68.18267223239346 93.5529683965488
    vertex 226.572577192349 64.18267223239344 93.5529683965488
  endloop
endfacet
facet normal 0.1305261922200664 0.0 0.9914448613738085
  outer loop
    vertex 226.572577192349 68.18267223239346 93.5529683965488
    vertex 226.9608057600028 64.18267223239344 93.5018571359824
    vertex 226.9608057600028 68.18267223239346 93.5018571359824
  endloop
endfacet
facet normal -0.13052619222005302 0.0 0.9914448613738104
  outer loop
    vertex 227.34903432765657 64.18267223239344 93.5529683965488
    vertex 226.9608057600028 68.18267223239346 93.5018571359824
    vertex 226.9608057600028 64.18267223239344 93.5018571359824
  endloop
endfacet
facet normal -0.13052619222005302 0.0 0.9914448613738104
  outer loop
    vertex 226.9608057600028 68.18267223239346 93.5018571359824
    vertex 227.34903432765657 64.18267223239344 93.5529683965488
    vertex 227.34903432765657 68.18267223239346 93.5529683965488
  endloop
endfacet
facet normal -0.38268343236505026 0.0 0.9238795325113032
  outer loop
    vertex 227.7108057600028 64.18267223239344 93.70281903030575
    vertex 227.34903432765657 68.18267223239346 93.5529683965488
    vertex 227.34903432765657 64.18267223239344 93.5529683965488
  endloop
endfacet
facet normal -0.38268343236505026 0.0 0.9238795325113032
  outer loop
    vertex 227.34903432765657 68.18267223239346 93.5529683965488
    vertex 227.7108057600028 64.18267223239344 93.70281903030575
    vertex 227.7108057600028 68.18267223239346 93.70281903030575
  endloop
endfacet
facet normal -0.6087614290087033 0.0 0.7933533402912485
  outer loop
    vertex 228.02146593178264 64.18267223239344 93.94119696420258
    vertex 227.7108057600028 68.18267223239346 93.70281903030575
    vertex 227.7108057600028 64.18267223239344 93.70281903030575
  endloop
endfacet
facet normal -0.6087614290087033 0.0 0.7933533402912485
  outer loop
    vertex 227.7108057600028 68.18267223239346 93.70281903030575
    vertex 228.02146593178264 64.18267223239344 93.94119696420258
    vertex 228.02146593178264 68.18267223239346 93.94119696420258
  endloop
endfacet
facet normal -0.7933533402912517 0.0 0.6087614290086991
  outer loop
    vertex 228.25984386567947 68.18267223239346 94.2518571359824
    vertex 228.02146593178264 64.18267223239344 93.94119696420258
    vertex 228.25984386567947 64.18267223239344 94.2518571359824
  endloop
endfacet
facet normal -0.7933533402912517 0.0 0.6087614290086991
  outer loop
    vertex 228.02146593178264 64.18267223239344 93.94119696420258
    vertex 228.25984386567947 68.18267223239346 94.2518571359824
    vertex 228.02146593178264 68.18267223239346 93.94119696420258
  endloop
endfacet
facet normal -0.9238795325113007 0.0 0.38268343236505625
  outer loop
    vertex 228.4096944994364 68.18267223239346 94.61362856832862
    vertex 228.25984386567947 64.18267223239344 94.2518571359824
    vertex 228.4096944994364 64.18267223239344 94.61362856832862
  endloop
endfacet
facet normal -0.9238795325113007 0.0 0.38268343236505625
  outer loop
    vertex 228.25984386567947 64.18267223239344 94.2518571359824
    vertex 228.4096944994364 68.18267223239346 94.61362856832862
    vertex 228.25984386567947 68.18267223239346 94.2518571359824
  endloop
endfacet
facet normal -0.9914448613738043 0.0 0.13052619222009842
  outer loop
    vertex 228.4608057600028 68.18267223239346 95.00185713598242
    vertex 228.4096944994364 64.18267223239344 94.61362856832862
    vertex 228.4608057600028 64.18267223239344 95.00185713598242
  endloop
endfacet
facet normal -0.9914448613738043 0.0 0.13052619222009842
  outer loop
    vertex 228.4096944994364 64.18267223239344 94.61362856832862
    vertex 228.4608057600028 68.18267223239346 95.00185713598242
    vertex 228.4096944994364 68.18267223239346 94.61362856832862
  endloop
endfacet
facet normal -0.7933533402912362 0.6087614290087193 0.0
  outer loop
    vertex 228.25984370612596 57.43267217350859 89.00098821946844
    vertex 228.02146580150773 57.122012039885405 84.9925012194685
    vertex 228.02146580150773 57.122012039885405 89.00098821946844
  endloop
endfacet
facet normal -0.7933533402912362 0.6087614290087193 0.0
  outer loop
    vertex 228.02146580150773 57.122012039885405 84.9925012194685
    vertex 228.25984370612596 57.43267217350859 89.00098821946844
    vertex 228.25984370612596 57.43267217350859 84.9925012194685
  endloop
endfacet
facet normal -0.9238795325112668 0.38268343236513813 0.0
  outer loop
    vertex 228.40969432147762 57.79444356142047 89.00098821946844
    vertex 228.25984370612596 57.43267217350859 84.9925012194685
    vertex 228.25984370612596 57.43267217350859 89.00098821946844
  endloop
endfacet
facet normal -0.9238795325112668 0.38268343236513813 0.0
  outer loop
    vertex 228.25984370612596 57.43267217350859 84.9925012194685
    vertex 228.40969432147762 57.79444356142047 89.00098821946844
    vertex 228.40969432147762 57.79444356142047 84.9925012194685
  endloop
endfacet
facet normal -0.9914448613738154 0.13052619222001505 0.0
  outer loop
    vertex 228.4608055757663 58.182672081390336 89.00098821946844
    vertex 228.40969432147762 57.79444356142047 84.9925012194685
    vertex 228.40969432147762 57.79444356142047 89.00098821946844
  endloop
endfacet
facet normal -0.9914448613738154 0.13052619222001505 0.0
  outer loop
    vertex 228.40969432147762 57.79444356142047 84.9925012194685
    vertex 228.4608055757663 58.182672081390336 89.00098821946844
    vertex 228.4608055757663 58.182672081390336 84.9925012194685
  endloop
endfacet
facet normal -0.9914448613738154 -0.13052619222001505 -0.0
  outer loop
    vertex 228.40969432147762 58.570900601360194 89.00098821946844
    vertex 228.4608055757663 58.182672081390336 84.9925012194685
    vertex 228.4608055757663 58.182672081390336 89.00098821946844
  endloop
endfacet
facet normal -0.9914448613738154 -0.13052619222001505 -0.0
  outer loop
    vertex 228.4608055757663 58.182672081390336 84.9925012194685
    vertex 228.40969432147762 58.570900601360194 89.00098821946844
    vertex 228.40969432147762 58.570900601360194 84.9925012194685
  endloop
endfacet
facet normal -0.9238795325112668 -0.38268343236513813 -0.0
  outer loop
    vertex 228.25984370612596 58.93267198927208 89.00098821946844
    vertex 228.40969432147762 58.570900601360194 84.9925012194685
    vertex 228.40969432147762 58.570900601360194 89.00098821946844
  endloop
endfacet
facet normal -0.9238795325112668 -0.38268343236513813 -0.0
  outer loop
    vertex 228.40969432147762 58.570900601360194 84.9925012194685
    vertex 228.25984370612596 58.93267198927208 89.00098821946844
    vertex 228.25984370612596 58.93267198927208 84.9925012194685
  endloop
endfacet
facet normal -0.7933533402912362 -0.6087614290087193 -0.0
  outer loop
    vertex 228.02146580150773 59.24333212289527 89.00098821946844
    vertex 228.25984370612596 58.93267198927208 84.9925012194685
    vertex 228.25984370612596 58.93267198927208 89.00098821946844
  endloop
endfacet
facet normal -0.7933533402912362 -0.6087614290087193 -0.0
  outer loop
    vertex 228.25984370612596 58.93267198927208 84.9925012194685
    vertex 228.02146580150773 59.24333212289527 89.00098821946844
    vertex 228.02146580150773 59.24333212289527 84.9925012194685
  endloop
endfacet
facet normal -0.6087614290087097 -0.7933533402912437 -0.0
  outer loop
    vertex 228.02146580150773 59.24333212289527 89.00098821946844
    vertex 227.71080566788453 59.48171002751349 84.9925012194685
    vertex 228.02146580150773 59.24333212289527 84.9925012194685
  endloop
endfacet
facet normal -0.6087614290087097 -0.7933533402912437 -0.0
  outer loop
    vertex 227.71080566788453 59.48171002751349 84.9925012194685
    vertex 228.02146580150773 59.24333212289527 89.00098821946844
    vertex 227.71080566788453 59.48171002751349 89.00098821946844
  endloop
endfacet
facet normal -0.38268343236512975 -0.9238795325112703 -0.0
  outer loop
    vertex 227.71080566788453 59.48171002751349 89.00098821946844
    vertex 227.3490342799727 59.63156064286513 84.9925012194685
    vertex 227.71080566788453 59.48171002751349 84.9925012194685
  endloop
endfacet
facet normal -0.38268343236512975 -0.9238795325112703 -0.0
  outer loop
    vertex 227.3490342799727 59.63156064286513 84.9925012194685
    vertex 227.71080566788453 59.48171002751349 89.00098821946844
    vertex 227.3490342799727 59.63156064286513 89.00098821946844
  endloop
endfacet
facet normal -0.1305261922200359 -0.9914448613738126 -0.0
  outer loop
    vertex 227.3490342799727 59.63156064286513 89.00098821946844
    vertex 226.9608057600028 59.682671897153824 84.9925012194685
    vertex 227.3490342799727 59.63156064286513 84.9925012194685
  endloop
endfacet
facet normal -0.1305261922200359 -0.9914448613738126 -0.0
  outer loop
    vertex 226.9608057600028 59.682671897153824 84.9925012194685
    vertex 227.3490342799727 59.63156064286513 89.00098821946844
    vertex 226.9608057600028 59.682671897153824 89.00098821946844
  endloop
endfacet
facet normal 0.1305261922200359 -0.9914448613738126 0.0
  outer loop
    vertex 226.9608057600028 59.682671897153824 89.00098821946844
    vertex 226.57257724003293 59.63156064286513 84.9925012194685
    vertex 226.9608057600028 59.682671897153824 84.9925012194685
  endloop
endfacet
facet normal 0.1305261922200359 -0.9914448613738126 0.0
  outer loop
    vertex 226.57257724003293 59.63156064286513 84.9925012194685
    vertex 226.9608057600028 59.682671897153824 89.00098821946844
    vertex 226.57257724003293 59.63156064286513 89.00098821946844
  endloop
endfacet
facet normal 0.382683432365089 -0.9238795325112872 0.0
  outer loop
    vertex 226.57257724003293 59.63156064286513 89.00098821946844
    vertex 226.21080585212104 59.48171002751349 84.9925012194685
    vertex 226.57257724003293 59.63156064286513 84.9925012194685
  endloop
endfacet
facet normal 0.382683432365089 -0.9238795325112872 0.0
  outer loop
    vertex 226.21080585212104 59.48171002751349 84.9925012194685
    vertex 226.57257724003293 59.63156064286513 89.00098821946844
    vertex 226.21080585212104 59.48171002751349 89.00098821946844
  endloop
endfacet
facet normal 0.6087614290087653 -0.793353340291201 0.0
  outer loop
    vertex 226.21080585212104 59.48171002751349 89.00098821946844
    vertex 225.90014571849787 59.24333212289527 84.9925012194685
    vertex 226.21080585212104 59.48171002751349 84.9925012194685
  endloop
endfacet
facet normal 0.6087614290087653 -0.793353340291201 0.0
  outer loop
    vertex 225.90014571849787 59.24333212289527 84.9925012194685
    vertex 226.21080585212104 59.48171002751349 89.00098821946844
    vertex 225.90014571849787 59.24333212289527 89.00098821946844
  endloop
endfacet
facet normal 0.7933533402912362 -0.6087614290087193 0.0
  outer loop
    vertex 225.90014571849787 59.24333212289527 84.9925012194685
    vertex 225.66176781387966 58.93267198927208 89.00098821946844
    vertex 225.66176781387966 58.93267198927208 84.9925012194685
  endloop
endfacet
facet normal 0.7933533402912362 -0.6087614290087193 0.0
  outer loop
    vertex 225.66176781387966 58.93267198927208 89.00098821946844
    vertex 225.90014571849787 59.24333212289527 84.9925012194685
    vertex 225.90014571849787 59.24333212289527 89.00098821946844
  endloop
endfacet
facet normal 0.9238795325112668 -0.38268343236513813 0.0
  outer loop
    vertex 225.66176781387966 58.93267198927208 84.9925012194685
    vertex 225.51191719852798 58.570900601360194 89.00098821946844
    vertex 225.51191719852798 58.570900601360194 84.9925012194685
  endloop
endfacet
facet normal 0.9238795325112668 -0.38268343236513813 0.0
  outer loop
    vertex 225.51191719852798 58.570900601360194 89.00098821946844
    vertex 225.66176781387966 58.93267198927208 84.9925012194685
    vertex 225.66176781387966 58.93267198927208 89.00098821946844
  endloop
endfacet
facet normal 0.9914448613738154 -0.13052619222001505 0.0
  outer loop
    vertex 225.51191719852798 58.570900601360194 84.9925012194685
    vertex 225.46080594423933 58.182672081390336 89.00098821946844
    vertex 225.46080594423933 58.182672081390336 84.9925012194685
  endloop
endfacet
facet normal 0.9914448613738154 -0.13052619222001505 0.0
  outer loop
    vertex 225.46080594423933 58.182672081390336 89.00098821946844
    vertex 225.51191719852798 58.570900601360194 84.9925012194685
    vertex 225.51191719852798 58.570900601360194 89.00098821946844
  endloop
endfacet
facet normal 0.9914448613738154 0.13052619222001505 0.0
  outer loop
    vertex 225.46080594423933 58.182672081390336 84.9925012194685
    vertex 225.51191719852798 57.79444356142047 89.00098821946844
    vertex 225.51191719852798 57.79444356142047 84.9925012194685
  endloop
endfacet
facet normal 0.9914448613738154 0.13052619222001505 0.0
  outer loop
    vertex 225.51191719852798 57.79444356142047 89.00098821946844
    vertex 225.46080594423933 58.182672081390336 84.9925012194685
    vertex 225.46080594423933 58.182672081390336 89.00098821946844
  endloop
endfacet
facet normal 0.9238795325112668 0.38268343236513813 0.0
  outer loop
    vertex 225.51191719852798 57.79444356142047 84.9925012194685
    vertex 225.66176781387966 57.43267217350859 89.00098821946844
    vertex 225.66176781387966 57.43267217350859 84.9925012194685
  endloop
endfacet
facet normal 0.9238795325112668 0.38268343236513813 0.0
  outer loop
    vertex 225.66176781387966 57.43267217350859 89.00098821946844
    vertex 225.51191719852798 57.79444356142047 84.9925012194685
    vertex 225.51191719852798 57.79444356142047 89.00098821946844
  endloop
endfacet
facet normal 0.7933533402912362 0.6087614290087193 0.0
  outer loop
    vertex 225.66176781387966 57.43267217350859 84.9925012194685
    vertex 225.90014571849787 57.122012039885405 89.00098821946844
    vertex 225.90014571849787 57.122012039885405 84.9925012194685
  endloop
endfacet
facet normal 0.7933533402912362 0.6087614290087193 0.0
  outer loop
    vertex 225.90014571849787 57.122012039885405 89.00098821946844
    vertex 225.66176781387966 57.43267217350859 84.9925012194685
    vertex 225.66176781387966 57.43267217350859 89.00098821946844
  endloop
endfacet
facet normal 0.6087614290087097 0.7933533402912437 0.0
  outer loop
    vertex 225.90014571849787 57.122012039885405 89.00098821946844
    vertex 226.2108058521211 56.88363413526717 84.9925012194685
    vertex 225.90014571849787 57.122012039885405 84.9925012194685
  endloop
endfacet
facet normal 0.6087614290087097 0.7933533402912437 0.0
  outer loop
    vertex 226.2108058521211 56.88363413526717 84.9925012194685
    vertex 225.90014571849787 57.122012039885405 89.00098821946844
    vertex 226.2108058521211 56.88363413526717 89.00098821946844
  endloop
endfacet
facet normal 0.38268343236512975 0.9238795325112703 0.0
  outer loop
    vertex 226.2108058521211 56.88363413526717 89.00098821946844
    vertex 226.57257724003293 56.733783519915534 84.9925012194685
    vertex 226.2108058521211 56.88363413526717 84.9925012194685
  endloop
endfacet
facet normal 0.38268343236512975 0.9238795325112703 0.0
  outer loop
    vertex 226.57257724003293 56.733783519915534 84.9925012194685
    vertex 226.2108058521211 56.88363413526717 89.00098821946844
    vertex 226.57257724003293 56.733783519915534 89.00098821946844
  endloop
endfacet
facet normal 0.1305261922200359 0.9914448613738126 0.0
  outer loop
    vertex 226.57257724003293 56.733783519915534 89.00098821946844
    vertex 226.9608057600028 56.68267226562685 84.9925012194685
    vertex 226.57257724003293 56.733783519915534 84.9925012194685
  endloop
endfacet
facet normal 0.1305261922200359 0.9914448613738126 0.0
  outer loop
    vertex 226.9608057600028 56.68267226562685 84.9925012194685
    vertex 226.57257724003293 56.733783519915534 89.00098821946844
    vertex 226.9608057600028 56.68267226562685 89.00098821946844
  endloop
endfacet
facet normal -0.1305261922200359 0.9914448613738126 0.0
  outer loop
    vertex 226.9608057600028 56.68267226562685 89.00098821946844
    vertex 227.3490342799727 56.733783519915534 84.9925012194685
    vertex 226.9608057600028 56.68267226562685 84.9925012194685
  endloop
endfacet
facet normal -0.1305261922200359 0.9914448613738126 0.0
  outer loop
    vertex 227.3490342799727 56.733783519915534 84.9925012194685
    vertex 226.9608057600028 56.68267226562685 89.00098821946844
    vertex 227.3490342799727 56.733783519915534 89.00098821946844
  endloop
endfacet
facet normal -0.382683432365089 0.9238795325112872 0.0
  outer loop
    vertex 227.3490342799727 56.733783519915534 89.00098821946844
    vertex 227.71080566788459 56.88363413526717 84.9925012194685
    vertex 227.3490342799727 56.733783519915534 84.9925012194685
  endloop
endfacet
facet normal -0.382683432365089 0.9238795325112872 0.0
  outer loop
    vertex 227.71080566788459 56.88363413526717 84.9925012194685
    vertex 227.3490342799727 56.733783519915534 89.00098821946844
    vertex 227.71080566788459 56.88363413526717 89.00098821946844
  endloop
endfacet
facet normal -0.6087614290087653 0.793353340291201 0.0
  outer loop
    vertex 227.71080566788459 56.88363413526717 89.00098821946844
    vertex 228.02146580150773 57.122012039885405 84.9925012194685
    vertex 227.71080566788459 56.88363413526717 84.9925012194685
  endloop
endfacet
facet normal -0.6087614290087653 0.793353340291201 0.0
  outer loop
    vertex 228.02146580150773 57.122012039885405 84.9925012194685
    vertex 227.71080566788459 56.88363413526717 89.00098821946844
    vertex 228.02146580150773 57.122012039885405 89.00098821946844
  endloop
endfacet
endsolid KosselMiniBase
